<?xml version="1.0" encoding="UTF-8"?>
<svg width="519px" height="415px" viewBox="0 0 519 415" version="1.1" xmlns="http://www.w3.org/2000/svg" xmlns:xlink="http://www.w3.org/1999/xlink">
    <!-- Generator: Sketch 57.1 (83088) - https://sketch.com -->
    <title>2792208</title>
    <desc>Created with Sketch.</desc>
    <g id="Page-1" stroke="none" stroke-width="1" fill="none" fill-rule="evenodd">
        <g id="Desktop-HD" transform="translate(-96.000000, -1055.000000)" fill-rule="nonzero">
            <g id="2792208" transform="translate(96.000000, 1055.000000)">
                <g id="Plants" transform="translate(0.000000, 249.000000)">
                    <g id="Plants-2">
                        <g id="_Grupo_">
                            <g id="_Grupo_2">
                                <g id="_Grupo_3">
                                    <path d="M90.7509405,79.9569146 C89.6745134,66.5093606 77.7499385,39.4461583 62.3724092,23.0849676 C46.99488,6.72377698 24.1382797,-4.23037635 9.02636227,2.33931407 C-5.00912806,8.5027763 -1.93362221,27.4133991 16.6592086,38.6056862 C35.2520394,49.7979732 62.9176125,63.5256846 72.3957624,84.7055821 L90.7509405,110.143872 L90.7509405,79.9569146 Z" id="_Trazado_4" fill="#27DEBF"></path>
                                    <path d="M90.7509405,79.9569146 C89.6745134,66.5093606 77.7499385,39.4461583 62.3724092,23.0849676 C46.99488,6.72377698 24.1382797,-4.23037635 9.02636227,2.33931407 C-5.00912806,8.5027763 -1.93362221,27.4133991 16.6592086,38.6056862 C35.2520394,49.7979732 62.9176125,63.5256846 72.3957624,84.7055821 L90.7509405,110.143872 L90.7509405,79.9569146 Z" id="_Trazado_5" fill="#000000" opacity="0.1"></path>
                                </g>
                                <g id="_Grupo_4" transform="translate(15.666659, 9.513677)" fill="#FFFFFF">
                                    <path d="M77.5446861,88.751537 C77.1068481,88.7539942 76.7222683,88.4606618 76.6080548,88.0371202 C63.9425625,42.8757515 23.9050682,8.55647313 1.11836576,2.11285353 C0.646542755,1.9250837 0.39217947,1.41082257 0.528796652,0.920887167 C0.665413835,0.430951764 1.14896792,0.123290767 1.6495895,0.207783386 C24.9115974,6.79148168 65.6760295,41.6570669 78.5372358,87.5048212 C78.6148165,87.8013783 78.5515683,88.1172141 78.3658158,88.3608235 C78.1800633,88.6044328 77.8925683,88.7485871 77.5866249,88.751537 L77.5446861,88.751537 Z" id="_Trazado_6"></path>
                                </g>
                            </g>
                            <g id="_Grupo_5" transform="translate(12.870745, 57.432262)">
                                <g id="_Grupo_6" fill="#27DEBF">
                                    <path d="M75.8671375,70.7117212 C73.0712231,63.3295744 62.9080742,51.6049883 47.1810557,42.4998737 C29.790468,32.4422239 8.51355938,28.8842253 2.99162842,20.3954568 C-3.63468873,10.2117363 4.51540177,-0.616346223 21.6124184,0.168094424 C38.709435,0.952535072 70.331227,21.6841808 77.8801959,56.1435378 L75.8671375,70.7117212 Z" id="_Trazado_7"></path>
                                </g>
                                <g id="_Grupo_7" transform="translate(13.979572, 9.513677)" fill="#FFFFFF">
                                    <path d="M64.5297046,53.045469 C64.1457098,53.0435619 63.7972606,52.8198848 63.635012,52.4711415 C46.4401383,14.2856914 15.4054884,2.91130205 1.3979572,2.21090861 C1.04834777,2.1933928 0.734621025,1.99031557 0.574954826,1.67817414 C0.415288626,1.36603272 0.433940068,0.992248825 0.623883332,0.697623257 C0.813826595,0.402997689 1.14620478,0.232291089 1.49581421,0.249806992 C16.98518,1.0062319 47.8800343,12.6887944 65.4243972,51.6586851 C65.532939,51.8963198 65.5423183,52.1675397 65.4504531,52.412133 C65.3585878,52.6567263 65.1730796,52.8544529 64.9351122,52.9614169 C64.8072482,53.0172783 64.6691926,53.045469 64.5297046,53.045469 L64.5297046,53.045469 Z" id="_Trazado_8"></path>
                                </g>
                            </g>
                        </g>
                        <g id="_Grupo_8" transform="translate(429.461992, 5.166670)">
                            <g id="_Grupo_9" transform="translate(6.989786, 0.000000)" fill="#27DEBF">
                                <path d="M0.908672183,76.5692435 C1.84530351,64.9006888 7.17152046,45.7519323 20.7177258,27.541703 C35.2005624,8.01473404 52.8707415,-4.20012747 65.9835801,1.51508296 C78.201726,6.83807307 73.5744877,23.7455706 52.5352318,40.4149344 C37.7867832,52.1115047 22.4791519,67.338058 14.2451839,85.7163817 L0.908672183,109.109522 L0.908672183,76.5692435 Z" id="_Trazado_9"></path>
                            </g>
                            <g id="_Grupo_10" opacity="0.1" transform="translate(6.989786, 0.000000)" fill="#000000">
                                <path d="M0.908672183,76.5692435 C1.84530351,64.9006888 7.17152046,45.7519323 20.7177258,27.541703 C35.2005624,8.01473404 52.8707415,-4.20012747 65.9835801,1.51508296 C78.201726,6.83807307 73.5744877,23.7455706 52.5352318,40.4149344 C37.7867832,52.1115047 22.4791519,67.338058 14.2451839,85.7163817 L0.908672183,109.109522 L0.908672183,76.5692435 Z" id="_Trazado_10"></path>
                            </g>
                            <g id="_Grupo_11" transform="translate(8.098613, 7.148581)" fill="#FFFFFF">
                                <path d="M0.974128772,78.3156593 C1.32308623,78.3144639 1.63485102,78.0969025 1.75698481,77.7693524 C13.4858458,45.4251836 37.8941785,12.7028023 58.5420065,1.63658599 C58.7378006,1.53556495 58.8841628,1.35908551 58.9474443,1.14772045 C59.0107257,0.936355394 58.9854818,0.708289925 58.8775162,0.515956497 C58.773865,0.32260625 58.5977174,0.178509109 58.3879185,0.11544202 C58.1781195,0.0523749304 57.9519013,0.0755180119 57.7591504,0.179767648 C36.7897924,11.3860626 12.0459498,44.5146721 0.205252309,77.2230455 C0.128604272,77.4291977 0.137144915,77.6574636 0.228982632,77.8572863 C0.320820349,78.057109 0.488375438,78.2119964 0.694537331,78.2876435 L0.974128772,78.3156593 Z" id="_Trazado_11"></path>
                            </g>
                            <g id="_Grupo_12" transform="translate(0.000000, 52.265591)">
                                <path d="M9.07274226,64.1700465 C15.8489397,69.5045808 23.9040539,72.9630703 32.4326071,74.1996805 C47.1530965,76.5389946 53.6535975,69.4790288 53.6535975,69.4790288 C53.6535975,69.4790288 47.8520751,55.6532624 39.492291,51.7730827 C39.492291,51.7730827 53.6675771,54.6587037 65.0329692,62.2649764 C65.0329692,62.2649764 74.021834,62.4050551 77.614584,48.6633359 C77.614584,48.6633359 72.2883671,40.3846855 54.422474,35.9161754 C54.422474,35.9161754 65.298581,33.1146016 80.9836609,37.1908914 C82.1579449,37.6531511 87.1626317,19.8771657 88.6864051,11.6825625 C90.2101784,3.48795931 86.9109994,3.57200652 80.5363146,1.87705441 C74.1616297,0.182102293 52.4373747,-0.924519335 48.3832989,2.61947145 C44.329223,6.16346223 42.3581033,18.1541978 42.3581033,18.1541978 C42.3581033,18.1541978 38.5416801,11.3463737 39.4503523,5.2809665 C35.0030197,4.00212685 30.2720125,4.11453243 25.8901674,5.60314748 C18.718647,8.11055598 19.1799728,11.5985153 19.1799728,16.8094424 C19.1513817,22.072503 19.8715824,27.3127811 21.3188474,32.3721846 C21.3188474,32.3721846 16.3700789,28.0857768 16.202324,12.270893 C16.202324,12.270893 6.51448057,20.5775591 2.62815954,27.6795486 C-1.25816148,34.781538 -0.265611869,53.5240663 9.07274226,64.1700465 Z" id="_Trazado_12" fill="#27DEBF"></path>
                                <g id="_Grupo_13" transform="translate(8.098613, 5.603147)" fill="#FFFFFF">
                                    <path d="M0.974128772,59.4073712 C1.29423706,59.4005177 1.5845007,59.2173892 1.72902566,58.9311036 C13.5976823,34.2072154 57.7591504,5.47707666 73.5700464,2.39534555 C74.0199635,2.30375841 74.3127947,1.86674407 74.2270863,1.41479474 C74.1358198,0.971624242 73.7058524,0.684399101 73.2624958,0.770432779 C57.1720084,3.8941875 12.2975821,33.0865859 0.233211454,58.2026945 C0.13763791,58.4012987 0.125225447,58.6299363 0.19873465,58.837757 C0.272243853,59.0455778 0.425579647,59.2153502 0.624639471,59.3093161 C0.732057679,59.3685036 0.851655958,59.4020589 0.974128772,59.4073712 L0.974128772,59.4073712 Z" id="_Trazado_13"></path>
                                </g>
                            </g>
                        </g>
                    </g>
                </g>
                <g id="Character_2" transform="translate(208.000000, 0.000000)">
                    <g id="Character_3">
                        <g id="_Grupo_14">
                            <g id="_Grupo_15">
                                <polygon id="_Trazado_14" fill="#FFA8A7" points="26.5083963 94.8741366 12.5939208 142.509653 27.8011497 150.383638 39.6583401 110.678051"></polygon>
                                <path d="M42.0214378,76.1192255 C34.6402326,76.9164141 28.1903658,83.6016099 25.2295434,94.0769479 C22.2687209,104.552286 18.279256,120.845702 18.279256,120.845702 C18.279256,120.845702 26.3693905,129.754635 37.3508447,127.055382 L42.0214378,76.1192255 Z" id="_Trazado_15" fill="#E6E6E6"></path>
                                <g id="_Grupo_16" transform="translate(0.000000, 349.932535)" fill="#263238">
                                    <path d="M23.0471531,2.30765125 L23.0471531,0.293701068 C22.2270192,2.64330961 18.4043611,12.7270463 12.7885289,17.7199644 C8.31254377,21.6919217 2.23799255,26.2652669 0.639426444,30.7546975 C-0.959139666,35.2441281 8.89636792,37.1461922 13.0248387,36.4748754 C17.820537,35.7056584 24.0479945,33.0763345 27.4814365,28.9645196 C29.9001366,26.0694662 31.4570009,22.628968 33.1945728,20.3492883 C34.9321447,18.0696085 38.8521068,15.5661566 39.8112464,12.922847 C40.3394683,11.5242705 39.8112464,8.25160142 39.1301183,5.53836299 C38.4489901,2.82512456 37.865166,0.293701068 37.0172309,0.51747331 C37.0172309,0.825160142 37.0172309,2.04192171 37.0172309,2.04192171 C35.9885883,3.16078292 33.1667716,4.23768683 29.9974406,4.30761566 C27.9540561,4.36355872 23.0054514,3.87405694 23.0471531,2.30765125 Z" id="_Trazado_16"></path>
                                </g>
                                <g id="_Grupo_17" transform="translate(6.950287, 337.345347)" fill="#FFA8A7">
                                    <path d="M1.82097531,33.8035943 C3.2110328,32.6008185 4.60109028,31.4260142 5.8660426,30.2931673 C9.78600471,26.8107117 12.81633,20.8248043 14.5956036,16.7409609 C15.5982863,14.4121894 16.1366945,11.9079787 16.1802692,9.37046263 L16.3053743,1.35661922 L30.9565802,0.671316726 L30.0669434,14.6570819 L30.0669434,14.6570819 L30.0669434,14.9927402 L29.98354,14.9927402 C29.2746107,17.9017794 22.7413405,25.5659786 19.0159864,30.5728826 C16.5277835,33.9294662 11.8154886,38.167153 6.26915927,38.824484 C1.00084139,39.4678292 -1.65416841,37.7615658 1.82097531,33.8035943 Z" id="_Trazado_17"></path>
                                </g>
                                <g id="_Grupo_18" transform="translate(80.623334, 348.533959)" fill="#263238">
                                    <path d="M13.8727737,6.26562278 L13.3445519,4.33558719 C13.2055461,6.81106762 12.3715116,17.5801068 8.38204665,23.9156584 C5.198815,28.9924911 0.653327019,35.1042705 0.361414947,39.8594306 C0.0695028744,44.6145907 10.0918174,43.649573 13.8588731,41.8454093 C18.2514548,39.7335587 23.4919715,35.4399288 25.6326601,30.5309253 C27.1339222,27.0764413 27.6760446,23.3282562 28.6907865,20.6569751 C29.7055285,17.985694 32.7914561,14.4612811 32.9721636,11.6501423 C33.0694676,10.0977224 31.5821061,7.17469751 30.1920486,4.75516014 C28.8019911,2.33562278 27.5092377,0.0839145907 26.7586066,0.559430605 C26.8281095,0.853131673 27.1617233,2.04192171 27.1617233,2.04192171 C26.4805951,3.44049822 24.0757957,5.23067616 21.0593709,6.23765125 C19.1688927,6.85302491 14.2758904,7.79007117 13.8727737,6.26562278 Z" id="_Trazado_18"></path>
                                </g>
                                <g id="_Grupo_19" transform="translate(84.793507, 337.345347)" fill="#FFA8A7">
                                    <path d="M1.30665404,39.6496441 C2.29359485,38.0972242 3.30833682,36.5727758 4.21187419,35.1462278 C6.99198916,30.6707829 8.2430409,24.0834875 8.79906389,19.6639858 C9.10937474,17.1435377 8.92039698,14.5862096 8.2430409,12.1396441 L6.13015352,4.41950178 L19.58591,0.671316726 L23.0471531,13.2585053 L23.0471531,13.2585053 L23.1305566,13.5941637 L23.1305566,13.5941637 C23.2556618,16.5871174 19.1410916,25.7897509 16.9587013,31.6497865 C15.5686439,35.5797865 12.1908042,40.9782918 7.03369089,43.1880427 C2.11288738,45.313879 -0.917437942,44.4327758 1.30665404,39.6496441 Z" id="_Trazado_19"></path>
                                </g>
                                <g id="_Grupo_20" transform="translate(20.850862, 144.053381)">
                                    <path d="M66.1111341,5.47712588 C73.8676549,15.4909337 75.2716129,25.8403999 73.5757428,55.1126063 C71.8798727,84.3848127 71.3516508,108.887873 71.7825686,110.538193 C72.2134865,112.188514 78.5104469,125.628834 80.8179423,136.495774 C83.5285544,149.208834 84.195782,196.38282 84.195782,196.38282 C80.6597474,199.924137 75.5175795,201.30414 70.6983238,200.005133 C70.6983238,200.005133 48.2349948,124.034457 46.0526046,117.489119 C43.8702143,110.943781 30.0669434,41.5184426 30.0669434,41.5184426 L32.1659303,2.35830026 L66.1111341,5.47712588 Z" id="_Trazado_20" fill="#37474F"></path>
                                    <path d="M6.85298341,39.1688341 C8.03453228,25.6445992 10.9119513,2.21844261 10.9119513,2.21844261 L45.2741724,0.190506665 C50.8344023,8.9176241 48.4157023,23.4348483 46.9005396,36.553496 L27.2451268,113.964706 C27.6482434,117.670934 31.0399837,125.530934 27.2451268,145.460649 C23.0749543,167.712001 17.16721,197.026165 17.16721,197.026165 C17.16721,197.026165 9.77210414,200.452677 2.36309773,197.319866 C2.36309773,197.319866 -0.417017246,126.817624 1.33445519,107.559226 C3.35003854,86.7344213 6.04675007,48.4134248 6.85298341,39.1688341 Z" id="_Trazado_21" fill="#37474F"></path>
                                    <path d="M36.0858924,71.9934248 L30.5256624,43.6023216 C25.559571,41.8240207 20.8447209,39.4027831 16.4999824,36.3996526 C19.2767981,39.9332661 22.5884959,43.0056851 26.3137882,45.5043857 L36.0858924,71.9934248 Z" id="_Trazado_22" fill="#263238"></path>
                                </g>
                                <path d="M27.8011497,71.8116099 L55.4771943,71.8116099 C74.1785503,71.8116099 89.3389979,56.558254 89.3389979,37.742286 L89.3389979,37.742286 C89.3426825,29.5312806 86.1033263,21.6553068 80.3339377,15.8479372 C74.5645491,10.0405677 66.7380138,6.77780204 58.5770225,6.77780204 L58.5770225,6.77780204 C41.5799773,6.77780204 27.8011497,20.6410737 27.8011497,37.742286 L27.8011497,71.8116099 Z" id="_Trazado_23" fill="#263238"></path>
                                <path d="M84.1818814,77.0982291 C89.5197022,77.3639586 93.4535649,78.3709337 97.0816149,88.9301864 C100.709665,99.489439 108.271578,140.020186 105.741673,144.243887 L88.8663752,137.083176 L84.6962027,114.831823 C75.0909055,106.594208 75.6330279,80.0632113 84.1818814,77.0982291 Z" id="_Trazado_24" fill="#FFA8A7"></path>
                                <g id="_Grupo_21" transform="translate(28.907797, 74.412962)" fill="#F5F5F5">
                                    <path d="M5.02350581,49.8872242 C4.17557074,57.7891815 1.02014025,86.9634875 1.02014025,86.9634875 C26.9169112,100.865338 59.0411398,91.6627046 63.9619433,85.9285409 C59.5137593,71.1735587 54.718061,62.7820996 51.0483092,58.8520996 L55.7189024,40.4188612 C55.7189024,40.4188612 44.1536241,23.7758007 55.274084,2.65729537 L41.540316,1.5244484 L21.3705819,0.937046263 C16.5470824,1.2027758 13.1136404,1.67829181 13.1136404,1.67829181 C10.0138122,4.58733096 5.14861098,12.5732028 1.99318049,20.7129181 C-0.050204018,25.9855516 -2.24649485,34.3630249 5.02350581,49.8872242 Z" id="_Trazado_25"></path>
                                </g>
                                <g id="_Grupo_22" transform="translate(77.843219, 76.921708)" fill="#E6E6E6">
                                    <path d="M6.33866214,0.1765209 C12.4132134,-0.173123228 16.0690646,1.33733941 20.4477456,11.1553465 C24.8264267,20.9733536 28.3710733,44.9449551 28.3710733,44.9449551 C28.3710733,44.9449551 24.6596198,52.5392255 6.31086099,50.3854177 L3.53074602,33.7423572 C3.53074602,33.7423572 -4.55938856,16.4419657 6.33866214,0.1765209 Z" id="_Trazado_26"></path>
                                </g>
                                <path d="M82.2775027,124.104386 C82.0550935,125.01346 75.9805423,133.083247 73.0058192,134.985311 C70.0310962,136.887375 78.2880377,139.516699 79.4417854,144.243887 C81.7909825,153.782179 74.9658003,164.075702 51.793542,164.705062 C46.3167155,164.844919 46.0804057,166.019724 48.916123,167.698016 C69.5028744,171.110542 89.1165855,164.719048 92.8697407,160.341503 C88.4215568,145.586521 83.6258584,137.195062 79.9561067,133.265062 L82.2775027,124.104386 Z" id="_Trazado_27" fill="#E6E6E6"></path>
                                <g id="_Grupo_23" transform="translate(31.687912, 19.868478)" fill="#FFA8A7">
                                    <path d="M7.10859204,0.391601423 C3.85585752,2.32163701 -0.161408617,10.5452669 0.227807479,27.7897153 C0.575321851,42.4048399 5.27371616,45.97121 7.63681389,47.0620996 C9.99991161,48.1529893 14.5871013,47.4676868 18.9935836,46.7264413 L18.9935836,55.495516 C19.2656396,57.3513278 20.2673679,59.0193483 21.7736985,60.1248043 C25.3739474,62.404484 29.6553245,61.5233808 32.0601239,60.6702491 C37.356243,58.7541993 38.4126867,56.1248754 38.4126867,56.1248754 L38.3153826,35.9574021 C38.3153826,35.9574021 40.9147901,38.5167972 45.3351729,34.5588256 C48.9910241,31.3560854 50.2281753,25.9435943 47.3785574,23.0345552 C45.8836191,21.629924 43.807905,21.0354723 41.8018587,21.4374769 C39.7958124,21.8394816 38.1048832,23.1887553 37.2589389,25.0624911 C37.2589389,25.0624911 34.6595314,25.2722776 32.0601239,20.4192171 C32.0601239,20.4192171 32.1435274,7.2166548 29.280009,5.49640569 C19.9388226,0.0979003559 13.3638507,0.391601423 7.10859204,0.391601423 Z" id="_Trazado_28"></path>
                                </g>
                                <g id="_Grupo_24" transform="translate(47.261955, 40.847126)" fill="#263238">
                                    <path d="M0.875700451,2.20975089 C0.869566404,3.21033509 1.66241769,4.03083657 2.65668641,4.05281062 C3.65095514,4.07478467 4.47885125,3.29010287 4.51635642,2.2902112 C4.55386159,1.29031953 3.78710226,0.44508804 2.79401555,0.391601423 C1.76803864,0.367957762 0.913476238,1.17791393 0.875700451,2.20975089 L0.875700451,2.20975089 Z" id="_Trazado_29"></path>
                                </g>
                                <g id="_Grupo_25" opacity="0.5" style="mix-blend-mode: multiply;" transform="translate(43.091782, 56.231468)" fill="#F28F8F">
                                    <path d="M4.55938856,0.139857651 L0.319713222,1.53843416 C0.473726375,2.12048235 0.858619345,2.61332113 1.38427468,2.901559 C1.90993001,3.18979688 2.53018963,3.24812353 3.0998282,3.06288256 C4.29126789,2.64521096 4.93755018,1.35091764 4.55938856,0.139857651 L4.55938856,0.139857651 Z" id="_Trazado_30"></path>
                                </g>
                                <g id="_Grupo_26" transform="translate(33.361380, 33.565836)" fill="#263238">
                                    <path d="M0.806233343,3.75687677 L4.50378626,1.18349599 C4.19604283,0.674767872 3.69267574,0.316950673 3.11328728,0.195063373 C2.53389883,0.0731760736 1.93020993,0.198099323 1.44565979,0.540150793 C0.42003553,1.27319042 0.139724233,2.68333641 0.806233343,3.75687677 L0.806233343,3.75687677 Z" id="_Trazado_31"></path>
                                </g>
                                <g id="_Grupo_27" transform="translate(50.042070, 34.964413)" fill="#263238">
                                    <path d="M0.639426444,1.64502624 L4.80959891,3.26737499 C5.05475446,2.72255508 5.06372166,2.09970667 4.8343533,1.547971 C4.60498494,0.996235334 4.1579347,0.565293934 3.60024889,0.358335847 C2.43058721,-0.0623708934 1.13686222,0.499845702 0.639426444,1.64502624 L0.639426444,1.64502624 Z" id="_Trazado_32"></path>
                                </g>
                                <g id="_Grupo_28" transform="translate(33.077970, 40.558719)" fill="#263238">
                                    <path d="M0.269509204,2.10655649 C0.255715209,3.11658753 1.05129195,3.95023 2.05490286,3.97737535 C3.05851377,4.00452071 3.89745775,3.21508824 3.93761911,2.20577037 C3.97778047,1.19645251 3.20424488,0.342069675 2.20168911,0.288407021 C1.70525282,0.269544233 1.22189627,0.450989402 0.859062605,0.792409908 C0.496228936,1.13383041 0.283984881,1.60693395 0.269509204,2.10655649 L0.269509204,2.10655649 Z" id="_Trazado_33"></path>
                                </g>
                                <g id="_Grupo_29" opacity="0.5" style="mix-blend-mode: multiply;" transform="translate(36.141495, 40.847126)" fill="#F28F8F">
                                    <polygon id="_Trazado_34" points="6.49156847 0.769217082 6.19965639 11.8319573 0.417017246 10.0277936"></polygon>
                                </g>
                                <g id="_Grupo_30" opacity="0.5" style="mix-blend-mode: multiply;" transform="translate(50.042070, 59.028621)" fill="#F28F8F">
                                    <path d="M0.639426444,7.56629893 C5.3100196,6.95092527 14.9292174,4.16775801 16.4165789,0.349644128 C15.8147806,2.2791665 14.6409986,3.97742894 13.0526398,5.21669039 C10.1752208,7.69217082 0.639426444,10.4893238 0.639426444,10.4893238 L0.639426444,7.56629893 Z" id="_Trazado_35"></path>
                                </g>
                                <path d="M63.0252065,8.42812232 L63.7341358,0.316378551 C62.6712285,0.166519268 61.5937374,0.461709529 60.7530799,1.13307086 C59.9124223,1.8044322 59.3821346,2.79323745 59.2859518,3.86876289 C59.0761325,6.16391442 60.7456894,8.19964371 63.0252065,8.42812232 L63.0252065,8.42812232 Z" id="_Trazado_36" fill="#263238"></path>
                                <path d="M63.4561243,9.25328247 L69.9893945,4.44217926 C69.3999874,3.54863461 68.4754262,2.93397881 67.4273191,2.73889067 C66.379212,2.54380253 65.2972854,2.78498319 64.4291645,3.40723264 C62.6119874,4.78594664 62.184527,7.35413956 63.4561243,9.25328247 L63.4561243,9.25328247 Z" id="_Trazado_37" fill="#263238"></path>
                                <path d="M68.9329508,44.9869124 L68.9329508,52.7070735 L68.9329508,52.7070735 C67.553007,52.710782 66.2285145,52.1608915 65.2527434,51.1791403 C64.2769722,50.1973891 63.7304312,48.8647794 63.7341171,47.4763786 L63.7341171,40.3855956 L68.9329508,44.9869124 Z" id="_Trazado_38" fill="#263238"></path>
                                <path d="M48.1376908,8.6099335 L48.1376908,8.6099335 C41.2854653,8.60622671 34.7126269,11.3423442 29.8660677,16.2159826 C25.0195085,21.0896211 22.2965221,27.7012682 22.2965221,34.5954889 L22.2965221,37.966061 L34.9460452,37.966061 C40.8269498,37.9640722 45.8022649,33.5914584 46.594727,27.7284782 L46.594727,27.7284782 L47.0673465,37.966061 L47.0673465,37.966061 C51.9165513,37.9697439 55.9622004,34.239517 56.3807317,29.3787985 L56.533638,27.7005067 L56.533638,27.7005067 C57.0094933,33.4846067 61.8022144,37.9423102 67.5706945,37.966061 L68.6827404,37.966061 L69.9754939,19.6027487 L48.1376908,8.6099335 Z" id="_Trazado_39" fill="#263238"></path>
                                <path d="M72.9780181,41.5184426 L58.5353208,41.5184426 C57.9386789,38.6988796 55.4649725,36.6821399 52.5997753,36.6793679 L51.6684368,36.6793679 C49.2307932,36.7046192 47.0431138,38.1903528 46.1082069,40.4555245 C45.17237,39.5021389 43.908565,38.9464614 42.5774608,38.9031045 C41.4551491,38.8110912 40.339291,39.1454053 39.4498315,39.8401508 C38.3944292,37.895541 36.3697557,36.6840134 34.167613,36.6793679 L33.2362745,36.6793679 C29.8890696,36.6793679 27.1756239,39.4094431 27.1756239,42.7771615 C27.1756239,46.1448799 29.8890696,48.8749551 33.2362745,48.8749551 L34.167613,48.8749551 C35.7749975,48.8749551 37.3165477,48.2325108 38.4531402,47.0889527 C39.5897327,45.9453945 40.2282637,44.3943969 40.2282637,42.7771615 C40.2215539,42.1186905 40.1040544,41.4661181 39.8807493,40.8471259 C40.5867503,40.1702897 41.5517456,39.8381365 42.5218585,39.9380511 C43.7882485,39.9457426 44.9774335,40.5517484 45.7328913,41.5743857 L45.7328913,41.5743857 C45.6486529,41.9791239 45.6067231,42.3916173 45.6077862,42.805133 C45.6154297,46.1696608 48.324403,48.8952362 51.6684368,48.9029266 L52.5997753,48.9029266 C55.9469802,48.9029266 58.660426,46.1728514 58.660426,42.805133 C58.660426,42.7212184 58.660426,42.6512896 58.660426,42.5813608 L70.9485341,42.5813608 C71.5620235,42.1166872 72.2478082,41.7575156 72.9780181,41.5184426 Z M34.1259113,47.8400084 L33.1945728,47.8400084 C30.4154715,47.8400084 28.1625647,45.5732946 28.1625647,42.7771615 C28.1625647,39.9810283 30.4154715,37.7143145 33.1945728,37.7143145 L34.1259113,37.7143145 C36.9050126,37.7143145 39.1579194,39.9810283 39.1579194,42.7771615 C39.1579194,45.5732946 36.9050126,47.8400084 34.1259113,47.8400084 L34.1259113,47.8400084 Z M52.5997753,47.8400084 L51.6684368,47.8400084 C48.8893355,47.8400084 46.6364287,45.5732946 46.6364287,42.7771615 C46.6364287,39.9810283 48.8893355,37.7143145 51.6684368,37.7143145 L52.5997753,37.7143145 C55.3788767,37.7143145 57.6317834,39.9810283 57.6317834,42.7771615 C57.6317834,45.5732946 55.3788767,47.8400084 52.5997753,47.8400084 L52.5997753,47.8400084 Z" id="_Trazado_compuesto_" fill="#455A64"></path>
                            </g>
                            <g id="_Grupo_31" transform="translate(2.780115, 126.160293)">
                                <path d="M102.961558,18.0835943 C99.1945023,22.5030961 64.971287,54.4465836 64.971287,54.4465836 L66.1528358,35.1602135 L86.0862602,10.9368683 L102.961558,18.0835943 Z" id="_Trazado_40" fill="#FFA8A7"></path>
                                <g id="_Grupo_32" fill="#27DEBF">
                                    <g id="_Grupo_33">
                                        <g id="_Grupo_34">
                                            <path d="M36.850424,69.2015658 L48.4435034,60.9219929 C59.5639633,53.0200356 72.7278077,40.6006762 72.7278077,26.32121 C72.4430465,15.9793628 64.8270526,7.3323358 54.6570604,5.80409253 C45.5104821,4.5733452 37.9763706,13.636121 36.8087223,22.3632384 C35.6688751,13.3284342 28.1069624,2.23772242 18.9603841,1.02096085 C14.4136273,0.235906327 9.75652758,1.54276095 6.26992151,4.58210203 C2.78331544,7.6214431 0.834384054,12.073192 0.959139666,16.7129893 C0.959139666,31.020427 14.1368846,46.9502135 25.1739411,57.8031673 L36.850424,69.2015658 Z" id="_Trazado_41"></path>
                                        </g>
                                    </g>
                                </g>
                                <path d="M68.3908284,40.7824911 C63.7341358,43.5796441 55.783007,43.6775445 50.4312856,43.9153025 C45.0795643,44.1530605 38.4628907,52.3906762 42.8137706,55.7192883 C49.6799383,60.2291849 58.6664137,59.7073389 64.971287,54.4325979 L68.3908284,40.7824911 Z" id="_Trazado_42" fill="#FFA8A7"></path>
                                <path d="M1.57076496,21.9436655 C0.291912072,22.9786121 -0.0834034492,26.3491815 0.695028744,29.9295374 C1.47346094,33.5098932 4.48988568,39.0902135 8.77126274,40.7824911 C10.7312438,41.565694 19.2522962,41.8174377 23.3529658,37.3839502 C27.6899451,32.6847331 27.3424308,24.6429181 21.1010727,26.0694662 C15.1464003,27.1954473 9.06772192,27.5059484 3.03032532,26.9925267 C2.42380807,25.3470624 1.9360228,23.6597323 1.57076496,21.9436655 Z" id="_Trazado_43" fill="#FFA8A7"></path>
                            </g>
                        </g>
                    </g>
                </g>
                <g id="Character_3-2" transform="translate(281.000000, 1.000000)">
                    <g id="Character_2-2">
                        <g id="_Grupo_35">
                            <g id="_Grupo_36" transform="translate(122.860267, 362.890785)">
                                <g id="_Grupo_37" transform="translate(21.999321, 0.000000)" fill="#FFA8A7">
                                    <rect id="_Rectángulo_" x="0.133552675" y="0" width="13.7338033" height="20.1061111"></rect>
                                </g>
                                <g id="_Grupo_38" transform="translate(0.000000, 11.208982)" fill="#263238">
                                    <path d="M22.1328737,2.07366163 L22.1328737,0.112089818 C20.8235658,0.686550134 17.7592284,12.3999361 12.313065,17.387933 C7.99513498,21.3671215 2.08932099,25.9487928 0.585009877,30.3763406 C-0.919301235,34.8038884 8.80300576,37.5360777 12.8562885,36.8074939 C17.5502963,35.9668203 25.6986481,32.6041257 27.7461827,29.5636894 C29.7937173,26.5232531 30.7408761,21.9135594 32.4123329,19.6577518 C34.0837897,17.4019442 37.9002827,14.8659121 38.7917263,12.2598238 C39.2931634,10.8587011 38.7081535,7.66414129 38.0117132,5.00200812 C37.3709881,2.56405458 36.6884765,-0.126101045 35.8527481,0.112089818 L35.8527481,1.61129113 C34.8638029,2.71817808 32.1058992,3.82506503 28.9997753,3.95116608 C27.0358136,4.02122221 22.1189449,3.62890785 22.1328737,2.07366163 Z" id="_Trazado_44"></path>
                                </g>
                            </g>
                            <g id="_Grupo_39" transform="translate(51.823354, 347.187636)">
                                <g id="_Grupo_40" transform="translate(32.036255, 0.000000)" fill="#FFA8A7">
                                    <polygon id="_Trazado_45" points="14.3188132 20.4249326 0.598938683 20.9013143 1.76895844 0.5710236 15.4888329 0.0946418745"></polygon>
                                </g>
                                <g id="_Grupo_41" transform="translate(0.000000, 15.703149)" fill="#263238">
                                    <path d="M32.8859123,0.938752224 C32.1616144,0.938752224 31.6183909,1.97558304 30.100151,3.74099767 C27.7570918,6.13025188 25.0306932,8.1054429 22.035372,9.58367942 C16.8956424,12.1757565 6.89475926,16.154945 2.38182593,18.2005842 C-0.403935391,19.4896171 -0.320362551,22.9223677 2.60468683,24.8699283 C5.52973621,26.8174889 12.5777123,28.2326229 21.0464267,26.271051 C25.6568617,25.2342202 31.6601774,20.9467847 35.4627416,21.1849756 C39.2653058,21.4231664 46.3689971,21.3531103 49.1686872,19.4055497 C51.9683774,17.4579891 50.8540728,13.3106659 50.0601309,9.73780292 C49.1965449,5.84268175 47.9568811,-0.25220209 46.6754309,0.0140112272 L46.591858,1.63931359 C44.93433,4.16133449 36.4516868,4.66573867 32.8301971,2.81625667 L32.8859123,0.938752224 Z" id="_Trazado_46"></path>
                                </g>
                            </g>
                            <g id="_Grupo_42" transform="translate(0.000000, 70.056136)">
                                <path d="M100.351316,35.3223038 C94.1529971,41.3050979 57.6316663,60.5425128 55.6259181,60.1922322 C52.6172959,59.7718953 41.6971115,48.9832504 32.3648111,39.0072566 C30.9022864,31.4131714 28.7572502,21.8435032 26.3614955,16.4912144 C25.1308154,13.3601374 23.299144,10.503533 20.9710473,8.08447811 L21.5978436,5.5064123 L56.9491547,39.1333576 C56.9491547,39.1333576 95.7408811,9.70978047 101.521336,8.0284332 C107.301791,6.34708593 106.549635,29.3395098 100.351316,35.3223038 Z" id="_Trazado_47" fill="#F28F8F"></path>
                                <path d="M7.82225391,1.0788645 C3.08645967,2.26981881 -0.535030041,5.49240107 0.258911934,10.6485327 C0.774277778,14.0392497 6.34580041,16.5192369 9.34049383,13.9411711 C11.7501774,11.8534982 18.9652992,6.85149011 22.2664263,9.41554469 C23.0138288,10.9380949 23.2718263,12.6568306 23.0046531,14.3334854 C22.7817922,17.0236411 24.1468152,18.9431792 24.954686,18.8170782 C25.7625568,18.6909771 27.0161494,14.4035416 27.1415086,12.7221943 C27.3225831,10.1161061 25.8461296,2.46597599 14.2712914,0.924740997 L14.2712914,0.924740997 C12.1306326,0.574525898 9.94396379,0.626784402 7.82225391,1.0788645 Z" id="_Trazado_48" fill="#FFA8A7"></path>
                            </g>
                            <g id="_Grupo_43" transform="translate(157.395514, 125.810246)" fill="#FFA8A7">
                                <path d="M28.8268942,31.1295102 C28.5204605,26.926142 21.4585556,7.89889544 17.9484963,0.0385969656 L0.161410288,8.4453333 L6.97259671,24.1379078 L25.4004078,38.457382 C30.1779885,37.7007757 28.9661823,32.8949248 28.8268942,31.1295102 Z" id="_Trazado_49"></path>
                            </g>
                            <g id="_Grupo_44" transform="translate(79.680967, 168.134727)">
                                <path d="M71.7194251,0.210168408 C71.7194251,13.3947332 73.4187395,98.6950846 73.4187395,98.6950846 C73.7391021,102.478116 78.5445403,114.962119 78.9902621,132.602254 C79.5474144,152.41413 80.1324243,197.0539 80.1324243,197.0539 C80.1324243,197.0539 73.6973156,203.471042 64.6157337,197.0539 C64.6157337,197.0539 49.6422667,131.845648 45.0318317,107.073798 C42.8867955,89.9520788 37.5242049,40.8427274 37.5242049,40.8427274 L26.3811597,96.747524 C27.3614129,103.318611 27.8271383,109.956989 27.7740403,116.601433 C27.7740403,125.708731 19.876407,184.780065 19.876407,184.780065 C19.876407,184.780065 12.1180617,189.515859 4.68007901,185.032267 C4.68007901,185.032267 0.208932099,105.070193 0.0835728395,96.7615352 C-0.0696440329,86.5893842 7.42405391,0.196157181 7.42405391,0.196157181 L71.7194251,0.210168408 Z" id="_Trazado_50" fill="#37474F"></path>
                                <path d="M37.5659914,40.8707498 L35.9641786,28.9331842 C35.9641786,28.9331842 25.6150753,24.1553557 22.035372,20.7646387 C22.035372,20.7646387 28.5401247,29.4095659 32.6351938,31.819497 L27.6208235,90.9608871 L37.5659914,40.8707498 Z" id="_Trazado_51" fill="#263238"></path>
                            </g>
                            <g id="_Grupo_45" transform="translate(66.858272, 75.660627)">
                                <path d="M39.8585091,0.672538907 C32.7130313,0.672538907 23.1439412,7.00561361 15.0652333,13.2826434 C6.98652551,19.5596732 0.272840741,24.729816 0.272840741,24.729816 C1.6657214,32.3239012 6.47115967,39.2734699 11.6526757,44.9620282 L34.6491354,32.4219798 C34.6491354,32.4219798 44.6778761,11.8815207 39.8585091,0.672538907 Z" id="_Trazado_52" fill="#E6E6E6"></path>
                                <path d="M63.8717716,1.35908904 C76.1848366,4.34348044 91.7990288,9.34548856 97.3009074,20.7506275 C102.802786,32.1557665 111.229714,50.6505864 111.229714,50.6505864 C105.503389,56.2782344 98.5135914,60.4354127 90.85187,62.770298 L84.5978358,51.8135183 L84.5978358,92.6842681 C74.9730305,103.2067 41.4185354,108.096618 20.3999663,92.6842681 L20.3999663,25.4303774 C20.3999663,14.6697549 26.3336379,1.7514034 42.6860568,0.784628725 L63.8717716,1.35908904 Z" id="_Trazado_53" fill="#F5F5F5"></path>
                                <path d="M84.5421206,51.8135183 C84.5421206,51.8135183 78.3716593,41.0528958 77.0344938,38.4608187 L84.5421206,64.4516452 L84.5421206,51.8135183 Z" id="_Trazado_54" fill="#E6E6E6"></path>
                            </g>
                            <g id="_Grupo_46" transform="translate(80.787078, 0.000000)">
                                <g id="_Grupo_47">
                                    <g id="_Grupo_48" transform="translate(51.823354, 21.016841)" fill="#263238">
                                        <path d="M2.7439749,0.952763451 C4.98423262,0.689130085 7.22007562,1.48018338 8.80300576,3.09648122 C11.3937638,5.77262562 10.8644691,10.7185888 8.80300576,22.0957053 L0.780013169,23.0204463 L2.7439749,0.952763451 Z" id="_Trazado_55"></path>
                                    </g>
                                    <g id="_Grupo_49" transform="translate(0.000000, 16.813473)" fill="#263238">
                                        <path d="M7.72475226,1.86349322 C5.99612894,1.87854651 4.28344427,1.53016481 2.69645309,0.840673633 C0.231054321,-0.560449089 -0.409670782,2.24179636 0.941423457,4.69376112 C2.76359854,8.25597968 6.28944529,10.6151516 10.2597951,10.9287572 C10.3294391,10.5784766 12.571977,4.62370498 12.571977,4.62370498 L7.72475226,1.86349322 Z" id="_Trazado_56"></path>
                                    </g>
                                    <g id="_Grupo_50" transform="translate(8.357284, 12.610105)" fill="#FFA8A7">
                                        <path d="M42.4492671,31.4972388 C43.6332156,32.2118114 45.33253,29.8999589 46.8089835,28.3587239 C48.285437,26.8174889 53.0769465,24.6877824 55.4727012,29.7598466 C57.868456,34.8319109 52.3805062,41.809502 49.1211654,44.0793208 C45.262886,46.7834877 42.4492671,44.6677924 42.4492671,44.6677924 L41.5856811,64.4516452 C41.5856811,64.4516452 37.3234663,74.9460544 25.7764856,76.5293231 C14.2295049,78.1125918 16.5974021,68.4728674 20.3581798,63.7230614 L20.3581798,56.5353018 C20.3581798,56.5353018 14.3966506,57.7122449 11.5691029,56.9836611 C7.42500201,55.6573157 4.21510037,52.333762 3.01681564,48.1285655 C-0.162257552,37.5877969 -0.825575039,26.4414866 1.08071152,15.5944959 C4.00576091,-2.35388617 24.1328864,-2.62009949 35.4152198,4.48359271 C46.6975531,11.5872849 42.4492671,31.4972388 42.4492671,31.4972388 Z" id="_Trazado_57"></path>
                                    </g>
                                    <g id="_Grupo_51" transform="translate(3.072531, 0.000000)" fill="#263238">
                                        <path d="M47.7340202,46.0689151 C48.3329588,46.0689151 50.6033543,42.2718725 52.0937366,40.9127835 C54.1552,39.0212678 51.4947979,21.9696043 51.4947979,21.9696043 C51.4947979,21.9696043 53.5841189,15.5104285 49.5169074,11.222993 C45.4496959,6.93555748 37.5659914,7.65013006 31.7994654,7.43996166 C24.7233336,7.47303965 17.7160034,6.0422965 11.2126893,3.23659349 C3.02255103,-0.350280681 2.40968354,-0.770617497 1.46252469,2.84427913 C0.515365844,6.45917575 0.0696440329,14.739811 4.94472634,20.288257 L8.99800905,21.7874583 C8.99800905,21.7874583 11.1987605,23.7490301 18.8317465,24.6877824 C26.4647325,25.6265346 38.3320757,24.5056364 39.9756749,24.2814568 C42.1903551,23.9732098 42.6639346,26.1309388 43.8478831,32.0296654 C44.8368284,37.2558532 45.7143432,46.0268814 47.7340202,46.0689151 Z" id="_Trazado_58"></path>
                                    </g>
                                    <g id="_Grupo_52" transform="translate(53.216235, 16.813473)" fill="#263238">
                                        <path d="M1.33716543,6.4871982 L8.55228724,2.59207704 C8.08593187,1.60552353 7.23939229,0.853252807 6.20861407,0.509390327 C5.17783584,0.165527846 4.05217888,0.259883638 3.09219506,0.770617497 C1.08779025,1.90248088 0.316269246,4.41552227 1.33716543,6.4871982 Z" id="_Trazado_59"></path>
                                    </g>
                                    <g id="_Grupo_53" transform="translate(28.144383, 59.814462)" fill="#F28F8F">
                                        <path d="M0.57108107,9.38698918 C0.57108107,9.38698918 11.2684045,7.21524896 15.0013247,5.18362101 C17.2026565,4.03675483 19.0049972,2.24329645 20.1689119,0.0415006223 C19.6082608,2.24065824 18.6135087,4.3038793 17.2438626,6.10836201 C14.4581012,9.62518004 0.52929465,12.2172571 0.52929465,12.2172571 L0.57108107,9.38698918 Z" id="_Trazado_60"></path>
                                    </g>
                                </g>
                                <g id="_Grupo_54" transform="translate(10.036934, 30.533901)">
                                    <g id="_Grupo_55" transform="translate(20.893210, 8.406736)" fill="#263238">
                                        <path d="M0.417864198,2.36446068 C0.406674554,2.94418881 0.62493983,3.5046334 1.02462265,3.92244784 C1.42430548,4.34026228 1.97264962,4.58120435 2.5489716,4.59224581 C3.45944335,4.63234019 4.30244455,4.11076461 4.67753644,3.27527562 C5.05262834,2.43978664 4.88422267,1.4587514 4.25231478,0.798176988 C3.62040688,0.13760258 2.65233838,-0.0693925122 1.80795696,0.275517619 C0.96357554,0.62042775 0.413040342,1.44773706 0.417864198,2.36446068 Z" id="_Trazado_61"></path>
                                    </g>
                                    <g id="_Grupo_56" transform="translate(23.678971, 0.290799)" fill="#263238">
                                        <path d="M0.292504938,1.61129113 L4.8750823,4.14732326 C5.53290128,2.83036288 5.06413687,1.22590817 3.8025642,0.476381726 C3.19055404,0.142093868 2.46922203,0.0742514285 1.80621498,0.288621862 C1.14320794,0.502992296 0.596265798,0.980906523 0.292504938,1.61129113 Z" id="_Trazado_62"></path>
                                    </g>
                                    <g id="_Grupo_57" transform="translate(16.427798, 25.220209)" fill="#F28F8F">
                                        <path d="M5.03649259,0.220742919 L0.147481481,2.07022491 C0.362430979,2.73548473 0.836895689,3.28432315 1.46200101,3.59079916 C2.08710632,3.89727518 2.80918304,3.93507591 3.46253745,3.69552727 C4.81191456,3.13172266 5.49894408,1.61498348 5.03649259,0.220742919 Z" id="_Trazado_63"></path>
                                    </g>
                                    <g id="_Grupo_58" fill="#263238">
                                        <path d="M1.44859588,4.62026827 L5.62723786,1.36966355 C5.22797242,0.798485868 4.61440412,0.41580704 3.92827545,0.310030996 C3.24214677,0.204254951 2.5428093,0.384531541 1.99181934,0.809214463 C0.834552392,1.73356588 0.596157546,3.40605548 1.44859588,4.62026827 Z" id="_Trazado_64"></path>
                                    </g>
                                    <g id="_Grupo_59" transform="translate(2.785761, 7.296413)" fill="#263238">
                                        <path d="M0.696440329,2.91433526 C0.749700325,4.09175646 1.732355,5.0083333 2.90353499,4.97301559 C4.07471499,4.93769789 5.00102258,3.96355504 4.98407112,2.78503893 C4.96711966,1.60652283 4.01318206,0.65974594 2.84147654,0.65852768 C1.63472991,0.696615277 0.680659789,1.69995433 0.696440329,2.91433526 Z" id="_Trazado_65"></path>
                                    </g>
                                    <g id="_Grupo_60" transform="translate(6.964403, 7.296413)" fill="#F28F8F">
                                        <polygon id="_Trazado_66" points="7.43798272 0.868696088 6.72761358 13.8430925 0 11.53124"></polygon>
                                    </g>
                                </g>
                            </g>
                            <g id="_Grupo_61" transform="translate(51.823354, 120.496554)" fill="#27DEBF">
                                <g id="_Grupo_62">
                                    <g id="_Grupo_63">
                                        <path d="M29.0833481,58.1886267 L38.2902893,53.2566747 C47.0793663,48.5489023 57.5677576,40.5625028 57.5677576,29.22742 C57.5677576,21.2830542 51.1744354,12.8623066 43.2768021,10.4103418 C36.0198938,8.15453424 30.030507,14.2774405 29.1112058,21.0448633 C28.2058333,13.7029802 22.2164465,3.85308749 14.9456095,1.5972799 C7.06190494,-0.868696088 0.668582716,3.58687417 0.668582716,11.5172288 C0.668582716,22.8663228 11.1151877,37.367943 19.8903358,47.5260827 L29.0833481,58.1886267 Z" id="_Trazado_67"></path>
                                    </g>
                                </g>
                            </g>
                            <g id="_Grupo_64" transform="translate(82.466728, 144.315640)" fill="#FFA8A7">
                                <path d="M100.329194,19.9239651 L81.9013827,5.60449089 C81.9013827,5.60449089 44.7532556,11.6853635 40.3935391,12.021633 C36.0338226,12.3579024 32.189472,9.05125279 30.531944,4.74980603 C28.874416,0.448359271 26.2697292,0.91072977 26.2697292,0.91072977 C26.9652924,3.31765152 27.108176,5.85207518 26.6875934,8.32266897 C25.1832823,9.94797133 16.5892086,11.5732737 10.7948251,9.59769065 C5.00044156,7.62210761 -3.39862881,10.4944092 1.79681605,18.4247638 C6.99226091,26.3551184 17.1185033,27.2938706 24.0829066,27.2938706 C27.0170634,27.2755281 29.9474434,27.0790135 32.8580547,26.7053991 C35.1284502,26.4111633 37.3988457,26.1729725 39.68317,26.018849 C54.1134136,24.9820181 93.7965835,21.9976267 100.329194,19.9239651 Z" id="_Trazado_68"></path>
                            </g>
                        </g>
                    </g>
                </g>
                <g id="Character_1" transform="translate(74.000000, 8.000000)">
                    <g id="Character_1-2">
                        <g id="Character2">
                            <path d="M59.506015,70.3320708 C72.2323308,68.0109727 72.7917293,69.7587875 112.844662,92.1587831 C112.844662,92.1587831 160.01594,73.030697 165.609925,69.7867526 C171.20391,66.5428082 179.217293,64.4034827 185.188872,68.0529202 C183.739907,68.0931519 182.303901,68.3379363 180.923459,68.7800112 C180.238195,69.1155917 177.944662,70.2901233 178.238346,71.3388122 C178.350226,71.7862528 178.895639,71.926078 179.357143,71.954043 C180.333489,72.0265518 181.315038,71.979596 182.28,71.8142178 C183.398797,71.6184626 184.727368,71.3388122 185.496541,72.1637808 C186.063402,72.932517 186.016798,73.992557 185.384662,74.7085993 C184.760334,75.3949116 183.984633,75.9263172 183.119098,76.2606589 L178.923609,78.204229 C177.902216,78.6316949 176.931332,79.1709808 176.028722,79.8122187 C175.203609,80.4274496 174.504361,81.2104706 173.651278,81.811719 C170.994135,83.643429 167.875489,82.6926177 165.092481,83.8811318 C164.616992,84.076887 164.141504,84.3285724 163.693985,84.5383102 C161.638195,85.5170865 159.680301,86.6636531 157.722406,87.8242022 C152.016541,91.2079718 146.436541,94.8154617 140.842556,98.3670215 C135.248571,101.918581 129.948271,105.358281 124.326316,108.532313 C122.281857,109.868314 120.066158,110.92188 117.739398,111.664397 C110.746917,113.356282 70.5681203,95.8921156 70.5681203,95.8921156 L59.506015,70.3320708 Z" id="_Trazado_69" fill="#9E6767"></path>
                            <g id="_Grupo_65" transform="translate(0.000000, 1.398252)">
                                <g id="_Grupo_66">
                                    <g id="_Grupo_67">
                                        <g id="_Grupo_68" transform="translate(16.781955, 0.000000)" fill="#27DEBF">
                                            <path d="M26.9769925,0.755056029 L36.5147368,0.755056029 C51.121535,0.793608077 62.9400939,12.6476346 62.9323346,27.2519296 L62.9323346,31.6704056 C62.9323346,46.184298 51.1849488,57.9609497 36.6685714,57.9995485 L26.8790977,57.9995485 C19.8852832,58.0143432 13.1728276,55.2469531 8.22219842,50.3076812 C3.27156929,45.3684094 0.489469987,38.663014 0.489469987,31.6704056 L0.489469987,27.2519296 C0.485763362,20.2258079 3.2747666,13.4861882 8.24254216,8.51665815 C13.2103177,3.54712809 19.949642,0.755056029 26.9769925,0.755056029 L26.9769925,0.755056029 Z" id="_Rectángulo_2"></path>
                                        </g>
                                        <g id="_Grupo_69" transform="translate(12.295113, 367.740251)" fill="#263238">
                                            <path d="M17.548797,2.85243389 L17.548797,0.838951143 C18.3459398,3.20199686 22.023985,13.3393232 27.59,18.4289601 C32.0232331,22.4699081 38.0787218,27.1400695 39.6170677,31.6424406 C41.1554135,36.1448117 31.2260902,37.9066091 27.0306015,37.2354482 C22.2197744,36.3825146 15.9964662,33.6419408 12.5981203,29.4891327 C10.2206767,26.5528037 8.71030075,23.085139 7.00413534,20.7920058 C5.29796992,18.4988727 1.41015038,15.9121067 0.459172932,13.2554281 C-0.0442857143,11.8571762 0.557067669,8.5852667 1.27030075,5.872658 C1.91360902,3.39775213 2.66879699,0.657178395 3.46593985,0.894881219 L3.46593985,2.4189758 C4.48684211,3.55155984 7.31180451,4.68414388 10.4584211,4.79600403 C12.5841353,4.86591663 17.562782,4.41847602 17.548797,2.85243389 Z" id="_Trazado_70"></path>
                                        </g>
                                        <g id="_Grupo_70" transform="translate(15.383459, 356.554236)" fill="#9E6767">
                                            <path d="M28.5433083,33.1665352 C27.144812,31.9360735 25.7463158,30.7475594 24.5296241,29.6009928 C20.6418045,26.049433 17.6769925,20.0229673 15.9708271,15.9121067 C14.9922805,13.5688098 14.4884193,11.0546964 14.4884211,8.5153541 L14.4884211,0.503370686 L0.40556391,0.503370686 L0.40556391,13.549061 L0.40556391,13.549061 L0.40556391,13.8846414 L0.475488722,13.8846414 C1.16075188,16.8069879 7.60781955,24.567286 11.2718797,29.6289579 C13.7192481,33.02671 18.3902256,37.3473084 23.9702256,38.0883819 C29.2565414,38.8434379 31.9556391,37.1795182 28.5433083,33.1665352 Z" id="_Trazado_71"></path>
                                        </g>
                                        <g id="_Grupo_71" transform="translate(67.127820, 353.757732)" fill="#263238">
                                            <path d="M17.5371429,2.97827656 L17.5371429,0.964793814 C18.3203008,3.32783953 21.9983459,13.549061 27.5783459,18.5548028 C32.0115789,22.5957508 38.0530827,27.2659121 39.5914286,31.7822658 C41.1297744,36.2986195 31.2004511,38.0324518 27.0049624,37.3053608 C22.1801504,36.4524272 15.9568421,33.7258359 12.5724812,29.5590453 C10.1950376,26.6366988 8.67067669,23.1690341 6.97849624,20.8619184 C5.28631579,18.5548028 1.38451128,15.9960018 0.447518797,13.3253407 C-0.069924812,11.9270887 0.531428571,8.65517929 1.24466165,5.95655312 C1.90195489,3.46766472 2.64315789,0.74107351 3.45428571,0.964793814 L3.45428571,2.50287091 C4.47518797,3.63545495 7.30015038,4.75405648 10.4467669,4.87989915 C12.5584962,4.94981174 17.5511278,4.54431869 17.5371429,2.97827656 Z" id="_Trazado_72"></path>
                                        </g>
                                        <g id="_Grupo_72" transform="translate(69.924812, 342.571717)" fill="#9E6767">
                                            <path d="M28.7950376,33.3063604 C27.3965414,32.0758987 25.9980451,30.8734021 24.7813534,29.7268355 C20.8795489,26.1752757 17.9147368,20.14881 16.2085714,16.0379494 C15.240797,13.6918627 14.7419349,11.178987 14.7401504,8.64119677 L14.7401504,0.671160914 L0.75518797,0.671160914 L0.75518797,13.7028687 L0.75518797,13.7028687 L0.75518797,14.0524316 L0.75518797,14.0524316 C1.42646617,16.9747781 7.87353383,24.7490587 11.537594,29.8107306 C13.9989474,33.2084827 18.6699248,37.5290811 24.2499248,38.2701546 C29.5222556,38.9692806 32.2353383,37.3053608 28.7950376,33.3063604 Z" id="_Trazado_73"></path>
                                        </g>
                                        <g id="_Grupo_73" transform="translate(11.187970, 148.214702)" fill="#37474F">
                                            <path d="M7.39804511,4.01298297 C-3.4962406,27.7832654 7.78962406,111.608467 7.78962406,111.608467 C7.46796992,115.467642 3.0487218,123.074133 1.4124812,140.062893 C-0.531428571,160.141791 4.46120301,210.548772 4.46120301,210.548772 C8.80860991,213.072512 14.1233738,213.281924 18.6559398,211.108073 C18.6559398,211.108073 32.0535338,135.182994 34.5708271,115.229939 C36.7664662,97.8077208 40.9899248,59.4956186 40.9899248,59.4956186 L52.9750376,115.132062 C51.2235997,120.746372 49.9556701,126.500176 49.1851128,132.33056 C48.0383459,144.061894 59.4221053,198.733543 59.4221053,198.733543 C59.4221053,198.733543 64.2748872,200.523306 73.4070677,199.167001 C73.4070677,199.167001 77.4347368,126.61171 78.483609,112.475383 C80.2736842,88.7051009 73.9664662,14.5977499 69.6031579,0.615230838 L7.39804511,4.01298297 Z" id="_Trazado_74"></path>
                                        </g>
                                        <g id="_Grupo_74" transform="translate(51.744361, 175.890184)" fill="#263238">
                                            <path d="M0.433533835,31.8201367 L3.97172932,9.72775661 C3.97172932,9.72775661 18.9356391,6.62363738 25.7183459,0.247608696 C25.7183459,0.247608696 18.6,9.09854325 8.02736842,12.0069072 L4.0556391,29.0096504 L11.0481203,80.5352331 L0.433533835,31.8201367 Z" id="_Trazado_75"></path>
                                        </g>
                                        <g id="_Grupo_75" transform="translate(16.781955, 68.514343)" fill="#F5F5F5">
                                            <path d="M21.0193985,1.06267145 L21.0193985,1.06267145 C7.03443609,2.01348274 6.08345865,8.76703944 2.58721805,16.135827 C0.0204829584,21.81625 -0.220464618,28.2755282 1.91593985,34.131329 L11.7054135,62.2921224 C11.7054135,62.2921224 7.16030075,73.3103474 1.91593985,83.7133416 C26.3476692,97.3462976 56.8488722,90.1732654 64.1909774,80.2316943 C64.4986466,78.1203339 62.6106767,61.6209615 61.393985,50.8684043 C65.7013534,40.0738996 66.8341353,33.2364478 65.0160902,26.1053631 C61.6457143,12.8639175 48.5697744,-0.0279650381 42.78,0.433458091 L21.0193985,1.06267145 Z" id="_Trazado_76"></path>
                                        </g>
                                        <path d="M29.396391,150.046412 C29.396391,150.046412 32.2772932,138.594729 33.3121805,136.063893 C34.0022825,133.960897 36.0421093,132.603176 38.2488722,132.778001 L38.2488722,132.778001 C35.087344,130.680795 32.8927856,127.409662 32.1514286,123.689364 L29.1866165,108.797981 C29.1866165,108.797981 34.6966917,91.3058494 34.1372932,85.3213312 L20.1523308,86.1323173 L18.3482707,87.3907441 C16.8612924,92.3701192 16.9984415,97.6935125 18.7398496,102.589742 L28.5293233,130.750536 C28.5293233,130.750536 23.9842105,141.768761 18.7398496,152.171755 C36.7384962,162.211203 58.037594,160.966759 70.9317293,155.625437 L29.396391,150.046412 Z" id="_Trazado_77" fill="#E6E6E6"></path>
                                        <g id="_Grupo_76" transform="translate(0.000000, 69.912595)" fill="#9E6767">
                                            <path d="M0.825112782,71.9820081 C0.909022556,70.8773891 5.73383459,41.2204662 9.56571429,21.253429 C12.1389474,7.77428059 17.5091729,2.83845137 28.0258647,1.21647916 L31.7598496,0.629213357 C36.7524812,17.0307082 33.3121805,24.3994957 26.7252632,35.6833886 L20.5159398,65.6339444 L5.48210526,80.8329426 C0.307669173,79.7982362 0.713233083,73.5340677 0.825112782,71.9820081 Z" id="_Trazado_78"></path>
                                        </g>
                                        <g id="_Grupo_77" transform="translate(26.571429, 12.584267)" fill="#9E6767">
                                            <path d="M42.9478195,0.810986105 C46.2482707,2.76853877 50.3318797,11.0601726 49.9403008,28.4684088 C49.5906767,43.2199664 44.8078195,46.8694039 42.416391,47.9180928 C40.0249624,48.9667817 35.4239098,48.3235858 30.878797,47.5825123 L30.878797,56.4334469 C30.878797,56.4334469 37.1021053,63.6624092 36.7105263,67.7173398 C36.3189474,71.7722703 27.7181955,72.7370641 21.9004511,68.7660287 C18.1258274,66.0524979 14.8871736,62.6626987 12.3487218,58.7685276 L12.3487218,37.3752734 C12.3487218,37.3752734 9.3,41.4302039 4.33533835,38.1303294 C-0.629323308,34.830455 -0.825112782,26.6506813 2.05578947,23.7143523 C4.93669173,20.7780233 11.1879699,21.7148521 12.3487218,25.7697826 C12.3487218,25.7697826 19.5230075,26.0354505 29.1306767,20.7780233 C36.6508587,16.6987434 41.7809895,9.28523452 42.9478195,0.810986105 L42.9478195,0.810986105 Z" id="_Trazado_79"></path>
                                        </g>
                                        <g id="_Grupo_78" transform="translate(55.939850, 34.956298)" fill="#263238">
                                            <path d="M4.08360902,2.39101076 C4.09749854,3.40853295 3.29083575,4.24825434 2.27340322,4.27540229 C1.2559707,4.30255023 0.405660152,3.50704151 0.365248915,2.49022699 C0.324837679,1.47341247 1.10933518,0.61295431 2.12571429,0.559300762 C2.62887335,0.54044473 3.11872028,0.723321997 3.48637871,1.06728514 C3.85403714,1.41124828 4.06904345,1.88779703 4.08360902,2.39101076 Z" id="_Trazado_80"></path>
                                        </g>
                                        <g id="_Grupo_79" transform="translate(60.135338, 48.938817)" fill="#874C4C">
                                            <path d="M0.377593985,0.922846257 L4.68496241,2.32109816 C4.52955418,2.90332263 4.14301772,3.39680965 3.6149164,3.68721463 C3.08681509,3.9776196 2.46298418,4.03973754 1.88796992,3.85917526 C0.670632582,3.45275718 0.000160360937,2.14928897 0.377593985,0.922846257 L0.377593985,0.922846257 Z" id="_Trazado_81"></path>
                                        </g>
                                        <g id="_Grupo_80" transform="translate(71.323308, 27.965038)" fill="#263238">
                                            <path d="M3.91578947,3.69138503 L0.153834586,1.09063649 C0.47163648,0.579437057 0.985432982,0.221126754 1.57502833,0.0995274372 C2.16462368,-0.0220718794 2.77829465,0.103707292 3.2724812,0.44744061 C4.31445484,1.18640287 4.59693367,2.61082979 3.91578947,3.69138503 Z" id="_Trazado_82"></path>
                                        </g>
                                        <g id="_Grupo_81" transform="translate(69.924812, 33.558046)" fill="#263238">
                                            <path d="M4.44721805,2.44694083 C4.46110756,3.46446303 3.65444477,4.30418442 2.63701225,4.33133236 C1.61957973,4.3584803 0.769269174,3.56297158 0.728857938,2.54615706 C0.688446701,1.52934254 1.4729442,0.668884386 2.48932331,0.615230838 C2.99248237,0.596374807 3.48232931,0.779252073 3.84998774,1.12321521 C4.21764617,1.46717835 4.43265248,1.94372711 4.44721805,2.44694083 Z" id="_Trazado_83"></path>
                                        </g>
                                        <g id="_Grupo_82" transform="translate(65.437970, 34.956298)" fill="#874C4C">
                                            <polygon id="_Trazado_84" points="0.179473684 0 0.473157895 11.1580502 6.34684211 9.34032273"></polygon>
                                        </g>
                                        <g id="_Grupo_83" transform="translate(40.556391, 52.844016)" fill="#874C4C">
                                            <path d="M16.8798496,7.32276333 C12.1389474,6.69354998 2.36345865,3.89704617 0.853082707,0.0378709099 C1.46079271,1.98856203 2.65167938,3.70626231 4.26541353,4.95971762 C7.18827068,7.46258853 16.8518797,10.2730749 16.8518797,10.2730749 L16.8798496,7.32276333 Z" id="_Trazado_85"></path>
                                        </g>
                                    </g>
                                </g>
                            </g>
                            <g id="_Grupo_84" transform="translate(75.518797, 114.367100)" fill="#27DEBF">
                                <g id="_Grupo_85">
                                    <g id="_Grupo_86">
                                        <path d="M27.8160902,55.0171358 L18.9216541,50.2770619 C10.432782,45.7607082 0.307669173,38.0843052 0.307669173,27.2059054 C0.307669173,19.5854325 6.47503759,11.489554 14.0968421,9.14049081 C21.0893233,6.97320036 26.9070677,12.8458584 27.7881203,19.3477297 C28.6691729,12.3564702 34.4589474,2.83437472 41.4654135,0.667084267 C49.087218,-1.68197893 55.2685714,2.58268938 55.2685714,10.2031623 C55.2685714,21.0955446 45.1714286,35.0081511 36.6965414,44.7679494 L27.8160902,55.0171358 Z" id="_Trazado_86"></path>
                                    </g>
                                </g>
                            </g>
                            <g id="_Grupo_87" transform="translate(5.302632, 136.739130)" fill="#9E6767">
                                <path d="M0.179473684,15.3906768 L15.2133083,0.191678619 C15.2133083,0.191678619 53.1545113,8.58119005 57.4339098,8.9866831 C61.7133083,9.39217615 65.1116541,5.4630883 68.1184211,2.07931869 C68.8572939,1.19000517 69.9548842,0.677202092 71.111203,0.681066786 C70.6880009,2.03647911 70.5592639,3.46664032 70.733609,4.8758225 C71.3769173,6.66558494 80.8167669,8.58119005 86.5226316,6.65160242 C92.2284962,4.72201479 100.507594,7.5185186 95.3471429,15.2788167 C90.1866917,23.0391147 80.3133083,23.9200134 73.4047368,23.933996 C70.5196772,23.9139761 67.6383572,23.7225442 64.776015,23.3607127 C62.552406,23.0670798 60.328797,22.8433595 58.077218,22.6755693 C43.966391,21.6268803 6.59857143,17.4041596 0.179473684,15.3906768 Z" id="_Trazado_87"></path>
                            </g>
                            <path d="M21.1592481,5.49512999 C27.2566917,8.05393097 25.8861654,13.2833931 23.3409023,19.3657889 C20.7956391,25.4481847 18.0266165,30.118346 11.9291729,27.559545 C5.83518836,25.0111754 2.9612605,18.0060262 5.51007535,11.9131063 C8.05889021,5.82018639 15.0652635,2.94676053 21.1592481,5.49512999 Z" id="_Trazado_88" fill="#27DEBF"></path>
                            <path d="M26.5294737,10.9483124 L28.6691729,0.769038548 C27.3338221,0.417579824 25.9127663,0.628321626 24.7369411,1.35218639 C23.5611159,2.07605116 22.7331516,3.2498573 22.4458647,4.60024877 C21.893512,7.46699069 23.6913852,10.2618257 26.5294737,10.9483124 L26.5294737,10.9483124 Z" id="_Trazado_89" fill="#27DEBF"></path>
                        </g>
                    </g>
                </g>
            </g>
        </g>
    </g>
</svg>