<?xml version="1.0" encoding="UTF-8"?>
<svg width="477px" height="483px" viewBox="0 0 477 483" version="1.1" xmlns="http://www.w3.org/2000/svg" xmlns:xlink="http://www.w3.org/1999/xlink">
    <!-- Generator: Sketch 57.1 (83088) - https://sketch.com -->
    <title>ilustracion</title>
    <desc>Created with Sketch.</desc>
    <g id="Page-1" stroke="none" stroke-width="1" fill="none" fill-rule="evenodd">
        <g id="Desktop-HD" transform="translate(-800.000000, -112.000000)">
            <g id="ilustracion" transform="translate(800.000000, 112.000000)">
                <g id="CLOUD" transform="translate(364.000000, 84.000000)" fill="#D9EEFF" fill-rule="nonzero">
                    <path d="M6.4454,36.5733333 L11.0014,33.08 L11.0014,23.0666667 C11.0014,15.1466667 17.3664,5.93333333 24.2674,1.97333333 L24.2674,1.97333333 C31.1684,-2.02666667 36.7562,1.21333333 36.7562,9.14666667 L36.7562,10.6 C38.2149655,8.25452828 40.2012009,6.27817462 42.5584,4.82666667 L42.5584,4.82666667 C47.5298,1.97333333 51.5498,4.29333333 51.5498,10 L51.5498,10.6533333 L60.702,5.4 C63.9716,3.52 66.6248,5.05333333 66.6248,8.8 C66.3944217,12.9441382 64.1951468,16.7316381 60.702,19 L6.4454,50.1733333 C3.1624,52.0533333 0.5226,50.52 0.5226,46.7733333 C0.746570881,42.6272981 2.94740138,38.8371193 6.4454,36.5733333 L6.4454,36.5733333 Z" id="nube"></path>
                </g>
                <g id="SOCIAL_MEDIA" transform="translate(0.000000, 17.000000)" fill-rule="nonzero">
                    <path d="M61.92,13.56 C61.714568,9.67735694 59.668819,6.12577811 56.4133333,4 L52,1.44 C48.5367307,-0.307009334 44.449936,-0.307009334 40.9866667,1.44 L5.45333333,21.92 C3.76284208,22.9768449 2.38265164,24.46285 1.45333333,26.2266667 C0.658970683,27.6298998 0.164115325,29.1825652 0,30.7866667 C0,31.0133333 0,31.24 0,31.4533333 L0,72.4133333 C0.213748127,76.2863878 2.25851161,79.8263536 5.50666667,81.9466667 L9.98666667,84.5333333 L10.56,84.8266667 L10.7733333,84.92 L11.1466667,85.08 L11.44,85.1866667 L11.76,85.2933333 L12.12,85.4 L12.4,85.4 L12.8133333,85.5066667 L13.0266667,85.5066667 L13.5333333,85.5866667 L13.64,85.5866667 C16.1556843,85.986635 18.7333832,85.5756975 21,84.4133333 L56.4133333,64 C59.6614884,61.8796869 61.7062519,58.3397211 61.92,54.4666667 L61.92,13.56 Z" id="Path" fill="#27DEBF"></path>
                    <path d="M17.0533333,34.9733333 C16.4452548,36.0307478 15.9960031,37.1718472 15.72,38.36 C16.4440709,35.280376 18.3250816,32.5973099 20.9733333,30.8666667 L56.44,10.3866667 C59.48,8.62666667 61.9466667,10.0533333 61.9466667,13.56 C61.7352088,9.67240139 59.6789799,6.11983243 56.4133333,4 L52,1.44 C48.5367307,-0.307009334 44.449936,-0.307009334 40.9866667,1.44 L5.45333333,21.92 C3.76284208,22.9768449 2.38265164,24.46285 1.45333333,26.2266667 L1.56,26.0266667 L17.0533333,34.9733333 Z" id="Path" fill="#FFFFFF" opacity="0.4"></path>
                    <path d="M19.8,85.0533333 L19.5466667,85.12 L19.5466667,85.12 L19.1066667,85.2133333 L19.1066667,85.2133333 C18.9647499,85.2265151 18.8219168,85.2265151 18.68,85.2133333 L18.68,85.2133333 C18.5470017,85.2267002 18.4129983,85.2267002 18.28,85.2133333 L18.28,85.2133333 C17.771957,85.1729892 17.2861145,84.9879064 16.88,84.68 L16.88,84.68 L16.68,84.4933333 C16.6411641,84.4612168 16.6054498,84.4255025 16.5733333,84.3866667 L16.4133333,84.2 L16.2933333,84.0533333 L16.1733333,83.8533333 C16.1326253,83.7895452 16.0969613,83.7226752 16.0666667,83.6533333 C16.0300819,83.5893606 15.9988639,83.5224648 15.9733333,83.4533333 C15.9363969,83.3711506 15.9052108,83.2865027 15.88,83.2 L15.8,82.9866667 C15.7924143,82.889036 15.7924143,82.790964 15.8,82.6933333 C15.7923931,82.6224257 15.7923931,82.5509077 15.8,82.48 C15.7935411,82.3600869 15.7935411,82.2399131 15.8,82.12 C15.8,82.0533333 15.8,81.9866667 15.8,81.92 C15.8,81.8533333 15.8,81.5333333 15.8,81.32 L15.8,40.4 C15.8022353,39.9535166 15.8378905,39.5078268 15.9066667,39.0666667 L15.9066667,39.0666667 C15.9248632,38.9000396 15.9560696,38.7350918 16,38.5733333 L16,38.3733333 C16.2760031,37.1851805 16.7252548,36.0440811 17.3333333,34.9866667 L1.56,26.0266667 L1.45333333,26.2266667 C0.658970683,27.6298998 0.164115325,29.1825652 0,30.7866667 C0,31.0133333 0,31.24 0,31.4533333 L0,72.4133333 C0.213748127,76.2863878 2.25851161,79.8263536 5.50666667,81.9466667 L9.98666667,84.5333333 L10.56,84.8266667 L10.7733333,84.92 L11.1466667,85.08 L11.44,85.1866667 L11.76,85.2933333 L12.12,85.4 L12.4,85.4 L12.8133333,85.5066667 L13.0266667,85.5066667 L13.5333333,85.5866667 L13.64,85.5866667 C15.7060452,85.9154899 17.8212144,85.7323583 19.8,85.0533333 Z" id="Path" fill="#000000" opacity="0.1"></path>
                    <path d="M46.4266667,51.12 C48.7978677,45.824339 50.0072186,40.0821954 49.9733333,34.28 C51.1406866,32.4881644 52.1192445,30.5801999 52.8933333,28.5866667 C51.8945765,29.7579499 50.767523,30.8134445 49.5333333,31.7333333 C50.78141,30.0077135 51.6576745,28.0417937 52.1066667,25.96 C51.0344052,27.4358523 49.7900748,28.7786548 48.4,29.96 C47.1395065,29.0155549 45.4071602,29.0155549 44.1466667,29.96 C40.3866667,32.1333333 37.6133333,38.4133333 38.4666667,42.7866667 C33.6266667,45.2533333 29.32,44.64 26.4666667,41.6 C24.9333333,45.9733333 25.6666667,50.12 28.2666667,50.9333333 C27.4621656,51.4046047 26.5261149,51.6011754 25.6,51.4933333 C25.6,55.12 27.4666667,57.3733333 30.28,56.5066667 C29.5242811,57.2481569 28.6135273,57.8128243 27.6133333,58.16 C28.36,60.8266667 30.5066667,61.8266667 33.0666667,60.4133333 C31.079679,63.9555666 28.0678291,66.8140354 24.4266667,68.6133333 C27.5114404,69.2980549 30.7420403,68.6962293 33.3733333,66.9466667 C39.1333333,63.6266667 43.56,57.6133333 46.3866667,51.0933333" id="Path" fill="#FFFFFF"></path>
                    <path d="M61.92,162.666667 C61.7062519,158.793612 59.6614884,155.253646 56.4133333,153.133333 L52,150.56 C48.5367307,148.812991 44.449936,148.812991 40.9866667,150.56 L5.52,171.04 C3.82950874,172.096845 2.44931831,173.58285 1.52,175.346667 C0.702311729,176.744685 0.184660292,178.297639 -1.42108547e-14,179.906667 C-1.42108547e-14,180.133333 -1.42108547e-14,180.36 -1.42108547e-14,180.573333 L-1.42108547e-14,221.52 C0.209593452,225.397849 2.25484924,228.94362 5.50666667,231.066667 L9.98666667,233.653333 L10.56,233.946667 L10.7733333,234.04 L11.1466667,234.2 L11.44,234.306667 L11.76,234.413333 L12.12,234.52 L12.4,234.586667 L12.8133333,234.693333 L13.0266667,234.693333 L13.5333333,234.773333 L13.64,234.773333 C16.1556843,235.173302 18.7333832,234.762364 21,233.6 L56.4666667,213.12 C59.7148217,210.999687 61.7595852,207.459721 61.9733333,203.586667 L61.92,162.666667 Z" id="Path" fill="#27DEBF"></path>
                    <path d="M17.0533333,184.093333 C16.4452548,185.150748 15.9960031,186.291847 15.72,187.48 C16.4405836,184.409579 18.3112501,181.732427 20.9466667,180 L56.4133333,159.52 C59.4533333,157.76 61.92,159.186667 61.92,162.693333 C61.7062519,158.820279 59.6614884,155.280313 56.4133333,153.16 L52,150.56 C48.5367307,148.812991 44.449936,148.812991 40.9866667,150.56 L5.52,171.04 C3.82950874,172.096845 2.44931831,173.58285 1.52,175.346667 L1.62666667,175.146667 L17.0533333,184.093333 Z" id="Path" fill="#FFFFFF" opacity="0.4"></path>
                    <path d="M19.8,234.173333 L19.5466667,234.24 L19.5466667,234.24 L19.1066667,234.333333 L19.1066667,234.333333 C18.9647499,234.346515 18.8219168,234.346515 18.68,234.333333 L18.68,234.333333 C18.5466667,234.333333 18.4133333,234.333333 18.28,234.333333 L18.28,234.333333 C17.7730865,234.288033 17.2885688,234.103455 16.88,233.8 L16.88,233.8 L16.68,233.613333 C16.6411641,233.581217 16.6054498,233.545503 16.5733333,233.506667 L16.4133333,233.32 L16.2933333,233.173333 L16.1733333,232.973333 C16.1326253,232.909545 16.0969613,232.842675 16.0666667,232.773333 C16.0275658,232.705992 15.9962534,232.634421 15.9733333,232.56 C15.9345517,232.483199 15.9032949,232.402824 15.88,232.32 L15.8,232.106667 C15.7924143,232.009036 15.7924143,231.910964 15.8,231.813333 C15.7923931,231.742426 15.7923931,231.670908 15.8,231.6 C15.7935411,231.480087 15.7935411,231.359913 15.8,231.24 C15.8,231.24 15.8,231.106667 15.8,231.04 C15.8,230.973333 15.8,230.653333 15.8,230.44 L15.8,189.52 C15.801729,189.073495 15.8373872,188.627767 15.9066667,188.186667 L15.9066667,188.186667 C15.9248632,188.02004 15.9560696,187.855092 16,187.693333 L16,187.493333 C16.2760031,186.305181 16.7252548,185.164081 17.3333333,184.106667 L1.84,175.16 L1.73333333,175.36 C0.842415268,176.736883 0.251793556,178.286129 -1.42108547e-14,179.906667 C-1.42108547e-14,180.133333 -1.42108547e-14,180.36 -1.42108547e-14,180.573333 L-1.42108547e-14,221.52 C0.209593452,225.397849 2.25484924,228.94362 5.50666667,231.066667 L9.98666667,233.653333 L10.56,233.946667 L10.7733333,234.04 L11.1466667,234.2 L11.44,234.306667 L11.76,234.413333 L12.12,234.52 L12.4,234.586667 L12.8133333,234.693333 L13.0266667,234.693333 L13.5333333,234.773333 L13.64,234.773333 C15.7114859,235.080788 17.8267811,234.874753 19.8,234.173333 L19.8,234.173333 Z" id="Path" fill="#000000" opacity="0.1"></path>
                    <path d="M38.6666667,181.666667 C42.2933333,179.56 42.6666667,179.333333 44.16,178.6 C44.9263066,178.13441 45.7876005,177.847312 46.68,177.76 C47.2395661,177.697978 47.8008223,177.861078 48.24,178.213333 C48.7292749,178.592154 49.0881716,179.114185 49.2666667,179.706667 C49.5804686,180.712197 49.7378615,181.759985 49.7333333,182.813333 C49.7333333,184.68 49.8133333,185.24 49.8133333,190.08 C49.8133333,194.92 49.8133333,195.506667 49.7333333,197.453333 C49.7094741,198.679944 49.5530086,199.900375 49.2666667,201.093333 C49.0379131,202.021849 48.6929691,202.917807 48.24,203.76 C47.8312422,204.582326 47.3058141,205.341277 46.68,206.013333 C45.9404655,206.82389 45.0924405,207.528334 44.16,208.106667 C42.72,209.013333 42.2933333,209.28 38.6666667,211.373333 C35.04,213.466667 34.6666667,213.706667 33.1733333,214.44 C32.4070267,214.90559 31.5457328,215.192688 30.6533333,215.28 C30.0937673,215.342022 29.532511,215.178922 29.0933333,214.826667 C28.601111,214.444975 28.2418407,213.917734 28.0666667,213.32 C27.7510809,212.319457 27.5936296,211.27578 27.6,210.226667 C27.6,208.36 27.52,207.786667 27.52,202.946667 C27.52,198.106667 27.52,197.533333 27.6,195.586667 C27.6238592,194.360056 27.7803248,193.139625 28.0666667,191.946667 C28.2954203,191.018151 28.6403643,190.122193 29.0933333,189.28 C29.5052111,188.455467 30.0302884,187.692534 30.6533333,187.013333 C31.3976899,186.211648 32.2450769,185.512217 33.1733333,184.933333 C34.6133333,184.026667 35.04,183.76 38.6666667,181.666667 M38.6666667,178.4 C34.9733333,180.533333 34.5066667,180.813333 33.0666667,181.746667 C31.8426774,182.504829 30.7298383,183.429203 29.76,184.493333 C28.8015376,185.535663 27.9936994,186.707029 27.36,187.973333 C26.6660503,189.271117 26.1374869,190.650757 25.7866667,192.08 C25.4054648,193.643709 25.1953422,195.244218 25.16,196.853333 C25.16,198.813333 25.08,199.44 25.08,204.373333 C25.08,209.306667 25.08,209.893333 25.16,211.786667 C25.1655,213.144011 25.3767906,214.492674 25.7866667,215.786667 C26.0610524,216.699233 26.6105252,217.504816 27.36,218.093333 C28.0411603,218.624306 28.9006239,218.872595 29.76,218.786667 C30.9260175,218.681736 32.0547952,218.322166 33.0666667,217.733333 C34.5066667,216.986667 34.9733333,216.733333 38.6666667,214.6 C42.36,212.466667 42.8266667,212.186667 44.2666667,211.253333 C45.490656,210.495171 46.603495,209.570797 47.5733333,208.506667 C48.5317957,207.464337 49.3396339,206.292971 49.9733333,205.026667 C50.667283,203.728883 51.1958464,202.349243 51.5466667,200.92 C51.9278685,199.356291 52.1379912,197.755782 52.1733333,196.146667 C52.1733333,194.173333 52.2533333,193.56 52.2533333,188.626667 C52.2533333,183.693333 52.2533333,183.106667 52.1733333,181.2 C52.1682452,179.842623 51.9569449,178.493898 51.5466667,177.2 C51.272281,176.287434 50.7228082,175.481851 49.9733333,174.893333 C49.2909916,174.363711 48.4338056,174.111317 47.5733333,174.186667 C46.4079099,174.303562 45.2807142,174.667173 44.2666667,175.253333 C42.8266667,176 42.36,176.253333 38.6666667,178.386667 M38.6666667,187.2 C34.8133333,189.426667 31.6933333,195.4 31.6933333,200.533333 C31.6933333,205.666667 34.8133333,208.04 38.6666667,205.866667 C42.52,203.693333 45.64,197.666667 45.64,192.533333 C45.64,187.4 42.52,185.026667 38.6666667,187.2 M38.6666667,202.546667 C36.16,203.986667 34.1333333,202.453333 34.1333333,199.12 C34.1832924,195.679003 35.8661625,192.4667 38.6666667,190.466667 C41.1733333,189.026667 43.2,190.546667 43.2,193.893333 C43.150041,197.334331 41.4671708,200.546633 38.6666667,202.546667 M47.56,181.706667 C47.56,180.493333 46.8266667,179.946667 45.92,180.466667 C44.9249152,181.199538 44.3244649,182.351221 44.2933333,183.586667 C44.2933333,184.786667 45.0266667,185.333333 45.92,184.813333 C46.9310058,184.098737 47.5402894,182.944565 47.56,181.706667" id="Shape" fill="#FFFFFF"></path>
                    <path d="M123.666667,67.3333333 C123.452919,63.4602789 121.408155,59.9203131 118.16,57.8 L113.68,55.2133333 C110.219812,53.4534209 106.126854,53.4534209 102.666667,55.2133333 L67.2,75.68 C65.5122141,76.74589 64.1331033,78.2353298 63.2,80 C62.3963132,81.401155 61.8923409,82.9539344 61.72,84.56 C61.72,84.7733333 61.72,85 61.72,85.2266667 L61.72,126.173333 C61.9337481,130.046388 63.9785116,133.586354 67.2266667,135.706667 L71.7066667,138.293333 L72.28,138.586667 L72.4933333,138.68 C72.6142022,138.741318 72.7389063,138.794762 72.8666667,138.84 L73.16,138.946667 L73.48,139.066667 L73.84,139.16 L74.12,139.24 L74.5466667,139.333333 L74.7466667,139.333333 L75.2533333,139.426667 L75.36,139.426667 C77.8770999,139.822542 80.454873,139.406923 82.72,138.24 L118.186667,117.76 C121.441269,115.645799 123.488101,112.102252 123.693333,108.226667 L123.666667,67.3333333 Z" id="Path" fill="#27DEBF"></path>
                    <path d="M78.8,88.7466667 C78.1896184,89.8029715 77.7402283,90.9444222 77.4666667,92.1333333 C78.1914358,89.0505076 80.0718746,86.3634846 82.72,84.6266667 L118.186667,64.16 C121.226667,62.4 123.693333,63.8266667 123.693333,67.3333333 C123.479585,63.4602789 121.434822,59.9203131 118.186667,57.8 L113.706667,55.2133333 C110.246479,53.4534209 106.153521,53.4534209 102.693333,55.2133333 L67.2266667,75.68 C65.5388808,76.74589 64.1597699,78.2353298 63.2266667,80 L63.3333333,79.8 L78.8,88.7466667 Z" id="Path" fill="#FFFFFF" opacity="0.4"></path>
                    <path d="M81.5466667,138.813333 L81.2933333,138.893333 L81.2933333,138.893333 C81.1496549,138.937161 81.0024318,138.968391 80.8533333,138.986667 L80.8533333,138.986667 L80.44,138.986667 L80,138.986667 C79.4933308,138.950216 79.0076134,138.769806 78.6,138.466667 L78.6,138.466667 L78.4,138.293333 L78.2933333,138.186667 L78.1333333,138 L78.0133333,137.84 L77.8933333,137.64 C77.8196103,137.510313 77.752849,137.376791 77.6933333,137.24 C77.6564901,137.162349 77.625298,137.082141 77.6,137 L77.52,136.786667 C77.4914555,136.690434 77.4691865,136.59245 77.4533333,136.493333 C77.4487407,136.422296 77.4487407,136.351037 77.4533333,136.28 C77.4459445,136.155665 77.4459445,136.031001 77.4533333,135.906667 C77.4589287,135.84457 77.4589287,135.782096 77.4533333,135.72 C77.4533333,135.52 77.4533333,135.32 77.4533333,135.12 L77.4533333,94.16 C77.4561565,93.7135417 77.4918082,93.2678955 77.56,92.8266667 L77.56,92.8266667 C77.56,92.6666667 77.56,92.5066667 77.6533333,92.3333333 L77.6533333,92.1466667 C77.926895,90.9577556 78.3762851,89.8163048 78.9866667,88.76 L63.4933333,79.8133333 L63.3866667,80.0133333 C62.5829798,81.4144884 62.0790076,82.9672678 61.9066667,84.5733333 C61.9066667,84.7866667 61.9066667,85.0133333 61.9066667,85.24 L61.9066667,126.186667 C62.1204148,130.059721 64.1651783,133.599687 67.4133333,135.72 L71.8933333,138.306667 L72.4666667,138.6 L72.68,138.693333 C72.8008688,138.754651 72.925573,138.808096 73.0533333,138.853333 L73.3466667,138.96 L73.6666667,139.08 L74.0266667,139.173333 L74.3066667,139.253333 L74.7333333,139.346667 L74.9333333,139.346667 L75.44,139.44 L75.5466667,139.44 C77.5679138,139.719501 79.6267965,139.504462 81.5466667,138.813333 Z" id="Path" fill="#000000" opacity="0.1"></path>
                    <path d="M96.6,124 L102.506667,120.586667 L102.506667,100.76 L106.64,98.3866667 L107.08,91.5066667 L102.506667,94.1733333 L102.506667,90.4133333 C102.506667,88.8533333 102.746667,88.0933333 103.84,87.44 L107.04,85.6 L107.04,78.6666667 L102.946667,81.0266667 C98.8136125,83.2063086 96.3215988,87.5868421 96.56,92.2533333 L96.56,97.52 L93.48,99.3066667 L93.48,105.973333 L96.56,104.2 L96.6,124 Z" id="Path" fill="#FFFFFF"></path>
                </g>
                <g id="LEAVES" transform="translate(12.000000, 236.000000)">
                    <path d="M32.2194269,155.962203 C31.57851,155.842458 30.8841834,155.642881 30.1230946,155.443305 C27.5460745,154.764746 24.9957593,153.966441 22.4988539,153.035085 C17.5037586,151.196277 12.8000508,148.651123 8.5322063,145.477797 C6.20263283,143.814851 4.21310839,141.724001 2.67048711,139.317542 C1.11190439,136.877288 0.557163294,133.932338 1.12160458,131.095 C1.76624365,128.2362 4.01645995,126.009534 6.88985673,125.387119 C8.22510029,125.160932 9.56034384,125.387119 10.8955874,125.147627 C12.2759925,125.036526 13.4285902,124.054388 13.7530086,122.712797 C13.7506565,121.957773 13.5430107,121.217497 13.152149,120.570678 C10.7607654,116.181914 8.70748224,111.61844 7.01002865,106.919661 C5.57285007,102.727161 5.4841642,98.192314 6.75633238,93.9472034 C7.84572632,89.7232582 10.1693394,85.916785 13.4325501,83.0104237 C14.9013181,81.6799153 16.9709456,80.7219492 18.7735244,81.5069492 C19.9244703,82.0904194 20.756022,83.1529807 21.0434384,84.4074576 C21.3268634,85.6516869 21.4701748,86.9235277 21.4707163,88.1994068 C21.6475373,90.9148054 22.1679526,93.5970626 23.0195989,96.1824576 C23.412825,97.8054586 24.35608,99.2435208 25.690086,100.253814 C28.0000573,101.690763 31.1645845,100.573136 33.6214327,101.717373 C36.0782808,102.86161 36.9061318,105.549237 37.0263037,108.077203 C37.1464756,110.605169 36.6123782,113.119831 36.9061318,115.634492 C36.9588552,116.420879 37.2115835,117.180954 37.6405158,117.843136 C38.3184562,118.572949 39.1068972,119.192486 39.977192,119.679237 C42.2927523,121.582747 43.6143383,124.431949 43.5689971,127.422797 C43.485724,130.372216 42.9220266,133.288554 41.8999427,136.057797 C40.759385,139.922841 39.9377012,143.874296 39.4430946,147.872712 C39.0271681,150.314117 37.9828262,152.606272 36.4120917,154.525254 C35.4528508,155.829737 33.7809981,156.40273 32.2194269,155.962203 L32.2194269,155.962203 Z" id="Path" fill="#27DEBF" fill-rule="nonzero"></path>
                    <path d="M16.7306017,86.0838983 C16.7306017,86.0838983 8.46544413,106.613644 36.3319771,153.474153" id="Path" stroke="#FFFFFF" stroke-linecap="round" stroke-linejoin="round"></path>
                    <path d="M6.11541547,131.627203 C6.11541547,131.627203 10.9890544,137.468136 28.6142693,139.410678" id="Path" stroke="#FFFFFF" stroke-linecap="round" stroke-linejoin="round"></path>
                    <path d="M29.6824642,108.822288 C29.6824642,108.822288 29.3753582,120.983136 23.6471633,128.487203" id="Path" stroke="#FFFFFF" stroke-linecap="round" stroke-linejoin="round"></path>
                    <path d="M384.309799,81.0013559 C386.018911,69.5323729 386.045616,55.5354237 377.633582,35.0988136 C369.221547,14.6622034 371.81192,3.925 380.864871,1.01118644 C389.917822,-1.90262712 409.999885,13.6111017 409.252149,39.715678 C408.531117,64.9155085 391.44,85.7379661 391.44,85.7379661 L384.309799,81.0013559 Z" id="Path" fill="#27DEBF" fill-rule="nonzero"></path>
                    <path d="M384.309799,81.0013559 C386.018911,69.5323729 386.045616,55.5354237 377.633582,35.0988136 C369.221547,14.6622034 371.81192,3.925 380.864871,1.01118644 C389.917822,-1.90262712 409.999885,13.6111017 409.252149,39.715678 C408.531117,64.9155085 391.44,85.7379661 391.44,85.7379661 L384.309799,81.0013559 Z" id="Path" fill="#000000" fill-rule="nonzero" opacity="0.2"></path>
                    <path d="M383.909226,7.15813559 C383.909226,7.15813559 396.64745,19.5052542 397.435244,42.4565254 C398.12957,62.3476271 388.742808,83.9550847 388.742808,83.9550847" id="Path" stroke="#FFFFFF" stroke-linecap="round" stroke-linejoin="round"></path>
                    <path d="M384.817192,91.1797458 C384.817192,91.1797458 389.597364,63.4519492 406.554957,47.5124576 C423.51255,31.5729661 451.779656,28.5527119 460.632321,37.0679661 C469.484986,45.5832203 463.810201,53.845678 451.285616,56.7195763 C437.158739,59.9527119 428.586476,65.6472881 437.158739,70.024661 C445.170201,74.0161864 444.302292,82.7576271 435.916963,86.9487288 C422.564527,93.6012712 398.423324,87.2680508 392.548252,100.413475 L384.817192,91.1797458 Z" id="Path" fill="#27DEBF" fill-rule="nonzero"></path>
                    <path d="M452.246991,42.5762712 C452.246991,42.5762712 406.554957,47.5257627 388.408997,96.6348305" id="Path" stroke="#FFFFFF" stroke-linecap="round" stroke-linejoin="round"></path>
                    <path d="M432.218338,76.8368644 C432.218338,76.8368644 411.535415,74.1758475 396.994613,79.1918644" id="Path" stroke="#FFFFFF" stroke-linecap="round" stroke-linejoin="round"></path>
                </g>
                <g id="MOBILE" transform="translate(41.000000, 85.000000)" fill-rule="nonzero">
                    <path d="M2.52,314.339866 L144.333333,396.303826 C147.709249,398.026054 151.704084,398.026054 155.08,396.303826 L376.16,268.449664 C379.133333,266.726779 379.133333,263.948792 376.16,262.225906 L234.373333,180.302013 C230.994326,178.59274 227.005674,178.59274 223.626667,180.302013 L2.52,308.116107 C-0.453333333,309.852349 -0.453333333,312.61698 2.52,314.339866 Z" id="sombra_móvil" fill="#ABD5FD"></path>
                    <path d="M7,294.573423 L144.773333,374.240201 C148.188028,375.977136 152.225305,375.977136 155.64,374.240201 L374.053333,247.921946 C377.053333,246.19906 377.053333,243.381007 374.053333,241.644765 L236.253333,161.977987 C232.842259,160.245569 228.811075,160.245569 225.4,161.977987 L7,288.282886 C3.97333333,290.019128 3.97333333,292.837181 7,294.573423 Z" id="Path" fill="#2460DA"></path>
                    <path d="M144.746667,374.240201 L7,294.573423 C4.33333333,293.024161 4.04,290.566711 6.16,288.870537 C3.43989039,291.025639 1.77047491,294.243683 1.57333333,297.712013 L1.57333333,302.827248 C1.77667477,306.657559 3.79278766,310.160664 7,312.256376 L144.773333,391.923154 C146.4432,392.825989 148.315938,393.285764 150.213333,393.258725 L150.213333,375.54906 C148.309347,375.588284 146.427144,375.137636 144.746667,374.240201 L144.746667,374.240201 Z" id="Path" fill="#4C9FFF"></path>
                    <path d="M374.026667,265.604899 C377.235291,263.514897 379.256149,260.017115 379.466667,256.189128 L379.466667,251.087248 C379.266236,247.616746 377.591777,244.398334 374.866667,242.245772 C376.986667,243.982013 376.72,246.38604 374.026667,247.935302 L155.613333,374.240201 C153.948069,375.142495 152.079763,375.602309 150.186667,375.575772 L150.186667,393.246504 C152.07983,393.272503 153.948285,392.812653 155.613333,391.909799 L374.026667,265.604899 Z" id="Path" fill="#2343BA"></path>
                    <path d="M80.96,331.341678 C85.7017949,333.758677 91.3115385,333.758677 96.0533333,331.341678 C100.213333,328.937651 100.213333,325.02443 96.0533333,322.620403 C91.3084432,320.216368 85.7048901,320.216368 80.96,322.620403 C76.8,325.02443 76.8,328.937651 80.96,331.341678 Z" id="Path" fill="#2343BA"></path>
                    <path d="M166.24,357.345235 L34.32,281.017383 C32.52,279.975638 32.52,278.346242 34.32,277.251074 L206.066667,177.884631 C208.115483,176.84247 210.53785,176.84247 212.586667,177.884631 L344.48,254.185772 C346.28,255.227517 346.28,256.856913 344.48,257.952081 L172.746667,357.345235 C170.702504,358.387207 168.284162,358.387207 166.24,357.345235 Z" id="Path" fill="#FFFFFF"></path>
                    <path d="M295.173333,207.400738 C296.375324,208.014421 297.79801,208.014421 299,207.400738 C299.472953,207.242146 299.791761,206.79848 299.791761,206.298893 C299.791761,205.799306 299.472953,205.35564 299,205.197047 C297.79801,204.583365 296.375324,204.583365 295.173333,205.197047 C294.70038,205.35564 294.381572,205.799306 294.381572,206.298893 C294.381572,206.79848 294.70038,207.242146 295.173333,207.400738 L295.173333,207.400738 Z" id="Path" fill="#2343BA"></path>
                    <path d="M301.28,224.763154 C303.681912,225.97951 306.518088,225.97951 308.92,224.763154 C311.026667,223.547785 311.026667,221.557785 308.92,220.342416 C306.518088,219.12606 303.681912,219.12606 301.28,220.342416 C299.173333,221.557785 299.173333,223.547785 301.28,224.763154 Z" id="Path" fill="#2343BA"></path>
                    <path d="M295.893333,217.070268 C297.293333,216.25557 297.226667,214.893289 295.72,214.025168 L270.586667,199.494161 C268.948314,198.620294 266.992333,198.580613 265.32,199.387315 C263.92,200.202013 263.986667,201.564295 265.493333,202.432416 L290.626667,216.976779 C292.267155,217.846403 294.223114,217.881123 295.893333,217.070268 L295.893333,217.070268 Z" id="Path" fill="#2343BA"></path>
                    <path d="M203.866667,198.398993 C202.066667,199.440738 202.066667,201.070134 203.866667,202.165302 L304.333333,260.275973 C306.38215,261.318134 308.804517,261.318134 310.853333,260.275973 L333.08,247.441141 L226.093333,185.550805 L203.866667,198.398993 Z" id="Path" fill="#D9EEFF"></path>
                    <path d="M204.613333,208.495906 L196.613333,203.848121 C195.93207,203.513551 195.134596,203.513551 194.453333,203.848121 L189.386667,206.77302 C189.12301,206.868875 188.94745,207.119782 188.94745,207.400738 C188.94745,207.681694 189.12301,207.932601 189.386667,208.028456 L190.093333,208.442483 L187.533333,209.778054 C187.226667,209.938322 187.266667,210.045168 187.613333,210.018456 L192.106667,209.591074 L197.44,212.662886 C198.122939,213.010273 198.930394,213.010273 199.613333,212.662886 L204.666667,209.737987 C204.917346,209.626748 205.074473,209.373119 205.062692,209.098736 C205.05091,208.824353 204.872622,208.585174 204.613333,208.495906 Z" id="Path" fill="#D9EEFF"></path>
                    <path d="M206.92,220.569463 L206.333333,219.327383 C205.56,217.711342 205.106667,215.507651 207.32,214.225503 C209.02502,213.357131 211.041646,213.357131 212.746667,214.225503 C213.92,214.906644 214.173333,215.908322 213.52,216.72302 C214.966393,216.332539 216.50604,216.494378 217.84,217.177114 C218.512341,217.404203 218.965066,218.035684 218.965066,218.746409 C218.965066,219.457134 218.512341,220.088616 217.84,220.315705 C215.666667,221.571141 211.866667,221.317383 209.053333,220.89 L206.92,220.569463 Z" id="Path" fill="#D9EEFF"></path>
                    <path d="M96.8666667,264.042282 L197.346667,322.152953 C199.395483,323.195114 201.81785,323.195114 203.866667,322.152953 L282.106667,276.89047 C283.906667,275.848725 283.906667,274.219329 282.106667,273.124161 L181.666667,215.026846 C179.61785,213.984685 177.195483,213.984685 175.146667,215.026846 L96.8666667,260.275973 C95.0666667,261.317718 95.0666667,263.000537 96.8666667,264.042282 Z" id="Path" fill="#D9EEFF"></path>
                    <path d="M97.6666667,270.35953 L89.6666667,265.778523 C88.9837277,265.431136 88.1762723,265.431136 87.4933333,265.778523 L82.44,268.703423 C82.1763437,268.799278 82.000783,269.050185 82.000783,269.331141 C82.000783,269.612097 82.1763437,269.863004 82.44,269.958859 L83.1466667,270.372886 L80.5866667,271.708456 C80.28,271.868725 80.3066667,271.97557 80.6533333,271.948859 L85.16,271.521477 L90.4933333,274.579933 C91.1762723,274.92732 91.9837277,274.92732 92.6666667,274.579933 L97.72,271.668389 C98.0291984,271.593585 98.2425687,271.310392 98.2295962,270.992035 C98.2166238,270.673677 97.9809227,270.408845 97.6666667,270.35953 L97.6666667,270.35953 Z" id="Path" fill="#D9EEFF"></path>
                    <path d="M99.92,282.446443 L99.3466667,281.204362 C98.5733333,279.588322 98.12,277.384631 100.333333,276.102483 C102.038354,275.234111 104.05498,275.234111 105.76,276.102483 C106.933333,276.783624 107.186667,277.785302 106.533333,278.6 C107.979828,278.210809 109.519006,278.372599 110.853333,279.054094 C111.525675,279.281182 111.978399,279.912664 111.978399,280.623389 C111.978399,281.334114 111.525675,281.965596 110.853333,282.192685 C108.68,283.448121 104.88,283.194362 102.066667,282.76698 L99.92,282.446443 Z" id="Path" fill="#D9EEFF"></path>
                    <path d="M68.1333333,276.89047 C70.1821501,275.848309 72.6045166,275.848309 74.6533333,276.89047 L175.12,335.001141 C176.92,336.042886 176.92,337.672282 175.12,338.76745 L154.626667,350.627315 L47.6533333,288.73698 L68.1333333,276.89047 Z" id="Path" fill="#D9EEFF"></path>
                    <path d="M179.746667,263.508054 L122.56,278.907181 L122.56,278.907181 L197.346667,322.152953 C199.395483,323.195114 201.81785,323.195114 203.866667,322.152953 L205.48,321.218054 L237.746667,273.791946 L169.226667,287.267852 L179.746667,263.508054 Z" id="Path" fill="#C1E4FF"></path>
                    <path d="M207.946667,230.238993 L181.666667,215.026846 C179.61785,213.984685 177.195483,213.984685 175.146667,215.026846 L145.666667,232.028658 C147,234.592953 149.786667,237.037047 154,239.040403 C166.386667,244.95698 186.48,244.95698 198.866667,239.040403 C204.093333,236.569597 207.106667,233.457718 207.946667,230.238993 Z" id="Path" fill="#C1E4FF"></path>
                    <path d="M334.826667,224.883356 L203,148.582215 C200.955838,147.540242 198.537496,147.540242 196.493333,148.582215 L24.7333333,247.948658 C22.9333333,248.990403 22.9333333,250.619799 24.7333333,251.714966 L52.6133333,267.848658 L156.613333,328.042819 C158.66215,329.08498 161.084517,329.08498 163.133333,328.042819 L317.733333,238.559597 L334.853333,228.649664 C336.626667,227.607919 336.626667,225.925101 334.826667,224.883356 Z" id="Path" fill="#FFFFFF" opacity="0.2"></path>
                    <path d="M335.133333,224.375839 L226.093333,161.28349 L203.253333,148.074698 C201.012324,146.912751 198.347676,146.912751 196.106667,148.074698 L24.3333333,247.401074 C23.3292775,247.787937 22.6667619,248.754233 22.6667619,249.831812 C22.6667619,250.909391 23.3292775,251.875688 24.3333333,252.26255 L52.2266667,268.449664 L156.333333,328.550336 C158.571009,329.725916 161.242324,329.725916 163.48,328.550336 L318.146667,239.067114 L335.253333,229.170537 C336.257389,228.783674 336.919905,227.817378 336.919905,226.739799 C336.919905,225.66222 336.257389,224.695923 335.253333,224.30906 L335.133333,224.375839 Z M334.506667,228.142148 L317.4,238.052081 L162.733333,327.535302 C160.875534,328.45226 158.697799,328.45226 156.84,327.535302 L52.84,267.341141 L24.96,251.220805 C24.4101089,250.980497 24.0188039,250.477982 23.92,249.885235 C24.0140889,249.290425 24.4069632,248.785895 24.96,248.549664 L196.733333,149.116443 C198.591132,148.199485 200.768868,148.199485 202.626667,149.116443 L225.466667,162.338591 L334.506667,225.417584 C335.059703,225.653814 335.452578,226.158344 335.546667,226.753154 C335.464435,227.356179 335.068336,227.869936 334.506667,228.102081 L334.506667,228.142148 Z" id="Shape" fill="#FFFFFF"></path>
                    <path d="M326.826667,35.8867785 L331.306667,32.427651 L331.306667,22.5444295 C331.306667,14.7046309 337.546667,5.60939597 344.32,1.6961745 L344.32,1.6961745 C351.093333,-2.23040268 356.586667,0.948255034 356.586667,8.78805369 L356.586667,10.2171141 C358.022059,7.90343675 359.970198,5.95202933 362.28,4.51422819 L362.28,4.51422819 C367.16,1.6961745 371.12,3.98 371.12,9.61610738 L371.12,10.2705369 L380.093333,5.08852349 C383.306667,3.23208054 385.906667,4.72791946 385.906667,8.44080537 C385.689971,12.5432878 383.529772,16.29524 380.093333,18.5377181 L326.826667,49.3359732 C323.613333,51.1924161 321,49.6965772 321,45.9836913 C321.221841,41.8793606 323.386762,38.1278112 326.826667,35.8867785 L326.826667,35.8867785 Z" id="Path" fill="#D9EEFF"></path>
                </g>
                <g id="CHARACTER_IN_BUBBLE_SPEECH" transform="translate(165.000000, 0.000000)" fill-rule="nonzero">
                    <path d="M151.64,0.907538462 C153.466667,-0.146807692 154.933333,0.720692308 154.933333,2.81603846 L154.933333,245.996308 C154.812602,248.321909 153.588697,250.449684 151.64,251.721808 L56.8266667,306.507769 L45.7466667,343.676808 C44.7466667,347.053385 42.7466667,347.186846 41.2933333,343.983769 L31,321.428769 L3.32,337.444154 C1.50666667,338.4985 0.0266666667,337.644346 0.0266666667,335.535654 L0.0266666667,92.3553846 C0.147397648,90.0297835 1.37130328,87.9020087 3.32,86.6298846 L151.64,0.907538462 Z" id="Path" fill="#27DEBF"></path>
                    <path d="M139.533333,188.634538 C139.299913,191.826046 137.561967,194.715495 134.853333,196.415346 L82.76,226.524269 C80.1733333,228.019038 78.08,226.951346 78.08,224.148654 C78.3134202,220.957147 80.0513661,218.067697 82.76,216.367846 L134.853333,186.272269 C137.44,184.7775 139.533333,185.831846 139.533333,188.634538 Z" id="Path" fill="#FFFFFF"></path>
                    <path d="M129.973333,218.716769 C129.744254,221.906138 128.004677,224.793337 125.293333,226.484231 L81.9866667,251.521615 C79.4,253.016385 77.3066667,251.948692 77.3066667,249.146 C77.539989,245.95798 79.2784944,243.072559 81.9866667,241.378538 L125.293333,216.341154 C127.88,214.873077 129.973333,215.914077 129.973333,218.716769 Z" id="Path" fill="#FFFFFF"></path>
                    <path d="M51.8933333,261.491192 L51.7733333,260.023115 C49.4133333,265.9755 45.8533333,270.259615 41.8933333,272.555154 C34.88,276.559 28.56,273.008923 28.56,262.278615 C28.56,252.148885 33.56,241.058231 41.2,236.640654 C46.2533333,233.717846 49.7066667,235.866577 50.28,237.147808 L50.28,234.652077 C50.5989357,232.820403 51.7456524,231.239073 53.3866667,230.367962 C55.0933333,229.380346 56.4933333,230.287885 56.4933333,232.396577 L56.4933333,255.351962 C56.4933333,258.261423 57.5733333,258.862 59.16,257.954462 C61.9733333,256.326231 64.56,249.399577 64.56,241.498654 C64.56,226.230654 56.56,219.117154 43.8133333,226.484231 C31.8133333,233.384192 22.3866667,250.827615 22.3866667,266.015538 C22.3866667,280.976577 31.3466667,286.688731 43.0666667,279.908885 C46.4385325,277.816337 49.4282511,275.162273 51.9066667,272.061346 C53.24,270.419769 54.68,269.925962 55.3333333,271.100423 C55.9866667,272.274885 55.5866667,274.6505 54.2533333,276.292077 C51.1077771,280.221884 47.3265216,283.596257 43.0666667,286.275 C28.48,294.709769 17.44,287.356038 17.44,268.925 C17.44,250.053538 29,228.886538 43.8133333,220.318308 C58.6266667,211.750077 69.4933333,219.370731 69.4933333,238.455731 C69.4933333,250.040192 64.96,260.183269 58.52,263.8935 C55,265.868731 52.52,265.414962 51.8933333,261.491192 Z M35.3466667,258.007846 C35.3466667,263.920192 38.2133333,267.163308 42.5866667,264.680923 C46.96,262.198538 49.9333333,255.672269 49.9333333,249.693192 C49.9333333,243.941 47,241.031538 42.4666667,243.660731 C38.2133333,246.076385 35.3466667,252.335731 35.3466667,258.007846 Z" id="Shape" fill="#FFFFFF"></path>
                    <path d="M77.48,79.1693846 C103.066667,64.3818462 123.813333,76.3666923 123.813333,105.941769 C123.813333,135.516846 103.066667,171.484731 77.48,186.272269 C51.8933333,201.059808 31.1466667,189.074962 31.1466667,159.499885 C31.1466667,129.924808 51.8933333,93.9569231 77.48,79.1693846 Z" id="Path" fill="#D9EEFF"></path>
                    <g id="Group" transform="translate(43.000000, 88.084615)">
                        <path d="M17.5866667,30.3491538 C15.449046,30.7140354 13.5367044,31.8960418 12.2533333,33.6456538 C9.97333333,36.5818077 10.4533333,40.7591538 12.2533333,50.1815385 L19.28,49.1005 L17.5866667,30.3491538 Z" id="Path" fill="#002176"></path>
                        <path d="M58.5733333,16.4958462 C60.1455915,16.0695462 61.6305135,15.3692902 62.96,14.4271923 C65.12,12.6121154 65.6266667,14.9076538 64.5066667,17.3633462 C62.9070453,20.8884616 59.970691,23.6307337 56.3466667,24.984 C56.28,24.6903846 54.3333333,20.0325769 54.3333333,20.0325769 L58.5733333,16.4958462 Z" id="Path" fill="#002176"></path>
                        <path d="M21.6266667,78.9024615 C21.6266667,78.9024615 8.53333333,87.3639231 5.62666667,90.3534615 C2.72,93.343 1.62666667,102.618577 0.56,113.9895 C0.56,113.9895 15.48,120.275538 38.8933333,108.651038 C62.3066667,97.0265385 64.4,87.8844231 64.4,87.8844231 C64.4,87.8844231 61.3733333,74.1245385 60.2533333,70.3075385 C58.8266667,65.4628846 56.08,61.9795385 40.12,69.2265 L21.6266667,78.9024615 Z" id="Path" fill="#2460DA"></path>
                        <path d="M20.88,48.6867692 C19.84,49.5943077 18.3466667,47.9794231 17.0666667,46.9784615 C15.7866667,45.9775 11.5733333,45.2568077 9.48,50.2482692 C7.38666667,55.2397308 12.1466667,60.0043077 15.04,61.2321538 C17.025824,62.0681098 19.3176242,61.6491137 20.88,60.1644615 L21.6266667,78.8490769 C21.6266667,78.8490769 25.36,85.2685769 35.4666667,83.9339615 C45.5733333,82.5993462 43.4666667,72.4028846 40.1733333,69.2531923 L40.1733333,65.3961538 C40.1733333,65.3961538 45.3866667,65.0491538 47.8533333,63.7278846 C49.1866667,63.0338846 52.32,58.3894231 54.3466667,53.5848077 C58.5134818,44.7368337 59.4568536,34.7085916 57.0133333,25.2375769 C53.3866667,10.7970385 36.84,14.7608462 26.9733333,23.6226923 C17.1066667,32.4845385 20.88,48.6867692 20.88,48.6867692 Z" id="Path" fill="#FFA8A7"></path>
                        <path d="M61.4133333,2.00192308 C60.52,-0.907538462 59.9866667,-0.400384615 52.8266667,4.67115385 C47.3653106,8.52567151 41.2674125,11.3855391 34.8133333,13.1192692 C29.7733333,14.6540769 22.8133333,15.8819231 19.32,20.5664231 C17.7979761,22.5757405 17.0245825,25.0539237 17.1333333,27.5731538 C16.830747,27.2935382 16.4646212,27.0919754 16.0666667,26.9859231 C13.999626,26.7008924 12.0131939,27.8950085 11.2933333,29.8553462 L17.4266667,31.4969231 C16.9466667,35.0603462 15.56,46.0442308 17.0666667,47.0185 C18.4,47.8593077 20.36,50.6353077 20.88,50.4885 C22.6533333,49.9813462 23.4133333,42.1338077 24.32,37.3825769 C25.3733333,32.0441154 25.7866667,29.9888077 27.72,29.7352308 C34.0100015,28.7526434 40.1992538,27.2071925 46.2133333,25.1174615 C52.88,22.5149615 54.8133333,20.2995 54.8133333,20.2995 L58.36,18.044 C61.6288336,13.3822888 62.7407858,7.54014139 61.4133333,2.00192308 Z" id="Path" fill="#002176"></path>
                        <path d="M40.16,65.3961538 C40.16,65.3961538 30.8266667,66.0234231 27.5333333,65.1559231 C25.6574884,64.7075896 24.0335912,63.537643 23.0133333,61.8994615 C23.4802648,63.6157226 24.3590834,65.1917865 25.5733333,66.4905385 C27.9733333,68.9061923 40.16,67.8251538 40.16,67.8251538 L40.16,65.3961538 Z" id="Path" fill="#F28F8F"></path>
                        <path d="M37.7733333,54.5457308 L42.0533333,54.9995 C41.6842348,56.3007515 40.4980484,57.1994163 39.1466667,57.2016154 C38.5668484,57.1047179 38.0665036,56.740092 37.796292,56.2175306 C37.5260804,55.6949693 37.5175737,55.0755291 37.7733333,54.5457308 Z" id="Path" fill="#F28F8F"></path>
                        <polygon id="Path" fill="#F28F8F" points="43.9466667 37.8363462 44.56 48.9670385 50.4533333 45.3769231"></polygon>
                        <path d="M37.9066667,41.7734615 C37.8661427,42.9091522 37.1116879,43.8946356 36.0266667,44.2291538 C35.5754326,44.3839167 35.0766521,44.3004166 34.7002852,44.0071063 C34.3239184,43.7137961 34.1207462,43.2502504 34.16,42.7744231 C34.1986153,41.6423152 34.9469063,40.6579014 36.0266667,40.3187308 C36.4791922,40.1655748 36.9782658,40.2492801 37.3561985,40.5417218 C37.7341312,40.8341635 37.9407635,41.2965284 37.9066667,41.7734615 L37.9066667,41.7734615 Z" id="Path" fill="#002176"></path>
                        <path d="M35.92,35.2205 L31.92,38.517 C31.3885489,37.2919742 31.776192,35.8618586 32.8533333,35.0736923 C33.2546316,34.6369312 33.8288248,34.4008742 34.4209668,34.4292213 C35.0131088,34.4575683 35.5621751,34.7473981 35.92,35.2205 Z" id="Path" fill="#002176"></path>
                        <path d="M54.6666667,31.7638462 L51.0133333,29.9354231 C51.6042552,28.7752932 52.9452632,28.2113027 54.1866667,28.6008077 C54.6865505,28.9434814 55.0219881,29.478398 55.1129759,30.0779772 C55.2039638,30.6775564 55.0423451,31.2880477 54.6666667,31.7638462 L54.6666667,31.7638462 Z" id="Path" fill="#002176"></path>
                        <path d="M53.5066667,37.0622692 C53.4605924,38.1929799 52.7072067,39.1717185 51.6266667,39.5046154 C51.1741412,39.6577714 50.6750675,39.574066 50.2971348,39.2816243 C49.9192021,38.9891827 49.7125699,38.5268178 49.7466667,38.0498846 C49.7927409,36.9191739 50.5461266,35.9404353 51.6266667,35.6075385 C52.0791922,35.4543825 52.5782658,35.5380878 52.9561985,35.8305295 C53.3341312,36.1229712 53.5407635,36.5853361 53.5066667,37.0622692 Z" id="Path" fill="#002176"></path>
                    </g>
                </g>
            </g>
        </g>
    </g>
</svg>