<?xml version="1.0" encoding="UTF-8"?>
<svg width="111px" height="71px" viewBox="0 0 111 71" version="1.1" xmlns="http://www.w3.org/2000/svg" xmlns:xlink="http://www.w3.org/1999/xlink">
    <!-- Generator: Sketch 57.1 (83088) - https://sketch.com -->
    <title>text-quotes-</title>
    <desc>Created with Sketch.</desc>
    <g id="Page-1" stroke="none" stroke-width="1" fill="none" fill-rule="evenodd" opacity="0.144740513">
        <g id="Desktop-HD" transform="translate(-350.000000, -3191.000000)" fill="#FFFFFF" fill-rule="nonzero">
            <g id="text-quotes-" transform="translate(405.500000, 3226.500000) scale(-1, 1) translate(-405.500000, -3226.500000) translate(350.000000, 3191.000000)">
                <path d="M85.8674699,0 C71.6554217,0 60.4337349,11.4444332 60.4337349,25.5597128 C60.4337349,39.6749924 72.1060241,51.1194256 86.3180723,51.1194256 C86.460241,51.1194256 86.6746988,51.1002798 86.8168675,51.0978865 C81.1975904,55.5421175 74.139759,58.2201436 66.4144578,58.2201436 C62.860241,58.2201436 60,61.0824485 60,64.6100718 C60,68.1376951 62.286747,71 65.8409639,71 C91.0674699,70.9976068 111,50.6144538 111,25.5597128 C111,25.5549263 111,25.5501399 111,25.5429602 C111,11.4348603 100.074699,0 85.8674699,0 Z" id="Path"></path>
                <path d="M25.8669498,0 C11.6750177,0 0.449964614,11.4444332 0.449964614,25.5597128 C0.449964614,39.6749924 12.0961076,51.1194256 26.2904459,51.1194256 C26.4324133,51.1194256 26.6417551,51.1002798 26.7837226,51.0978865 C21.1723992,55.5421175 14.1221515,58.2201436 6.40778485,58.2201436 C2.85859873,58.2201436 0,61.0824485 0,64.6100718 C0,68.1376951 2.31960368,71 5.86878981,71 C31.0595895,70.9976068 51,50.6144538 51,25.5597128 C51,25.5549263 51,25.5501399 51,25.5429602 C51,11.4348603 40.0540694,0 25.8669498,0 Z" id="Path"></path>
            </g>
        </g>
    </g>
</svg>