<?xml version="1.0" encoding="UTF-8"?>
<svg width="410px" height="412px" viewBox="0 0 410 412" version="1.1" xmlns="http://www.w3.org/2000/svg" xmlns:xlink="http://www.w3.org/1999/xlink">
    <!-- Generator: Sketch 57.1 (83088) - https://sketch.com -->
    <title>2794140</title>
    <desc>Created with Sketch.</desc>
    <g id="Page-1" stroke="none" stroke-width="1" fill="none" fill-rule="evenodd">
        <g id="Desktop-HD" transform="translate(-112.000000, -2607.000000)" fill-rule="nonzero">
            <g id="Group-10" transform="translate(95.000000, 1637.000000)">
                <g id="Group-8" transform="translate(17.000000, 969.000000)">
                    <g id="2794140">
                        <g id="Floor" transform="translate(0.000000, 216.000000)" fill="#F7FCFF">
                            <path d="M60.04,167.74 C140.1,205.9 269.9,205.9 349.96,167.74 C430.02,129.58 429.96,67.74 349.96,29.56 C269.96,-8.62 140.11,-8.59 60.05,29.56 C-20.01,67.71 -20.02,129.56 60.04,167.74 Z" id="SUELO"></path>
                        </g>
                        <g id="Shadows" transform="translate(17.000000, 223.000000)" fill="#D9EEFF">
                            <ellipse id="Shadow" cx="311.16" cy="69.65" rx="60.48" ry="28.82"></ellipse>
                            <path d="M204.73,31.35 C191.47,38.35 169.97,38.35 156.73,31.35 C143.49,24.35 143.47,13.05 156.73,6.07 C169.99,-0.91 191.49,-0.93 204.73,6.07 C217.97,13.07 217.99,24.37 204.73,31.35 Z" id="Shadow-2"></path>
                            <path d="M131.61,73.56 C118.35,80.56 96.85,80.56 83.61,73.56 C70.37,66.56 70.35,55.27 83.61,48.28 C96.87,41.29 118.37,41.28 131.61,48.28 C144.85,55.28 144.87,66.58 131.61,73.56 Z" id="Shadow-3"></path>
                            <path d="M58.5,115.74 C45.23,122.74 23.74,122.74 10.5,115.74 C-2.74,108.74 -2.76,97.44 10.5,90.46 C23.76,83.48 45.26,83.46 58.5,90.46 C71.74,97.46 71.76,108.8 58.5,115.74 Z" id="Shadow-4"></path>
                        </g>
                        <g id="Pots" transform="translate(16.000000, 9.000000)">
                            <g id="_Grupo_" transform="translate(0.000000, 214.000000)">
                                <g id="Pot" transform="translate(0.000000, 24.000000)">
                                    <path d="M66.49,31 L4.49,31 L10.91,75 L10.91,75 C11.4,78.22 13.77,81.37 18.04,83.83 C27.69,89.4 43.32,89.4 52.97,83.83 C57.56,81.18 59.97,77.74 60.16,74.26 L66.49,31 Z" id="_Trazado_" fill="#37474F"></path>
                                    <path d="M59.86,37.42 C46.4,45.19 24.57,45.19 11.11,37.42 C8.68851083,36.070134 6.51144526,34.3223966 4.67,32.25 L6.24,43.01 C7.96969644,44.915879 9.99576748,46.5299822 12.24,47.79 C25.07,55.19 45.86,55.19 58.69,47.79 C60.9362845,46.5248035 62.9625751,44.9037711 64.69,42.99 L66.26,32.27 C64.4252305,34.3278178 62.2627094,36.0679716 59.86,37.42 Z" id="_Trazado_2" fill="#263238"></path>
                                    <path d="M10.89,75.05 L10.89,75.05 C11.38,78.27 13.75,81.41 18.02,83.87 C24.92,87.87 34.86,88.97 43.5,87.27 C28,88.45 17.37,81.68 15.78,75.44 C14.19,69.2 12.15,38.6 12.15,38.6 L13.86,31.68 L13.38,31 L4.47,31 L10.89,75.05 Z" id="_Trazado_3" fill="#263238"></path>
                                    <path d="M69.67,23.1 C69.3146931,24.8306338 68.6103562,26.470684 67.6,27.92 C65.5712676,30.7898194 62.9092173,33.1541854 59.82,34.83 C46.36,42.6 24.53,42.6 11.07,34.83 C7.98078267,33.1541854 5.31873241,30.7898194 3.29,27.92 C2.28682779,26.4678575 1.5862451,24.82863 1.23,23.1 L1.23,23.1 C0.03,17.26 3.32,11.17 11.08,6.69 C24.54,-1.09 46.37,-1.09 59.83,6.69 C67.67,11.17 70.91,17.26 69.67,23.1 Z" id="_Trazado_4" fill="#455A64"></path>
                                    <path d="M67.67,27.92 C65.6412676,30.7898194 62.9792173,33.1541854 59.89,34.83 C46.43,42.6 24.6,42.6 11.14,34.83 C8.05078267,33.1541854 5.38873241,30.7898194 3.36,27.92 C2.35682779,26.4678575 1.6562451,24.82863 1.3,23.1 L1.3,23.1 L2.83,33.61 C3.53,37.84 6.68,41.96 12.3,45.2 C25.13,52.6 45.92,52.6 58.75,45.2 C64.29,42 67.44,37.93 68.19,33.76 L68.27,33.22 L69.67,23.1 C69.3359755,24.8253336 68.6556031,26.465031 67.67,27.92 L67.67,27.92 Z" id="_Trazado_5" fill="#37474F"></path>
                                    <path d="M55.8,9.03 C44.58,2.55 26.39,2.55 15.18,9.03 C8.83,12.7 6.08,17.65 6.91,22.43 C7.55,26.1 10.31,29.67 15.18,32.48 C26.39,38.96 44.58,38.96 55.8,32.48 C60.66,29.67 63.42,26.1 64.06,22.48 C64.9,17.65 62.15,12.74 55.8,9.03 Z" id="_Trazado_6" fill="#37474F"></path>
                                    <path d="M8.81,26.87 C10.4889642,29.1911286 12.6653094,31.1078156 15.18,32.48 C26.39,38.96 44.58,38.96 55.8,32.48 C58.3146906,31.1078156 60.4910358,29.1911286 62.17,26.87 C62.08,22.99 59.49,19.13 54.36,16.17 C43.94,10.17 27.03,10.17 16.62,16.17 C11.49,19.13 8.89,22.99 8.81,26.87 Z" id="_Trazado_7" fill="#E0E0E0"></path>
                                </g>
                                <g id="Flower" transform="translate(13.000000, 0.000000)">
                                    <g id="_Grupo_2">
                                        <path d="M21.4500422,17.4 C21.4500422,17.4 21.52,9.4 15.96,5.08 C10.4,0.76 3.3,0.22 1.77,1.58 C0.24,2.94 0.25,13.4 5.29,18.23 C10.33,23.06 19.72,22.15 21.4500422,17.4 Z" id="_Trazado_8" fill="#27DEBF"></path>
                                        <path d="M21.45,17.39 C14.75,7.01 1.77,1.57 1.77,1.57 C3.3,0.22 10.3,0.66 15.96,5.08 C21.38,9.3 21.45,17.01 21.45,17.39 Z" id="_Trazado_9" fill="#000000" opacity="0.1"></path>
                                    </g>
                                    <path d="M27.51,27.2 C26.51,15.2 23.58,8.03 22.51,8.03 C21.44,8.03 23.16,16.23 21.51,27.03 C20.41,34.03 18.2,41.03 17.66,43.92 C17.5277734,44.2356853 17.4862164,44.5819935 17.54,44.92 C17.7422076,45.6907337 18.2722046,46.3340404 18.99,46.68 C21.2253131,47.8099698 23.8646869,47.8099698 26.1,46.68 C26.8177954,46.3340404 27.3477924,45.6907337 27.55,44.92 C27.5649772,44.7737157 27.5649772,44.6262843 27.55,44.48 C28.0182266,38.7289495 28.0048467,32.9488212 27.51,27.2 L27.51,27.2 Z" id="_Trazado_10" fill="#27DEBF"></path>
                                    <path d="M27.51,27.2 C26.51,15.2 23.58,8.03 22.51,8.03 C21.44,8.03 23.16,16.23 21.51,27.03 C20.41,34.03 18.2,41.03 17.66,43.92 C17.5277734,44.2356853 17.4862164,44.5819935 17.54,44.92 C17.7422076,45.6907337 18.2722046,46.3340404 18.99,46.68 C21.2253131,47.8099698 23.8646869,47.8099698 26.1,46.68 C26.8177954,46.3340404 27.3477924,45.6907337 27.55,44.92 C27.5649772,44.7737157 27.5649772,44.6262843 27.55,44.48 C28.0182266,38.7289495 28.0048467,32.9488212 27.51,27.2 L27.51,27.2 Z" id="_Trazado_11" fill="#000000" opacity="0.1"></path>
                                </g>
                            </g>
                            <g id="_Grupo_3" transform="translate(74.000000, 126.000000)">
                                <g id="Pot-2" transform="translate(0.000000, 70.000000)">
                                    <path d="M65.6,30.79 L3.6,30.79 L10.01,74.79 L10.01,74.79 C10.5,78.01 12.87,81.15 17.14,83.62 C26.78,89.19 42.42,89.19 52.06,83.62 C56.66,80.97 59.06,77.53 59.25,74.05 L65.6,30.79 Z" id="_Trazado_12" fill="#37474F"></path>
                                    <path d="M58.98,37.21 C45.52,44.98 23.69,44.98 10.23,37.21 C7.80935926,35.8545168 5.62987989,34.1075543 3.78,32.04 L5.34,42.8 C7.07254729,44.7028363 9.0980961,46.3165235 11.34,47.58 C24.17,54.98 44.96,54.98 57.79,47.58 C60.0370176,46.3117768 62.0633516,44.6873324 63.79,42.77 L65.37,32.05 C63.539034,34.1105157 61.3799027,35.8540396 58.98,37.21 Z" id="_Trazado_13" fill="#263238"></path>
                                    <path d="M10,74.83 L10,74.83 C10.49,78.05 12.86,81.2 17.13,83.66 C24.02,87.66 33.97,88.76 42.6,87.05 C27.11,88.23 16.48,81.46 14.88,75.22 C13.28,68.98 11.26,38.38 11.26,38.38 L12.97,31.46 L12.49,30.79 L3.58,30.79 L10,74.83 Z" id="_Trazado_14" fill="#263238"></path>
                                    <path d="M68.83,22.89 C68.4746931,24.6206338 67.7703562,26.260684 66.76,27.71 C64.7312676,30.5798194 62.0692173,32.9441854 58.98,34.62 C45.52,42.39 23.69,42.39 10.23,34.62 C7.14078267,32.9441854 4.47873241,30.5798194 2.45,27.71 C1.44682779,26.2578575 0.746245097,24.61863 0.39,22.89 L0.39,22.89 C-0.81,17.05 2.48,10.96 10.24,6.48 C23.7,-1.3 45.53,-1.3 58.99,6.48 C66.74,10.96 70.03,17.05 68.83,22.89 Z" id="_Trazado_15" fill="#455A64"></path>
                                    <path d="M66.76,27.74 C64.7312676,30.6098194 62.0692173,32.9741854 58.98,34.65 C45.52,42.42 23.69,42.42 10.23,34.65 C7.14078267,32.9741854 4.47873241,30.6098194 2.45,27.74 C1.44682779,26.2878575 0.746245097,24.64863 0.39,22.92 L0.39,22.92 L1.92,33.43 C2.62,37.66 5.77,41.78 11.39,45.02 C24.22,52.42 45.01,52.42 57.84,45.02 C63.38,41.82 66.53,37.75 67.28,33.58 L67.36,33.04 L68.84,22.92 C68.4816576,24.6513964 67.7738959,26.291498 66.76,27.74 Z" id="_Trazado_16" fill="#37474F"></path>
                                    <path d="M54.92,8.82 C43.7,2.34 25.51,2.34 14.3,8.82 C7.95,12.49 5.2,17.44 6.03,22.22 C6.67,25.89 9.43,29.46 14.3,32.22 C25.51,38.7 43.7,38.7 54.92,32.22 C59.78,29.41 62.54,25.84 63.18,22.22 C64.02,17.44 61.27,12.49 54.92,8.82 Z" id="_Trazado_17" fill="#37474F"></path>
                                    <path d="M7.92,26.66 C9.60532007,28.9790833 11.7843929,30.8951646 14.3,32.27 C25.51,38.75 43.7,38.75 54.92,32.27 C57.4277911,30.8919319 59.5996791,28.9761627 61.28,26.66 C61.2,22.78 58.6,18.92 53.48,15.95 C43.05,9.95 26.15,9.95 15.74,15.95 C10.61,18.92 8.01,22.74 7.92,26.66 Z" id="_Trazado_18" fill="#E0E0E0"></path>
                                </g>
                                <g id="Flower-2" transform="translate(1.000000, 0.000000)">
                                    <g id="_Grupo_4" transform="translate(0.000000, 31.000000)">
                                        <path d="M38.58,58.96 L38.58,58.96 C34.44,44.8 36.58,30.44 36.58,20.44 C36.58,11.38 34.67,-0.07 33.43,0.05 C32.19,0.17 33.43,8.82 32.1,20.64 C31.55,25.39 27.23,46.08 28.65,59.64 L28.65,59.64 C28.845899,60.4139436 29.3778468,61.0596181 30.1,61.4 C32.3329839,62.5396985 34.9770161,62.5396985 37.21,61.4 C37.9277954,61.0540404 38.4577924,60.4107337 38.66,59.64 C38.6761125,59.4103245 38.6489762,59.1796651 38.58,58.96 L38.58,58.96 Z" id="_Trazado_19" fill="#27DEBF"></path>
                                        <path d="M38.58,58.96 L38.58,58.96 C34.44,44.8 36.58,30.44 36.58,20.44 C36.58,11.38 34.67,-0.07 33.43,0.05 C32.19,0.17 33.43,8.82 32.1,20.64 C31.55,25.39 27.23,46.08 28.65,59.64 L28.65,59.64 C28.845899,60.4139436 29.3778468,61.0596181 30.1,61.4 C32.3329839,62.5396985 34.9770161,62.5396985 37.21,61.4 C37.9277954,61.0540404 38.4577924,60.4107337 38.66,59.64 C38.6761125,59.4103245 38.6489762,59.1796651 38.58,58.96 L38.58,58.96 Z" id="_Trazado_20" fill="#000000" opacity="0.1"></path>
                                        <g id="_Grupo_5" transform="translate(37.000000, 16.000000)">
                                            <path d="M0.02,15.22 C0.0940387117,9.99353783 2.8570122,5.17439803 7.33,2.47 C15.66,-2.63 26.01,4.19 26.45,5.4 C26.89,6.61 24.97,11.87 20.99,14.58 C17.01,17.29 8.56,21.26 0.02,15.22 Z" id="_Trazado_21" fill="#27DEBF"></path>
                                            <path d="M26.45,5.4 C16.4420767,2.58129824 5.75947126,6.5503934 0.02,15.22 C0.0940387117,9.99353783 2.8570122,5.17439803 7.33,2.47 C15.67,-2.63 26.01,4.19 26.45,5.4 Z" id="_Trazado_22" fill="#000000" opacity="0.1"></path>
                                        </g>
                                        <g id="_Grupo_6" transform="translate(0.000000, 16.000000)">
                                            <path d="M30.05,11.74 C28.0081526,6.19529973 23.1557144,2.16686047 17.33,1.18 C7.4,-0.5 0.8,5.64 0.76,7.59 C0.72,9.54 1.68,9.99 5.4,12.94 C9.12,15.89 14.4,19.78 20.66,18.88 C25.8,18.17 28.44,14.93 30.05,11.74 Z" id="_Trazado_23" fill="#27DEBF"></path>
                                            <path d="M30.05,11.74 C28.0081526,6.19529973 23.1557144,2.16686047 17.33,1.18 C7.4,-0.5 0.8,5.64 0.76,7.59 C4.94,4.97 21.27,1.93 30.05,11.74 Z" id="_Trazado_24" fill="#000000" opacity="0.15"></path>
                                            <path d="M30.05,11.74 C21.26,1.89 4.94,4.95 0.76,7.6 C0.76,5.6 7.4,-0.5 17.33,1.18 C23.1539231,2.17076107 28.0046482,6.19777813 30.05,11.74 Z" id="_Trazado_25" fill="#27DEBF"></path>
                                            <path d="M30.05,11.74 C21.26,1.89 4.94,4.95 0.76,7.6 C0.76,5.6 7.4,-0.5 17.33,1.18 C23.1539231,2.17076107 28.0046482,6.19777813 30.05,11.74 Z" id="_Trazado_26" fill="#000000" opacity="0.1"></path>
                                        </g>
                                    </g>
                                    <g id="_Grupo_7" transform="translate(17.000000, 0.000000)">
                                        <path d="M28.44,5.41 L28.44,5.41 L21.74,1.54 L21.74,1.54 C19.47,0.25 16.36,0.45 12.92,2.43 C6.01,6.43 0.4,16.13 0.4,24.11 C0.4,28.11 1.8,30.89 4.05,32.2 L4.05,32.2 L10.75,36.07 L10.75,36.07 C13.01,37.36 16.13,37.17 19.57,35.18 C26.48,31.18 32.09,21.48 32.09,13.5 C32.09,9.52 30.67,6.74 28.44,5.41 Z" id="_Trazado_27" fill="#27DEBF"></path>
                                        <ellipse id="_Trazado_28" fill="#FFFFFF" opacity="0.4" transform="translate(19.574878, 20.733055) rotate(-60.000000) translate(-19.574878, -20.733055) " cx="19.5748778" cy="20.7330553" rx="17.7" ry="10.22"></ellipse>
                                        <path d="M28.42,5.39 L28.42,5.39 C26.15,4.08 23.02,4.27 19.57,6.26 C12.66,10.26 7.06,19.96 7.06,27.94 C7.06,31.83 8.39,34.59 10.56,35.94 L4.02,32.17 L4.02,32.17 C1.77,30.86 0.37,28.06 0.37,24.09 C0.37,16.09 5.98,6.4 12.89,2.41 C16.33,0.41 19.44,0.23 21.71,1.52 L21.71,1.52 L21.71,1.52 L28.42,5.39 Z" id="_Trazado_29" fill="#000000" opacity="0.1"></path>
                                        <path d="M32.09,13.5 C32.09,21.5 26.48,31.18 19.57,35.17 C17.8877378,36.217872 15.9605983,36.8073905 13.98,36.88 C13.7302398,36.8954851 13.4797602,36.8954851 13.23,36.88 C13.0407193,36.8444929 12.8537216,36.7977434 12.67,36.74 L12.67,36.74 C12.5879152,36.729527 12.5073562,36.7093873 12.43,36.68 C12.2395658,36.6453076 12.0522783,36.5951413 11.87,36.53 C11.6627243,36.460407 11.4591273,36.3803033 11.26,36.29 C11.1016343,36.2200393 10.9479778,36.1398707 10.8,36.05 L10.8,36.05 L10.8,36.05 L10.64,35.95 C8.47,34.6 7.14,31.84 7.14,27.95 C7.14,19.95 12.74,10.26 19.65,6.27 C23.1,4.27 26.23,4.09 28.5,5.4 L28.5,5.4 L28.83,5.61 C29.1341688,5.80506683 29.4158748,6.03311458 29.67,6.29 L29.88,6.5 C29.9713866,6.58942086 30.05502,6.68643559 30.13,6.79 C30.1986807,6.86208774 30.2621727,6.93894647 30.32,7.02 C30.43,7.17 30.54,7.32 30.64,7.48 C30.7072786,7.57544864 30.7674411,7.67571948 30.82,7.78 C30.8725837,7.859879 30.9193704,7.94342668 30.96,8.03 C31.0092869,8.11355986 31.0527242,8.2004346 31.09,8.29 C31.170083,8.43852687 31.2402366,8.59219679 31.3,8.75 C31.4223144,9.01808496 31.5226445,9.29566486 31.6,9.58 C31.6,9.69 31.67,9.8 31.7,9.91 C31.73,10.02 31.82,10.34 31.86,10.56 C31.9287055,10.8637939 31.9821062,11.1708475 32.02,11.48 C32.0619765,11.7549767 32.0886841,12.0320681 32.1,12.31 C32.1,12.44 32.1,12.57 32.1,12.71 C32.1,12.85 32.09,13.23 32.09,13.5 Z" id="_Trazado_30" fill="#27DEBF"></path>
                                        <g id="_Grupo_8" transform="translate(11.000000, 12.000000)" fill="#FFFFFF">
                                            <g id="_Grupo_9">
                                                <g id="_Grupo_10">
                                                    <path d="M8.58,17.17 L6.08,16.51 C3.7,15.88 0.86,14.51 0.86,11.43 C1.10317771,8.89318354 2.54044723,6.62400608 4.73,5.32 C5.45065902,4.8044614 6.39480391,4.72205331 7.19388084,5.10494434 C7.99295776,5.48783536 8.52027867,6.27532082 8.57,7.16 C8.82,5.16 10.44,2.02 12.41,0.89 C14.55,-0.35 16.28,0.39 16.28,2.52 C16.28,5.58 13.45,10.25 11.07,13.62 L8.58,17.17 Z" id="_Trazado_31"></path>
                                                </g>
                                            </g>
                                        </g>
                                    </g>
                                </g>
                            </g>
                            <g id="_Grupo_11" transform="translate(145.000000, 51.000000)">
                                <g id="Pot-3" transform="translate(2.000000, 103.000000)">
                                    <path d="M65.72,30.57 L3.67,30.57 L10.08,74.62 L10.08,74.62 C10.57,77.84 12.94,80.98 17.21,83.44 C26.85,89.01 42.49,89.01 52.13,83.44 C56.73,80.79 59.13,77.35 59.32,73.88 L65.72,30.57 Z" id="_Trazado_32" fill="#37474F"></path>
                                    <path d="M59.09,37 C45.63,44.77 23.8,44.77 10.34,37 C7.91935926,35.6445168 5.73987989,33.8975543 3.89,31.83 L5.46,42.58 C7.18916503,44.4891833 9.21523482,46.1066624 11.46,47.37 C24.29,54.77 45.08,54.77 57.91,47.37 C60.156423,46.100898 62.1826232,44.4765608 63.91,42.56 L65.48,31.84 C63.649034,33.9005157 61.4899027,35.6440396 59.09,37 Z" id="_Trazado_33" fill="#263238"></path>
                                    <path d="M10.12,74.62 L10.12,74.62 C10.61,77.84 12.98,80.98 17.25,83.45 C24.14,87.45 34.08,88.55 42.72,86.84 C27.23,88.02 16.59,81.25 15,75.01 C13.41,68.77 11.37,38.17 11.37,38.17 L13.09,31.25 L12.6,30.58 L3.67,30.58 L10.12,74.62 Z" id="_Trazado_34" fill="#263238"></path>
                                    <path d="M68.94,22.67 C68.5846931,24.4006338 67.8803562,26.040684 66.87,27.49 C64.8412676,30.3598194 62.1792173,32.7241854 59.09,34.4 C45.63,42.17 23.8,42.17 10.34,34.4 C7.25078267,32.7241854 4.58873241,30.3598194 2.56,27.49 C1.55682779,26.0378575 0.856245097,24.39863 0.5,22.67 L0.5,22.67 C-0.7,16.83 2.59,10.74 10.35,6.26 C23.81,-1.52 45.64,-1.52 59.1,6.26 C66.85,10.74 70.14,16.83 68.94,22.67 Z" id="_Trazado_35" fill="#455A64"></path>
                                    <path d="M66.87,27.49 C64.8412676,30.3598194 62.1792173,32.7241854 59.09,34.4 C45.63,42.17 23.8,42.17 10.34,34.4 C7.25078267,32.7241854 4.58873241,30.3598194 2.56,27.49 C1.55682779,26.0378575 0.856245097,24.39863 0.5,22.67 L0.5,22.67 L2.03,33.18 C2.73,37.41 5.88,41.53 11.5,44.77 C24.33,52.17 45.12,52.17 57.95,44.77 C63.49,41.57 66.64,37.5 67.39,33.33 L67.47,32.79 L68.95,22.67 C68.5916576,24.4013964 67.8838959,26.041498 66.87,27.49 L66.87,27.49 Z" id="_Trazado_36" fill="#37474F"></path>
                                    <path d="M55.03,8.6 C43.81,2.12 25.62,2.12 14.41,8.6 C8.06,12.27 5.31,17.22 6.14,22 C6.78,25.67 9.54,29.24 14.41,32.05 C25.62,38.53 43.81,38.53 55.03,32.05 C59.89,29.24 62.65,25.67 63.29,22.05 C64.13,17.22 61.38,12.27 55.03,8.6 Z" id="_Trazado_37" fill="#37474F"></path>
                                    <path d="M8.04,26.44 C9.7189642,28.7611286 11.8953094,30.6778156 14.41,32.05 C25.62,38.53 43.81,38.53 55.03,32.05 C57.5446906,30.6778156 59.7210358,28.7611286 61.4,26.44 C61.32,22.56 58.72,18.7 53.59,15.74 C43.17,9.74 26.27,9.74 15.85,15.74 C10.72,18.74 8.12,22.57 8.04,26.44 Z" id="_Trazado_38" fill="#E0E0E0"></path>
                                </g>
                                <g id="Flower-3">
                                    <g id="_Grupo_12" transform="translate(0.000000, 42.000000)">
                                        <g id="_Grupo_13" transform="translate(40.000000, 40.000000)">
                                            <path d="M0.17,15.36 C0.248774159,9.92822154 3.12115392,4.92045419 7.77,2.11 C16.43,-3.19 27.2,3.89 27.65,5.11 C28.1,6.33 26.11,11.84 21.98,14.66 C17.85,17.48 9.05,21.65 0.17,15.36 Z" id="_Trazado_39" fill="#27DEBF"></path>
                                            <path d="M27.67,5.15 C17.2621012,2.23100398 6.1591344,6.35473229 0.18,15.36 C0.261288024,9.92369642 3.13715562,4.91265774 7.79,2.1 C16.43,-3.2 27.19,3.89 27.67,5.15 Z" id="_Trazado_40" fill="#000000" opacity="0.1"></path>
                                        </g>
                                        <path d="M41.67,80.74 L41.67,80.74 C37.53,66.58 39,50.1 40.14,41.5 C42.14,26.22 41.35,17.81 40.14,12.58 C38.21,4.29 36.48,0.13 35.26,0.58 C34.04,1.03 34.71,5.26 35.49,13.28 C36.49,23.41 35.05,32.28 33.24,43.11 C31.59,53.05 30.24,67.91 31.7,81.49 L31.7,81.49 C31.8949695,82.2613242 32.4225574,82.9061538 33.14,83.25 C35.3787979,84.3801282 38.0212021,84.3801282 40.26,83.25 C40.9774426,82.9061538 41.5050305,82.2613242 41.7,81.49 C41.7473936,81.2409885 41.7371312,80.9844305 41.67,80.74 Z" id="_Trazado_41" fill="#27DEBF"></path>
                                        <path d="M41.67,80.74 L41.67,80.74 C37.53,66.58 39,50.1 40.14,41.5 C42.14,26.22 41.35,17.81 40.14,12.58 C38.21,4.29 36.48,0.13 35.26,0.58 C34.04,1.03 34.71,5.26 35.49,13.28 C36.49,23.41 35.05,32.28 33.24,43.11 C31.59,53.05 30.24,67.91 31.7,81.49 L31.7,81.49 C31.8949695,82.2613242 32.4225574,82.9061538 33.14,83.25 C35.3787979,84.3801282 38.0212021,84.3801282 40.26,83.25 C40.9774426,82.9061538 41.5050305,82.2613242 41.7,81.49 C41.7473936,81.2409885 41.7371312,80.9844305 41.67,80.74 Z" id="_Trazado_42" fill="#000000" opacity="0.1"></path>
                                        <g id="_Grupo_14" transform="translate(0.000000, 40.000000)">
                                            <path d="M31,11.97 C28.8830687,6.19914095 23.8395407,2.00255944 17.78,0.97 C7.45,-0.78 0.59,5.61 0.55,7.64 C0.51,9.67 1.55,10.13 5.37,13.2 C9.19,16.27 14.73,20.31 21.23,19.38 C26.58,18.62 29.33,15.26 31,11.97 Z" id="_Trazado_43" fill="#27DEBF"></path>
                                            <path d="M31,11.97 C28.8830687,6.19914095 23.8395407,2.00255944 17.78,0.97 C7.45,-0.78 0.59,5.61 0.55,7.64 C4.89,4.9 21.87,1.74 31,11.97 Z" id="_Trazado_44" fill="#000000" opacity="0.15"></path>
                                            <path d="M31,11.97 C21.87,1.74 4.9,4.91 0.55,7.67 C0.55,5.62 7.45,-0.76 17.78,0.99 C23.834813,2.01886402 28.8772472,6.20690694 31,11.97 Z" id="_Trazado_45" fill="#27DEBF"></path>
                                            <path d="M31,11.97 C21.87,1.74 4.9,4.91 0.55,7.67 C0.55,5.62 7.45,-0.76 17.78,0.99 C23.834813,2.01886402 28.8772472,6.20690694 31,11.97 Z" id="_Trazado_46" fill="#000000" opacity="0.1"></path>
                                        </g>
                                        <g id="_Grupo_15" transform="translate(42.000000, 18.000000)">
                                            <path d="M0.25,10.65 C1.23186968,6.33458686 4.44783573,2.8744668 8.68,1.58 C15.91,-0.64 21.41,3.29 21.63,4.74 C21.85,6.19 21.55,7.08 19.07,9.63 C16.59,12.18 13.17,14.73 8.43,14.63 C5.21322404,14.7363388 2.15160534,13.2467003 0.25,10.65 L0.25,10.65 Z" id="_Trazado_47" fill="#27DEBF"></path>
                                            <path d="M0.25,10.65 C1.23186968,6.33458686 4.44783573,2.8744668 8.68,1.58 C15.91,-0.64 21.41,3.29 21.63,4.74 C18.26,3.17 5.82,2.49 0.25,10.65 Z" id="_Trazado_48" fill="#000000" opacity="0.15"></path>
                                            <path d="M0.25,10.65 C5.83,2.49 18.25,3.18 21.62,4.74 C21.41,3.29 15.9,-0.64 8.68,1.57 C4.44749178,2.86986822 1.23248776,6.33276697 0.25,10.65 L0.25,10.65 Z" id="_Trazado_49" fill="#27DEBF"></path>
                                            <path d="M0.25,10.65 C5.83,2.49 18.25,3.18 21.62,4.74 C21.41,3.29 15.9,-0.64 8.68,1.57 C4.44749178,2.86986822 1.23248776,6.33276697 0.25,10.65 L0.25,10.65 Z" id="_Trazado_50" fill="#000000" opacity="0.1"></path>
                                        </g>
                                        <g id="_Grupo_16" transform="translate(13.000000, 15.000000)">
                                            <path d="M21.67,11.74 C21.67,11.74 19.88,4.83 14.08,2.37 C8.28,-0.09 2.03,1.11 1.02,2.64 C0.01,4.17 2.54,11.1 8.23,13.64 C15.23,16.74 21.13,13.55 21.67,11.74 Z" id="_Trazado_51" fill="#27DEBF"></path>
                                            <path d="M21.67,11.74 C13.48,4.33 1.02,2.64 1.02,2.64 C2.02,1.12 8.17,-0.12 14.08,2.39 C19.67,4.74 21.54,11.37 21.67,11.74 Z" id="_Trazado_52" fill="#000000" opacity="0.1"></path>
                                        </g>
                                    </g>
                                    <g id="_Grupo_17" transform="translate(15.000000, 0.000000)">
                                        <path d="M37.18,6.74 L37.18,6.74 L37.18,6.74 L37.18,6.74 L28.49,1.74 L28.49,1.74 L28.49,1.74 L28.49,1.74 C25.56,0.07 21.49,0.33 17.06,2.9 C8.06,8.07 0.84,20.65 0.84,30.99 C0.84,36.15 2.65,39.78 5.57,41.48 L5.57,41.48 L14.26,46.48 L14.26,46.48 L14.26,46.48 L14.26,46.48 C17.2,48.16 21.26,47.9 25.7,45.33 C34.7,40.16 41.92,27.58 41.92,17.23 C41.9,12.09 40.09,8.46 37.18,6.74 Z" id="_Trazado_53" fill="#27DEBF"></path>
                                        <ellipse id="_Trazado_54" fill="#FFFFFF" opacity="0.4" transform="translate(25.680202, 26.611913) rotate(-60.000000) translate(-25.680202, -26.611913) " cx="25.6802019" cy="26.6119126" rx="22.94" ry="13.24"></ellipse>
                                        <path d="M36.97,6.64 C34.05,5.05 30.07,5.34 25.68,7.87 C16.68,13.05 9.46,25.63 9.46,35.97 C9.46,40.97 11.19,44.59 13.99,46.34 L5.53,41.45 L5.53,41.45 L5.53,41.45 C2.61,39.75 0.8,36.13 0.8,30.97 C0.8,20.63 8.06,8.05 17.02,2.88 C19.1966714,1.51741084 21.6936548,0.751761239 24.26,0.66 C25.7257124,0.637590918 27.1712716,1.00329324 28.45,1.72 L28.45,1.72 L28.45,1.72 L36.97,6.64 Z" id="_Trazado_55" fill="#000000" opacity="0.1"></path>
                                        <path d="M41.9,17.24 C41.9,27.58 34.64,40.16 25.68,45.33 C23.4998262,46.6929697 20.9995303,47.4585775 18.43,47.55 L17.86,47.55 C17.6734759,47.5603169 17.4865241,47.5603169 17.3,47.55 L16.85,47.48 C15.8357507,47.3142323 14.8639883,46.9506708 13.99,46.41 C11.19,44.66 9.46,41.08 9.46,36.04 C9.46,25.7 16.72,13.12 25.68,7.94 C30.07,5.41 34.05,5.12 36.97,6.71 L37.15,6.81 L37.15,6.81 C37.5050869,7.02204253 37.8398407,7.26641276 38.15,7.54 C38.3092038,7.66260447 38.4595758,7.79626844 38.6,7.94 C38.8640246,8.19060803 39.1080982,8.46142948 39.33,8.75 C39.43,8.87 39.53,9 39.62,9.13 C39.71,9.26 39.81,9.39 39.9,9.53 C40.0830789,9.80842752 40.2467983,10.0991129 40.39,10.4 C40.5512955,10.7082255 40.6948625,11.0254082 40.82,11.35 L41,11.83 C41,11.83 41,11.83 41,11.88 L41.15,12.38 C41.21,12.56 41.26,12.75 41.31,12.93 C41.36,13.11 41.43,13.45 41.48,13.71 L41.48,13.71 C41.5387479,13.9739321 41.582154,14.2410464 41.61,14.51 C41.6633333,14.8233333 41.7033333,15.1566667 41.73,15.51 C41.73,15.75 41.73,16 41.78,16.26 C41.83,16.52 41.9,16.88 41.9,17.24 Z" id="_Trazado_56" fill="#27DEBF"></path>
                                        <g id="_Grupo_18" transform="translate(15.000000, 15.000000)" fill="#FFFFFF">
                                            <g id="_Grupo_19">
                                                <g id="_Grupo_20">
                                                    <path d="M10.67,22.55 L7.44,21.69 C4.35,20.87 0.66,19.07 0.66,15.11 C0.66,12.34 2.91,8.79 5.66,7.19 C6.59531475,6.50912075 7.82859806,6.39573691 8.87238023,6.89466479 C9.9161624,7.39359267 10.6024578,8.4245351 10.66,9.58 C10.98,6.93 13.09,2.92 15.66,1.45 C18.43,-0.15 20.66,0.8 20.66,3.57 C20.66,7.57 16.99,13.57 13.91,17.95 L10.67,22.55 Z" id="_Trazado_57"></path>
                                                </g>
                                            </g>
                                        </g>
                                    </g>
                                </g>
                            </g>
                            <g id="_Grupo_21" transform="translate(19.000000, 161.000000)" fill="#455A64">
                                <path d="M10.18,13.58 L10.18,30.47 L13.39,28.62 C14.02,28.26 14.29,28.55 14.29,29.62 L14.29,30.13 C14.4148635,30.9163829 14.0613707,31.7019225 13.39,32.13 L1.76,38.85 C1.13,39.21 0.86,38.92 0.86,37.85 L0.86,37.34 C0.735136466,36.5536171 1.08862929,35.7680775 1.76,35.34 L5.76,33.03 L5.76,19.57 L1.67,22.52 C0.9,22.97 0.67,21.39 0.67,20.52 C0.713900639,19.9890637 1.00702488,19.5104178 1.46,19.23 L8.92,13.53 C9.43,13.3 10.18,13.22 10.18,13.58 Z" id="_Trazado_compuesto_"></path>
                                <path d="M32.59,0.43 C32.5660261,0.700884415 32.4841824,0.963466307 32.35,1.2 L26.56,13.43 L33.13,19.71 C33.2758947,19.8318869 33.3631407,20.0100142 33.37,20.2 C33.37,20.47 32.86,20.95 31.69,21.62 L29.95,22.62 C29.08,23.12 28.39,23.4 28.12,23.1 L22.48,17.24 L22.36,17.34 L22.36,26.04 C22.36,26.67 21.82,27.31 20.56,28.04 L19.56,28.64 C18.3,29.37 17.76,29.35 17.76,28.72 L17.76,9.52 C17.76,8.89 18.3,8.25 19.56,7.52 L20.56,6.91 C21.82,6.18 22.36,6.2 22.36,6.83 L22.36,14.83 L22.48,14.83 L27.67,3.38 C28.0932971,2.6735853 28.720933,2.11219983 29.47,1.77 L30.88,0.95 C32.08,0.28 32.59,0.17 32.59,0.43 Z" id="_Trazado_compuesto_2"></path>
                            </g>
                            <g id="_Grupo_22" transform="translate(92.000000, 80.000000)" fill="#455A64">
                                <path d="M13.36,12.52 L13.36,13.33 C13.4346314,14.0324293 13.0796421,14.7108533 12.46,15.05 L6.4,18.55 L6.1,23.01 L6.88,22.56 C11.41,19.95 14.41,19.77 14.41,24.93 C14.41,30.09 10.36,33.99 6.73,36.09 C3.34,38.09 0.85,38.52 0.85,37.32 C0.85,36.78 1.78,34.41 2.47,34.02 C3.95591239,33.8073946 5.38988569,33.3226235 6.7,32.59 C8.5715495,31.6304492 9.79348266,29.7499664 9.91,27.65 C9.91,25.55 8.91,24.89 6.16,26.49 L2.89,28.37 C2.02,28.88 1.78,28.65 1.78,27.81 L2.35,18.58 C2.36298399,17.7476108 2.85317037,16.9967698 3.61,16.65 L12.46,11.54 C13.09,11.18 13.36,11.47 13.36,12.52 Z" id="_Trazado_compuesto_3"></path>
                                <path d="M32.67,0.24 C32.6431198,0.510301562 32.5614596,0.772294618 32.43,1.01 L26.67,13.23 L33.24,19.52 C33.387998,19.6402254 33.4757428,19.819371 33.48,20.01 C33.48,20.28 32.97,20.75 31.8,21.43 L30.06,22.43 C29.19,22.93 28.5,23.21 28.23,22.92 L22.59,17.05 L22.47,17.15 L22.47,25.85 C22.47,26.48 21.93,27.12 20.67,27.85 L19.67,28.46 C18.41,29.19 17.87,29.17 17.87,28.54 L17.87,9.34 C17.87,8.71 18.41,8.07 19.67,7.34 L20.67,6.73 C21.93,6.01 22.47,6.02 22.47,6.65 L22.47,14.65 L22.59,14.65 L27.81,3.18 C28.2332971,2.4735853 28.860933,1.91219983 29.61,1.57 L31.02,0.76 C32.2,0.08 32.67,-0.03 32.67,0.24 Z" id="_Trazado_compuesto_4"></path>
                            </g>
                            <g id="_Grupo_23" transform="translate(157.000000, 0.000000)" fill="#455A64">
                                <path d="M10.39,22.97 L10.39,39.86 L13.6,38.01 C14.23,37.64 14.5,37.94 14.5,39.01 L14.5,39.52 C14.6248635,40.3063829 14.2713707,41.0919225 13.6,41.52 L1.96,48.24 C1.33,48.6 1.06,48.31 1.06,47.24 L1.06,46.74 C0.935136466,45.9536171 1.28862929,45.1680775 1.96,44.74 L5.96,42.43 L5.96,28.96 L1.88,31.96 C1.1,32.41 0.88,30.83 0.88,29.96 C0.923195398,29.4314348 1.21199857,28.9537988 1.66,28.67 L9.13,22.98 C9.67,22.68 10.39,22.61 10.39,22.97 Z" id="_Trazado_compuesto_5"></path>
                                <path d="M30.97,20.99 C30.97,27.74 28.3,33.27 23.86,35.83 C19.42,38.39 16.75,35.95 16.75,29.2 C16.75,22.45 19.42,16.92 23.86,14.36 C28.3,11.8 30.97,14.24 30.97,20.99 Z M21.25,26.6 C21.25,31.37 22.18,33.3 23.86,32.32 C25.54,31.34 26.47,28.32 26.47,23.59 C26.47,18.86 25.54,16.89 23.86,17.87 C22.18,18.85 21.25,21.83 21.25,26.6 Z" id="_Trazado_compuesto_6"></path>
                                <path d="M48.85,0.56 C48.8231198,0.830301562 48.7414596,1.09229462 48.61,1.33 L42.82,13.55 L49.39,19.84 C49.537998,19.9602254 49.6257428,20.139371 49.63,20.33 C49.63,20.6 49.12,21.07 47.95,21.75 L46.21,22.75 C45.34,23.25 44.65,23.53 44.38,23.24 L38.74,17.37 L38.62,17.47 L38.62,26.17 C38.62,26.8 38.08,27.44 36.82,28.17 L35.82,28.78 C34.56,29.5 34.02,29.49 34.02,28.86 L34.02,9.66 C34.02,9.03 34.56,8.39 35.82,7.66 L36.82,7.05 C38.08,6.32 38.62,6.34 38.62,6.97 L38.62,14.97 L38.74,14.97 L43.96,3.5 C44.3832971,2.7935853 45.010933,2.23219983 45.76,1.89 L47.17,1.08 C48.34,0.4 48.85,0.29 48.85,0.56 Z" id="_Trazado_compuesto_7"></path>
                            </g>
                        </g>
                        <g id="Character" transform="translate(211.000000, 0.000000)">
                            <g id="Character-2">
                                <path d="M111.67,99.05 C111.79,104.46 107.83,110.14 102.39,119.8 C98.59,126.55 94.83,131.34 89.92,138.36 C88.71,140.09 87.83,141.43 85.47,144.73 C84.5798907,146.149935 83.4847135,147.43045 82.22,148.53 C80.5694155,149.783577 78.7475228,150.793869 76.81,151.53 C74.3597146,152.488882 71.6960647,152.768721 69.1,152.34 C68.0513769,152.175698 67.03748,151.837732 66.1,151.34 C70.4898008,150.547365 74.6334413,148.739231 78.2,146.06 C82.11,142.94 83.55,139.34 82.71,136.16 L82.71,136.16 L82.17,134.05 L82.17,134.05 L82.34,133.83 C82.39,133.75 82.47,133.65 82.56,133.53 L82.98,132.92 C83.12,132.72 83.27,132.48 83.43,132.22 L83.94,131.35 C85.4882284,128.618461 86.6143033,125.668414 87.28,122.6 C87.4,122.04 87.5,121.46 87.58,120.85 C88.38,119.06 89.19,117.23 90,115.51 C92.5653561,110.071159 94.5367515,104.371546 95.88,98.51 C95.88,98.51 89.42,74.24 90.44,68.65 C91.71,61.65 96.96,60.31 101.58,60.04 L103.71,62.57 C106.05,69.85 111.29,81.55 111.67,99.05 Z" id="_Trazado_58" fill="#F28F8F"></path>
                                <g id="_Grupo_24" transform="translate(18.000000, 100.000000)">
                                    <g id="_Grupo_25" transform="translate(53.000000, 2.000000)">
                                        <g id="_Grupo_26" fill="#27DEBF">
                                            <path d="M11.25,32.1 L8.48,29.84 C10.6260249,26.8685316 12.121851,23.4782196 12.87,19.89 C14.26,13.52 12.38,5.2 9.28,3.98 C5.99,2.7 2.45,5.72 2.41,5.75 L0.04,3.08 C0.25,2.89 5.23,-1.44 10.58,0.66 C16.37,2.93 17.84,13.83 16.36,20.66 C15.4996581,24.7965949 13.7566406,28.698771 11.25,32.1 L11.25,32.1 Z" id="_Trazado_59"></path>
                                        </g>
                                        <g id="_Grupo_27" fill="#000000" opacity="0.1">
                                            <path d="M11.67,23.86 C10.8965261,26.0030823 9.8188251,28.0237716 8.47,29.86 L11.24,32.12 C11.8940604,31.2636641 12.4855909,30.3613295 13.01,29.42 C12.67,27.85 12.19,25.93 11.67,23.86 Z" id="_Trazado_60"></path>
                                            <path d="M4.22,0.74 C2.69676089,1.28422275 1.28167169,2.09332878 0.04,3.13 L2.41,5.8 C3.57638604,4.84165945 4.94349594,4.1581045 6.41,3.8 C5.8611772,2.66178339 5.12033979,1.62664072 4.22,0.74 Z" id="_Trazado_61"></path>
                                        </g>
                                    </g>
                                    <path d="M64.73,36.17 L64.73,36.17 L57.25,7.17 L57.25,7.17 C56.66,4.86 54.65,2.81 51.25,1.49 C43.95,-1.37 33.05,0.27 26.91,5.17 C24.08,7.43 22.78,9.98 22.91,12.36 L22.91,12.36 L24.32,42.22 L24.32,42.22 C24.46,45.5 26.91,48.51 31.56,50.33 C40.16,53.7 52.99,51.76 60.21,46 C64.13,42.94 65.57,39.35 64.73,36.17 Z" id="_Trazado_62" fill="#27DEBF"></path>
                                    <path d="M50.18,14.31 C45.54,18.02 37.31,19.31 31.77,17.1 C26.23,14.89 25.53,10.17 30.17,6.47 C34.81,2.77 43.05,1.53 48.58,3.69 C54.11,5.85 54.82,10.62 50.18,14.31 Z" id="_Trazado_63" fill="#000000" opacity="0.1"></path>
                                    <path d="M33.67,49.21 C36.7798987,46.2888221 37.5941006,41.6682262 35.67,37.86 C35.67,37.86 38.48,41.4 37.3,44.95 C36.12,48.5 33.67,49.21 33.67,49.21 Z" id="_Trazado_64" fill="#000000" opacity="0.2"></path>
                                    <path d="M51.28,1.53 C43.98,-1.33 33.08,0.31 26.94,5.21 C20.8,10.11 21.76,16.4 29.06,19.26 C36.36,22.12 47.27,20.48 53.41,15.58 C59.55,10.68 58.6,4.39 51.28,1.53 Z M50.18,14.31 C45.54,18.02 37.31,19.31 31.77,17.1 C26.23,14.89 25.53,10.17 30.17,6.47 C34.81,2.77 43.05,1.53 48.58,3.69 C54.11,5.85 54.82,10.62 50.18,14.31 Z" id="_Trazado_compuesto_8" fill="#FFFFFF" opacity="0.4"></path>
                                    <g id="_Grupo_28" transform="translate(0.000000, 25.000000)">
                                        <path d="M33.42,10.51 C33.42,10.51 31.75,9.22 24,7.98 C21.64,7.61 18,7.24 16.65,6.87 C15.3,6.5 14.8,4.8 13.6,3.46 C12.4286415,2.21560015 10.8969491,1.36932266 9.22,1.04 L6.22,16.6 C7.97149078,16.9931483 9.80327261,16.8071628 11.44,16.07 C14.35,14.94 15.44,14.45 16.53,14.97 C17.7163318,15.5916855 18.8213592,16.3574796 19.82,17.25 C22.94,20.11 27.33,23.74 31.54,25.39 C37,23.63 39,14.2 33.42,10.51 Z" id="_Trazado_65" fill="#27DEBF"></path>
                                        <ellipse id="_Trazado_66" fill="#27DEBF" transform="translate(7.558602, 8.775625) rotate(-82.630000) translate(-7.558602, -8.775625) " cx="7.5586015" cy="8.775625" rx="7.95" ry="5.61"></ellipse>
                                        <path d="M36.73,17.01 C36.73,20.64 34.73,24.35 31.57,25.39 C27.36,23.74 22.97,20.11 19.85,17.26 C18.8523658,16.3634078 17.7472412,15.5941874 16.56,14.97 C15.46,14.45 14.38,14.97 11.47,16.07 C9.84554215,16.7855634 8.03864401,16.9777866 6.3,16.62 C7.99678913,16.8684665 9.69809633,16.1986006 10.77,14.86 C11.7033385,13.8211687 12.3873622,12.5830858 12.77,11.24 C13.7008305,11.5560545 14.663079,11.7706326 15.64,11.88 C18.31,12.28 20.54,14.43 23.64,16.66 C26.74,18.89 30.16,21.51 33.16,20.92 C35.1428121,20.6588431 36.6498041,19.0083281 36.73,17.01 L36.73,17.01 Z" id="_Trazado_67" fill="#000000" opacity="0.1"></path>
                                        <ellipse id="_Trazado_68" fill="#000000" opacity="0.05" transform="translate(7.558602, 8.775625) rotate(-82.630000) translate(-7.558602, -8.775625) " cx="7.5586015" cy="8.775625" rx="7.95" ry="5.61"></ellipse>
                                        <g id="_Grupo_29" opacity="0.1" transform="translate(3.000000, 2.000000)" fill="#000000">
                                            <path d="M5.67,2.74 C6.04423253,2.30028441 6.12638267,1.68220242 5.88,1.16 C5.79028579,0.944685891 5.59207829,0.793951344 5.36062258,0.76501938 C5.12916687,0.736087416 4.89995417,0.833394439 4.76,1.02 C4.38576747,1.45971559 4.30361733,2.07779758 4.55,2.6 C4.63971421,2.81531411 4.83792171,2.96604866 5.06937742,2.99498062 C5.30083313,3.02391258 5.53004583,2.92660556 5.67,2.74 Z" id="_Trazado_69"></path>
                                            <path d="M5.18,6.02 C5.55090156,5.57819496 5.62911757,4.96028848 5.38,4.44 C5.29340863,4.22435581 5.09673206,4.07259145 4.86617859,4.04351264 C4.63562512,4.01443382 4.4074245,4.11261007 4.27,4.3 C3.89576747,4.73971559 3.81361733,5.35779758 4.06,5.88 C4.14466097,6.10039331 4.34378338,6.25627689 4.5780549,6.28556083 C4.81232641,6.31484477 5.04369332,6.21277236 5.18,6.02 Z" id="_Trazado_70"></path>
                                            <path d="M4.67,9.28 C5.04026815,8.83402168 5.11828549,8.21378381 4.87,7.69 C4.78340863,7.47435581 4.58673206,7.32259145 4.35617859,7.29351264 C4.12562512,7.26443382 3.8974245,7.36261007 3.76,7.55 C3.38576747,7.98971559 3.30361733,8.60779758 3.55,9.13 C3.63756256,9.34669796 3.83472374,9.49970261 4.06637579,9.53072744 C4.29802783,9.56175227 4.52850197,9.46602021 4.67,9.28 Z" id="_Trazado_71"></path>
                                            <path d="M4.24,12.53 C4.60560454,12.0820118 4.68326941,11.4645761 4.44,10.94 C4.35340863,10.7243558 4.15673206,10.5725915 3.92617859,10.5435126 C3.69562512,10.5144338 3.4674245,10.6126101 3.33,10.8 C2.95576747,11.2397156 2.87361733,11.8577976 3.12,12.38 C3.20756256,12.596698 3.40472374,12.7497026 3.63637579,12.7807274 C3.86802783,12.8117523 4.09850197,12.7160202 4.24,12.53 L4.24,12.53 Z" id="_Trazado_72"></path>
                                            <path d="M7.92,4.67 C8.28615322,4.22613124 8.36400478,3.61110395 8.12,3.09 C8.03243744,2.87330204 7.83527626,2.72029739 7.60362421,2.68927256 C7.37197217,2.65824773 7.14149803,2.75397979 7,2.94 C6.63384678,3.38386876 6.55599522,3.99889605 6.8,4.52 C6.88756256,4.73669796 7.08472374,4.88970261 7.31637579,4.92072744 C7.54802783,4.95175227 7.77850197,4.85602021 7.92,4.67 L7.92,4.67 Z" id="_Trazado_73"></path>
                                            <path d="M2.96,4.09 C3.33423253,3.65028441 3.41638267,3.03220242 3.17,2.51 C3.08243744,2.29330204 2.88527626,2.14029739 2.65362421,2.10927256 C2.42197217,2.07824773 2.19149803,2.17397979 2.05,2.36 C1.67418184,2.79964252 1.59558207,3.42058076 1.85,3.94 C1.93439943,4.15702473 2.13001385,4.31108346 2.36077468,4.34226735 C2.59153551,4.37345125 2.82102441,4.27683891 2.96,4.09 Z" id="_Trazado_74"></path>
                                            <path d="M7.37,7.95 C7.74423253,7.51028441 7.82638267,6.89220242 7.58,6.37 C7.49243744,6.15330204 7.29527626,6.00029739 7.06362421,5.96927256 C6.83197217,5.93824773 6.60149803,6.03397979 6.46,6.22 C6.08576747,6.65971559 6.00361733,7.27779758 6.25,7.8 C6.33756256,8.01669796 6.53472374,8.16970261 6.76637579,8.20072744 C6.99802783,8.23175227 7.22850197,8.13602021 7.37,7.95 L7.37,7.95 Z" id="_Trazado_75"></path>
                                            <path d="M2.42,7.37 C2.78615322,6.92613124 2.86400478,6.31110395 2.62,5.79 C2.53243744,5.57330204 2.33527626,5.42029739 2.10362421,5.38927256 C1.87197217,5.35824773 1.64149803,5.45397979 1.5,5.64 C1.13384678,6.08386876 1.05599522,6.69889605 1.3,7.22 C1.38756256,7.43669796 1.58472374,7.58970261 1.81637579,7.62072744 C2.04802783,7.65175227 2.27850197,7.55602021 2.42,7.37 L2.42,7.37 Z" id="_Trazado_76"></path>
                                            <path d="M6.83,11.23 C7.19560454,10.7820118 7.27326941,10.1645761 7.03,9.64 C6.94028579,9.42468589 6.74207829,9.27395134 6.51062258,9.24501938 C6.27916687,9.21608742 6.04995417,9.31339444 5.91,9.5 C5.54384678,9.94386876 5.46599522,10.5588961 5.71,11.08 C5.79756256,11.296698 5.99472374,11.4497026 6.22637579,11.4807274 C6.45802783,11.5117523 6.68850197,11.4160202 6.83,11.23 L6.83,11.23 Z" id="_Trazado_77"></path>
                                            <path d="M1.87,10.65 C2.24359921,10.206091 2.32553999,9.58568215 2.08,9.06 C1.99028579,8.84468589 1.79207829,8.69395134 1.56062258,8.66501938 C1.32916687,8.63608742 1.09995417,8.73339444 0.96,8.92 C0.585767466,9.35971559 0.503617328,9.97779758 0.75,10.5 C0.837562562,10.716698 1.03472374,10.8697026 1.26637579,10.9007274 C1.49802783,10.9317523 1.72850197,10.8360202 1.87,10.65 L1.87,10.65 Z" id="_Trazado_78"></path>
                                        </g>
                                    </g>
                                </g>
                                <path d="M22.67,134 L22.67,134 C22.19901,133.942035 21.7244075,133.918639 21.25,133.93 C20.9801895,133.911393 20.7639456,133.699389 20.74,133.43 C20.7373121,133.29832 20.7877479,133.171102 20.8799337,133.077035 C20.9721194,132.982968 21.0982926,132.929973 21.23,132.93 C21.7512738,132.917256 22.2727644,132.943999 22.79,133.01 C23.0661424,133.026569 23.2765685,133.263858 23.26,133.54 C23.2434315,133.816142 23.0061424,134.026569 22.73,134.01 L22.67,134 Z" id="_Trazado_79" fill="#FAFAFA"></path>
                                <path d="M2.17,176.020021 L2.06,176.020021 C1.93016032,175.991589 1.81743227,175.911652 1.74766839,175.798521 C1.67790451,175.685391 1.65709059,175.548773 1.69,175.42 L2.38,172.42 C2.40864044,172.289741 2.48813508,172.176322 2.60080925,172.104962 C2.71348342,172.033602 2.84999777,172.010214 2.98,172.04 C3.24799243,172.104452 3.41628269,172.370174 3.36,172.64 L2.66,175.64 C2.60441399,175.864881 2.40163951,176.022135 2.17,176.020021 Z M4.03,168.02 L3.91,168.02 C3.6426828,167.95574 3.47739818,167.68771 3.54,167.42 L4.23,164.42 C4.29886523,164.156054 4.5632339,163.993026 4.83,164.05 C4.96025931,164.07864 5.07367772,164.158135 5.14503802,164.270809 C5.21639833,164.383483 5.23978562,164.519998 5.21,164.65 L4.51,167.65 C4.46740293,167.883162 4.26695414,168.054378 4.03,168.06 L4.03,168.02 Z M5.87,160.02 L5.76,160.02 C5.63016032,159.991589 5.51743227,159.911652 5.44766839,159.798521 C5.37790451,159.685391 5.35709059,159.548773 5.39,159.42 L6.08,156.42 C6.11929918,156.241367 6.25091262,156.09727 6.42526278,156.041987 C6.59961295,155.986705 6.7902119,156.028637 6.92526284,156.151987 C7.06031379,156.275338 7.11929926,156.461367 7.08,156.64 L6.39,159.64 C6.38228265,159.770046 6.32309677,159.891665 6.22552173,159.977981 C6.1279467,160.064297 6.00001572,160.108205 5.87,160.1 L5.87,160.02 Z M7.72,152.02 L7.6,152.02 C7.3326828,151.95574 7.16739818,151.68771 7.23,151.42 L7.66,149.54 C7.74666667,149.16 7.83666667,148.79 7.93,148.43 C7.99903559,148.153858 8.27885763,147.985964 8.555,148.055 C8.83114237,148.124036 8.99903559,148.403858 8.93,148.68 C8.84,149.03 8.75,149.4 8.67,149.77 L8.23,151.65 C8.23002687,151.784359 8.17597796,151.913075 8.08003572,152.007136 C7.98409347,152.101197 7.85433231,152.152687 7.72,152.15 L7.72,152.02 Z M9.93,144.17 C9.8703787,144.179533 9.8096213,144.179533 9.75,144.17 C9.49312982,144.067754 9.36450438,143.779455 9.46,143.52 C9.85,142.52 10.28,141.52 10.72,140.67 C10.8483526,140.428587 11.1468141,140.33504 11.39,140.46 C11.5097251,140.517882 11.6007827,140.621939 11.6422694,140.748285 C11.683756,140.87463 11.6721083,141.012412 11.61,141.13 C11.1583096,142.024619 10.7544084,142.942577 10.4,143.88 C10.3589535,144.111645 10.1647844,144.285157 9.93,144.3 L9.93,144.17 Z M14.02,137.17 C13.8932013,137.167233 13.7719829,137.11732 13.68,137.03 C13.5859359,136.937836 13.5329286,136.81169 13.5329286,136.68 C13.5329286,136.54831 13.5859359,136.422164 13.68,136.33 C14.4037167,135.556946 15.2277079,134.8843 16.13,134.33 C16.3655669,134.188872 16.6705842,134.259601 16.82,134.49 C16.8896327,134.603872 16.9108455,134.740858 16.8789152,134.870457 C16.846985,135.000057 16.7645625,135.11151 16.65,135.18 C15.8236039,135.701094 15.0703112,136.329959 14.41,137.05 C14.3263499,137.189835 14.1819892,137.282374 14.02,137.3 L14.02,137.17 Z" id="_Trazado_compuesto_9" fill="#FAFAFA"></path>
                                <path d="M0.67,182.45 L0.56,182.45 C0.430160318,182.421589 0.31743227,182.341652 0.247668389,182.228521 C0.177904507,182.115391 0.157090588,181.978773 0.19,181.85 L0.53,180.4 C0.569299187,180.221367 0.700912621,180.07727 0.875262785,180.021987 C1.04961295,179.966705 1.2402119,180.008637 1.37526284,180.131987 C1.51031378,180.255338 1.56929925,180.441367 1.53,180.62 L1.19,182.08 C1.12815055,182.312302 0.909741389,182.467708 0.67,182.45 Z" id="_Trazado_80" fill="#FAFAFA"></path>
                                <path d="M28.17,134.66 L28.11,134.66 C27.6387999,134.603726 27.164539,134.577007 26.69,134.58 C26.4159639,134.580211 26.1907464,134.363825 26.18,134.09 C26.1773211,133.957384 26.2274472,133.829138 26.3193457,133.733489 C26.4112441,133.63784 26.5373831,133.582626 26.67,133.58 C27.1911904,133.572501 27.7123109,133.599225 28.23,133.66 C28.5061424,133.676569 28.7165685,133.913858 28.7,134.19 C28.6834315,134.466142 28.4461424,134.676569 28.17,134.66 L28.17,134.66 Z" id="_Trazado_81" fill="#FAFAFA"></path>
                                <path d="M7.67,176.67 L7.55,176.67 C7.2826828,176.60574 7.11739818,176.33771 7.18,176.07 L7.87,173.07 C7.90929918,172.891367 8.04091262,172.74727 8.21526278,172.691987 C8.38961295,172.636705 8.5802119,172.678637 8.71526284,172.801987 C8.85031379,172.925338 8.90929926,173.111367 8.87,173.29 L8.17,176.29 C8.11707704,176.520861 7.90660226,176.680822 7.67,176.67 Z M9.52,168.67 L9.4,168.67 C9.1326828,168.60574 8.96739818,168.33771 9.03,168.07 L9.72,165.07 C9.74841114,164.94016 9.82834822,164.827432 9.94147884,164.757668 C10.0546095,164.687905 10.1912269,164.667091 10.32,164.7 C10.4502593,164.72864 10.5636777,164.808135 10.635038,164.920809 C10.7063983,165.033483 10.7297856,165.169998 10.7,165.3 L10,168.3 C9.97394787,168.554805 9.75604927,168.746556 9.5,168.74 L9.52,168.67 Z M11.36,160.67 L11.25,160.67 C11.1201603,160.641589 11.0074323,160.561652 10.9376684,160.448521 C10.8679045,160.335391 10.8470906,160.198773 10.88,160.07 L11.57,157.07 C11.6342604,156.802683 11.9022895,156.637398 12.17,156.7 C12.4373172,156.76426 12.6026018,157.03229 12.54,157.3 L11.85,160.3 C11.8191109,160.55635 11.5981088,160.747018 11.34,160.74 L11.36,160.67 Z M13.21,152.67 L13.09,152.67 C12.8226828,152.60574 12.6573982,152.33771 12.72,152.07 L13.15,150.19 C13.2433333,149.81 13.3333333,149.44 13.42,149.08 C13.4890356,148.803858 13.7688576,148.635964 14.045,148.705 C14.3211424,148.774036 14.4890356,149.053858 14.42,149.33 C14.33,149.68 14.24,150.04 14.16,150.41 L13.72,152.3 C13.7233029,152.438921 13.6674655,152.572712 13.5663864,152.66807 C13.4653074,152.763427 13.3284936,152.811383 13.19,152.8 L13.21,152.67 Z M15.42,144.83 C15.3603656,144.839367 15.2996344,144.839367 15.24,144.83 C14.9844663,144.731989 14.8552166,144.446748 14.95,144.19 C15.3210351,143.219098 15.7415868,142.26785 16.21,141.34 C16.3347878,141.094844 16.6341732,140.996538 16.88,141.12 C16.9997251,141.177882 17.0907827,141.281939 17.1322694,141.408285 C17.173756,141.53463 17.1621083,141.672412 17.1,141.79 C16.6501407,142.685483 16.2462819,143.603343 15.89,144.54 C15.8438109,144.776681 15.6409609,144.950553 15.4,144.96 L15.42,144.83 Z M19.51,137.83 C19.3077781,137.83718 19.1219416,137.719317 19.0422323,137.533329 C18.962523,137.347341 19.0053373,137.131485 19.15,136.99 C19.8732209,136.216415 20.6972875,135.543708 21.6,134.99 C21.7118923,134.916702 21.8488861,134.892334 21.9791915,134.922549 C22.1094968,134.952765 22.2217853,135.034938 22.29,135.15 C22.429272,135.388125 22.3539534,135.69383 22.12,135.84 C21.2942161,136.358008 20.5409527,136.983486 19.88,137.7 C19.8000872,137.843403 19.6536711,137.93726 19.49,137.95 L19.51,137.83 Z" id="_Trazado_compuesto_10" fill="#FAFAFA"></path>
                                <path d="M6.14,183.1 L6.03,183.1 C5.90016032,183.071589 5.78743227,182.991652 5.71766839,182.878521 C5.64790451,182.765391 5.62709059,182.628773 5.66,182.5 L6,181.04 C6.06351275,180.763858 6.33885763,180.591487 6.615,180.655 C6.89114237,180.718513 7.06351275,180.993858 7,181.27 L6.67,182.74 C6.60712272,182.974878 6.38151681,183.128119 6.14,183.1 Z" id="_Trazado_82" fill="#FAFAFA"></path>
                                <path d="M25.94,138.26 C25.7443122,138.257596 25.566546,138.145526 25.48,137.97 C25.4230619,137.849666 25.4175354,137.711345 25.4646917,137.586853 C25.511848,137.46236 25.6076276,137.362413 25.73,137.31 C26.2450868,137.053035 26.8057736,136.90012 27.38,136.86 C27.6515936,136.875653 27.8652191,137.097998 27.87,137.37 C27.8594518,137.639996 27.6401544,137.854908 27.37,137.86 C26.9465134,137.907071 26.5340334,138.025406 26.15,138.21 C26.0857231,138.245126 26.0132096,138.262391 25.94,138.26 L25.94,138.26 Z" id="_Trazado_83" fill="#FAFAFA"></path>
                                <path d="M11.56,179.44 L11.45,179.44 C11.3201603,179.411589 11.2074323,179.331652 11.1376684,179.218521 C11.0679045,179.105391 11.0470906,178.968773 11.08,178.84 L11.71,176.13 C11.7384111,176.00016 11.8183482,175.887432 11.9314788,175.817668 C12.0446095,175.747905 12.1812269,175.727091 12.31,175.76 C12.5773172,175.82426 12.7426018,176.09229 12.68,176.36 L12.05,179.07 C11.993769,179.293064 11.7899362,179.446978 11.56,179.44 Z M13.25,172.22 L13.13,172.22 C12.8626828,172.15574 12.6973982,171.88771 12.76,171.62 L13.39,168.91 C13.4542604,168.642683 13.7222895,168.477398 13.99,168.54 C14.1198397,168.568411 14.2325677,168.648348 14.3023316,168.761479 C14.3720955,168.874609 14.3929094,169.011227 14.36,169.14 L13.73,171.85 C13.6714942,172.067298 13.4750325,172.218737 13.25,172.22 Z M14.93,164.99 L14.81,164.99 C14.5460535,164.921135 14.3830262,164.656766 14.44,164.39 L15.07,161.68 C15.0986404,161.549741 15.1781351,161.436322 15.2908093,161.364962 C15.4034834,161.293602 15.5399978,161.270214 15.67,161.3 C15.9373172,161.36426 16.1026018,161.63229 16.04,161.9 L15.41,164.61 C15.3553119,164.831264 15.157909,164.987541 14.93,164.99 Z M16.6,157.76 L16.49,157.76 C16.3597407,157.73136 16.2463223,157.651865 16.174962,157.539191 C16.1036017,157.426517 16.0802144,157.290002 16.11,157.16 L16.74,154.45 C16.7686404,154.319741 16.8481351,154.206322 16.9608093,154.134962 C17.0734834,154.063602 17.2099978,154.040214 17.34,154.07 C17.4698397,154.098411 17.5825677,154.178348 17.6523316,154.291479 C17.7220955,154.404609 17.7429094,154.541227 17.71,154.67 L17.09,157.38 C17.0238754,157.59489 16.8248305,157.741127 16.6,157.74 L16.6,157.76 Z M18.33,150.55 L18.2,150.55 C18.0708518,150.51501 17.9611163,150.429716 17.895339,150.313196 C17.8295616,150.196676 17.813231,150.058653 17.85,149.93 C18.12,149 18.4,148.1 18.7,147.25 C18.8067816,147.013643 19.076562,146.898173 19.3212789,146.984084 C19.5659959,147.069995 19.7043954,147.328762 19.64,147.58 C19.35,148.41 19.07,149.29 18.82,150.21 C18.7468619,150.416978 18.5494849,150.553933 18.33,150.55 Z M21.01,143.65 C20.9263871,143.649212 20.8441469,143.628652 20.77,143.59 C20.6530662,143.526582 20.5662241,143.419181 20.5286891,143.291562 C20.4911542,143.163943 20.506021,143.026628 20.57,142.91 C21.0174352,142.070801 21.525448,141.265333 22.09,140.5 C22.2556854,140.279086 22.5690861,140.234315 22.79,140.4 C23.0109139,140.565685 23.0556854,140.879086 22.89,141.1 C22.3556623,141.827784 21.8744181,142.593096 21.45,143.39 C21.3604729,143.549204 21.1926429,143.648376 21.01,143.65 L21.01,143.65 Z" id="_Trazado_compuesto_11" fill="#FAFAFA"></path>
                                <path d="M10.17,185.420021 L10.06,185.420021 C9.79200757,185.355548 9.62371731,185.089826 9.68,184.82 L10.02,183.36 C10.0484111,183.23016 10.1283482,183.117432 10.2414788,183.047668 C10.3546095,182.977905 10.4912269,182.957091 10.62,182.99 C10.7502593,183.01864 10.8636777,183.098135 10.935038,183.210809 C11.0063983,183.323483 11.0297856,183.459998 11,183.59 L10.66,185.04 C10.604414,185.264881 10.4016395,185.422135 10.17,185.420021 Z" id="_Trazado_84" fill="#FAFAFA"></path>
                                <path d="M150.99,70.06 L150.99,70.06 C141.545931,70.06 133.89,62.4040692 133.89,52.96 L133.89,15.64 L133.89,15.64 C143.331783,15.6455167 150.984483,23.2982168 150.99,32.74 L150.99,70.06 Z" id="_Trazado_85" fill="#263238"></path>
                                <path d="M134.67,60.84 C138.85,61.05 141.93,61.84 144.77,70.06 C147.61,78.28 153.55,109.85 151.56,113.15 L138.1,104.88 L135.02,90.23 C127.58,83.82 128.04,63.15 134.67,60.84 Z" id="_Trazado_86" fill="#FFA8A7"></path>
                                <g id="_Grupo_30" transform="translate(69.000000, 0.000000)">
                                    <polygon id="_Trazado_87" fill="#FFA8A7" points="92.88 284.88 82.79 287.87 78.43 273.18 88.74 269.65"></polygon>
                                    <path d="M81.31,282.9 L80.88,281.45 C80.04,282.16 79.78,291.08 77.43,296.22 C74.85,301.85 72.12,305.85 70.97,308.38 C69.44,311.76 75.42,313.55 82.03,310.29 C85.31,308.67 90.57,304.44 91.4,301.74 C92.23,299.04 91.95,295.51 92.68,293.49 C93.41,291.47 95.68,288.79 95.77,286.69 C95.77,285.53 94.7,283.36 93.62,281.56 C92.62,279.92 91.53,278.11 90.97,278.46 L91.3,279.56 C90.3143271,281.30808 88.8457148,282.735029 87.07,283.67 C85.52,284.45 81.85,284.65 81.31,282.9 Z" id="_Trazado_88" fill="#263238"></path>
                                    <path d="M67.89,117.27 C73.97,125.07 75.06,133.13 73.74,155.94 C72.42,178.75 71.99,197.83 72.33,199.11 C72.67,200.39 79.82,209.56 82.14,217.9 C84.46,226.24 90.72,273.54 90.72,273.54 C90.72,273.54 87.17,278.74 79.25,278.74 C79.25,278.74 53.87,209.63 52.17,204.5 C50.47,199.37 39.67,145.31 39.67,145.31 L41.31,114.8 L67.89,117.27 Z" id="_Trazado_89" fill="#37474F"></path>
                                    <rect id="_Rectngulo_" fill="#FFA8A7" transform="translate(23.430271, 273.136338) rotate(0.760000) translate(-23.430271, -273.136338) " x="18.1702709" y="265.476338" width="10.52" height="15.32"></rect>
                                    <path d="M21.44,143.51 C22.36,132.98 24.67,114.74 24.67,114.74 L51.6,113.16 C55.97,119.96 54.07,131.27 52.88,141.48 L37.43,201.74 C37.74,204.63 40.43,210.74 37.43,226.28 C34.11,243.61 29.19,268.46 29.19,268.46 C29.19,268.46 21.52,272.33 17.73,268.12 C17.73,268.12 15.73,211.76 17.12,196.76 C18.67,180.57 20.8,150.74 21.44,143.51 Z" id="_Trazado_90" fill="#37474F"></path>
                                    <path d="M18.16,275.52 L18.16,274.02 C17.16,274.44 14.24,282.88 10.46,287.09 C6.35,291.74 2.55,294.74 0.67,296.74 C-1.8,299.51 3.37,303 10.67,301.85 C14.28,301.28 20.55,298.85 22.15,296.48 C23.75,294.11 24.53,290.69 25.83,288.98 C27.13,287.27 30.09,285.39 30.83,283.4 C31.22,282.31 30.83,279.9 30.3,277.87 C29.84,276 29.3,273.95 28.7,274.12 C28.7,274.34 28.7,275.26 28.7,275.26 C27.2474259,276.644261 25.4231445,277.575513 23.45,277.94 C21.67,278.26 18.14,277.36 18.16,275.52 Z" id="_Trazado_91" fill="#263238"></path>
                                    <path d="M44.36,169.09 L39.96,146.97 C36.0656227,145.584805 32.3679428,143.698988 28.96,141.36 C31.1331319,144.117926 33.7324882,146.511359 36.66,148.45 L44.36,169.09 Z" id="_Trazado_92" fill="#263238"></path>
                                    <g id="_Grupo_31" transform="translate(22.000000, 59.000000)" fill="#27DEBF">
                                        <path d="M4.32,38.62 C3.66,44.76 1.18,67.5 1.18,67.5 C21.48,78.33 46.67,71.15 50.52,66.69 C47.03,55.2 43.27,48.69 40.4,45.6 L44.06,31.23 C44.06,31.23 35,18.23 43.71,1.84 L32.94,0.96 L17.13,0.5 C13.35,0.71 10.66,1.07 10.66,1.07 C8.24,3.34 4.42,9.57 1.94,15.9 C0.35,19.99 -1.33,26.52 4.32,38.62 Z" id="_Trazado_93"></path>
                                    </g>
                                    <path d="M41.42,50.08 L49.85,50.08 C55.1278081,50.08 60.189451,47.9833989 63.9214249,44.2514249 C67.6533989,40.519451 69.7500021,35.4578081 69.7500021,30.18 L69.7500021,30.18 C69.7555299,16.8722175 58.9777733,6.07655769 45.67,6.06 L45.67,6.06 C32.3488918,6.06 21.55,16.8588918 21.55,30.18 L21.55,30.18 C21.55,41.1587614 30.441251,50.0634491 41.42,50.08 L41.42,50.08 Z" id="_Trazado_94" fill="#263238"></path>
                                    <g id="_Grupo_32" transform="translate(24.000000, 16.000000)" fill="#FFA8A7">
                                        <path d="M6.13,0.56 C3.58,2.07 0.44,8.48 0.75,21.91 C1.01,33.29 4.7,36.11 6.55,36.91 C8.4,37.71 11.98,37.22 15.45,36.65 L15.45,43.48 C15.45,43.48 10.65,49.05 10.95,52.19 C11.25,55.33 17.89,56.06 22.38,53 C26.87,49.94 30.66,44 30.66,44 L30.58,28.29 C30.58,28.29 32.58,30.29 36.09,27.29 C38.95,24.79 39.92,20.57 37.69,18.29 C36.5144211,17.2014282 34.8883768,16.7421485 33.3170082,17.0548389 C31.7456397,17.3675294 30.4192907,18.4143131 29.75,19.87 C29.75,19.87 24.21,20.08 16.83,16.02 C10.9981712,12.8721488 7.02181778,7.12687561 6.13,0.56 Z" id="_Trazado_95"></path>
                                    </g>
                                    <g id="_Grupo_33" transform="translate(37.000000, 33.000000)" fill="#263238">
                                        <path d="M0.46,2.05 C0.429784893,2.4354121 0.555809691,2.81678653 0.809717625,3.10831046 C1.06362556,3.39983438 1.4240889,3.5770204 1.81,3.6 C2.41659072,3.6566368 2.99655722,3.33828423 3.27446401,2.7961331 C3.55237079,2.25398196 3.47222889,1.59725769 3.07209898,1.13784928 C2.67196907,0.678440863 2.03246404,0.508903832 1.45729518,0.709754066 C0.882126317,0.9106043 0.487171037,1.44137715 0.46,2.05 L0.46,2.05 Z" id="_Trazado_96"></path>
                                    </g>
                                    <g id="_Grupo_34" opacity="0.5" style="mix-blend-mode: multiply;" transform="translate(33.000000, 44.000000)" fill="#F28F8F">
                                        <path d="M4.07,0.74 L0.75,1.74 C0.870479486,2.18949848 1.16895347,2.57047912 1.57655384,2.79503673 C1.98415421,3.01959434 2.46567031,3.06833046 2.91,2.93 C3.81071942,2.61665965 4.31682298,1.66117103 4.07,0.74 Z" id="_Trazado_97"></path>
                                    </g>
                                    <g id="_Grupo_35" transform="translate(25.000000, 27.000000)" fill="#263238">
                                        <path d="M0.72,3.65 L3.61,1.65 C3.36618147,1.25580153 2.97115902,0.979045652 2.51739351,0.884511169 C2.06362799,0.789976687 1.59095116,0.885961882 1.21,1.15 C0.407514126,1.72022554 0.192148766,2.81902839 0.72,3.65 L0.72,3.65 Z" id="_Trazado_98"></path>
                                    </g>
                                    <g id="_Grupo_36" transform="translate(26.000000, 32.000000)" fill="#263238">
                                        <path d="M0.39,2.01 C0.359751504,2.39643584 0.485485462,2.77889527 0.739133595,3.07199977 C0.992781727,3.36510428 1.35322511,3.54444978 1.74,3.57 C2.54610153,3.58699913 3.21749216,2.95562516 3.25,2.15 C3.28865993,1.36023281 2.67976719,0.688659932 1.89,0.65 C1.10023281,0.611340068 0.428659932,1.22023281 0.39,2.01 L0.39,2.01 Z" id="_Trazado_99"></path>
                                    </g>
                                    <g id="_Grupo_37" opacity="0.5" style="mix-blend-mode: multiply;" transform="translate(28.000000, 33.000000)" fill="#F28F8F">
                                        <polygon id="_Trazado_100" points="5.14 0.19 4.91 8.81 0.38 7.41"></polygon>
                                    </g>
                                    <g id="_Grupo_38" opacity="0.5" style="mix-blend-mode: multiply;" transform="translate(39.000000, 47.000000)" fill="#F28F8F">
                                        <path d="M0.45,5.66 C4.11,5.18 11.65,3.01 12.82,0.03 C12.3527535,1.5385206 11.4306744,2.86575561 10.18,3.83 C7.93,5.76 0.45,7.94 0.45,7.94 L0.45,5.66 Z" id="_Trazado_101"></path>
                                    </g>
                                    <path d="M49.13,7.35 L49.68,1.03 C48.8458032,0.911477005 47.9995584,1.14101934 47.3395936,1.66483093 C46.6796288,2.18864251 46.2639585,2.96067752 46.19,3.8 C46.0656064,5.578298 47.3596678,7.14085519 49.13,7.35 L49.13,7.35 Z" id="_Trazado_102" fill="#263238"></path>
                                    <path d="M49.47,7.99 L54.59,4.24 C54.1275671,3.53476152 53.3961847,3.04998595 52.5665182,2.89879388 C51.7368517,2.74760181 50.8814797,2.9432194 50.2,3.44 C48.7771067,4.5162377 48.4551973,6.52265944 49.47,7.99 Z" id="_Trazado_103" fill="#263238"></path>
                                </g>
                                <path d="M138.14,104.88 C138.14,104.88 108.45,112.55 103.14,113.15 C98.68,113.65 95.27,113.52 92.03,111.15 C88.79,108.78 86.54,108.71 86.54,108.71 C87.1309521,110.663639 87.5098029,112.675236 87.67,114.71 C86.28,116.34 84.24,115.03 84.24,115.03 C84.1690966,113.959756 83.9983546,112.898477 83.73,111.86 C80.05,113.23 78.11,114.92 78.73,117.34 C79.23,119.21 80.23,125.94 86.08,126.91 C90.85,127.7 99.65,124.82 105.64,123.26 C111.63,121.7 144.14,118.26 151.57,113.17 C151.373773,110.033147 149.663735,107.187863 146.985825,105.54252 C144.307916,103.897177 140.99696,103.657498 138.11,104.9 L138.14,104.88 Z" id="_Trazado_104" fill="#FFA8A7"></path>
                            </g>
                        </g>
                    </g>
                </g>
            </g>
        </g>
    </g>
</svg>