<?xml version="1.0" encoding="UTF-8"?>
<svg width="390px" height="451px" viewBox="0 0 390 451" version="1.1" xmlns="http://www.w3.org/2000/svg" xmlns:xlink="http://www.w3.org/1999/xlink">
    <!-- Generator: Sketch 57.1 (83088) - https://sketch.com -->
    <title>2640527</title>
    <desc>Created with Sketch.</desc>
    <g id="Page-1" stroke="none" stroke-width="1" fill="none" fill-rule="evenodd">
        <g id="Desktop-HD" transform="translate(-116.000000, -1729.000000)">
            <g id="Group-10" transform="translate(95.000000, 1637.000000)">
                <g id="Group-8" transform="translate(20.000000, 92.000000)">
                    <g id="2640527">
                        <path d="M81.76,424.7 C146.56,458.55 251.63,458.55 316.43,424.7 C381.23,390.85 381.23,335.96 316.43,302.11 C251.63,268.26 146.56,268.26 81.76,302.11 C16.96,335.96 16.98,390.87 81.76,424.7 Z" id="_Trazado_" fill="#D9EEFF" fill-rule="nonzero" opacity="0.2"></path>
                        <g id="_Grupo_2" transform="translate(39.000000, 0.000000)">
                            <path d="M194.42,346.29 C175.83,355.15 145.68,355.15 127.09,346.29 C108.5,337.43 108.5,323.06 127.09,314.2 C145.68,305.34 175.83,305.34 194.42,314.2 C213.01,323.06 212.98,337.43 194.42,346.29 Z" id="_Trazado_2" fill="#D9EEFF" fill-rule="nonzero"></path>
                            <g id="_Grupo_3" transform="translate(42.000000, 0.000000)">
                                <circle id="_Trazado_3" fill="#1BBC9D" fill-rule="nonzero" cx="175.47" cy="142.75" r="11.02"></circle>
                                <circle id="_Trazado_4" fill="#1BBC9D" fill-rule="nonzero" cx="106.33" cy="162.75" r="16.16"></circle>
                                <circle id="_Trazado_5" fill="#1BBC9D" fill-rule="nonzero" cx="62.67" cy="130.15" r="25.31"></circle>
                                <circle id="_Trazado_6" fill="#1BBC9D" fill-rule="nonzero" cx="90.52" cy="90.31" r="16.83"></circle>
                                <circle id="_Trazado_7" fill="#1BBC9D" fill-rule="nonzero" cx="141.32" cy="74.87" r="22.72"></circle>
                                <path d="M145.98,188.8 L141.9,195.32 C139.770151,198.742856 135.306259,199.8544 131.82,197.83 L127.82,195.51 C125.379483,193.842719 123.847394,191.140336 123.67,188.19 L123.26,172.26 C123.180556,171.430886 122.660918,170.708742 121.9,170.37 C119.838388,169.324145 117.401612,169.324145 115.34,170.37 C114.579082,170.708742 114.059444,171.430886 113.98,172.26 L113.13,205.41 C113.06,208.17 111.93,209.79 110.6,209.02 L108.2,207.63 C105.83912,206.274434 104.118098,204.031344 103.42,201.4 L100.73,191.4 C100.371015,190.066232 98.9987677,189.276015 97.665,189.635 C96.3312323,189.993985 95.5410149,191.366232 95.9,192.7 L98.59,202.7 C99.6287854,206.61206 102.188851,209.946267 105.7,211.96 L109.28,214.03 C111.28,215.17 112.8,218.33 112.73,221.09 L109.98,326.77 C109.98,328.04 110.82,329.32 112.5,330.29 C116.330868,332.233793 120.859132,332.233793 124.69,330.29 C126.38,329.29 127.22,328.04 127.21,326.77 L124.05,204.06 C123.98,201.3 125.13,199.76 126.62,200.62 L129.31,202.18 C135.127134,205.562272 142.57929,203.705879 146.13,197.99 L150.21,191.47 C150.9473,190.301918 150.598082,188.7573 149.43,188.02 C148.261918,187.2827 146.7173,187.631918 145.98,188.8 Z" id="_Trazado_8" fill="#2343BA" fill-rule="nonzero"></path>
                                <g id="_Grupo_4" transform="translate(140.000000, 32.000000)" fill-rule="nonzero">
                                    <g id="_Grupo_5">
                                        <circle id="_Trazado_9" fill="#27DEBF" cx="39.02" cy="38.64" r="38.37"></circle>
                                        <path d="M77.380002,38.36 L77.380002,38.65 C77.385265,54.9164713 67.1306161,69.4175959 51.7922838,74.8336534 C36.4539514,80.2497109 19.3674357,75.4029162 9.15748269,62.7397817 C-1.05247037,50.0766472 -2.1655869,32.3509198 6.38,18.51 C5.83755427,21.0611127 5.56273347,23.6618558 5.56,26.27 C5.62410765,44.2600286 18.6354578,59.589266 36.3759952,62.5756639 C54.1165326,65.5620618 71.4295371,55.3375508 77.380002,38.36 Z" id="_Trazado_10" fill="#1BBC9D" opacity="0.85"></path>
                                        <path d="M3.06,52.05 C6.68904479,61.7688218 14.0979322,69.6045647 23.5984562,73.7717587 C33.0989803,77.9389527 43.8818297,78.0826112 53.49,74.17 C51.3223879,63.4264408 44.0583505,54.4116688 34.0213853,50.0091768 C23.98442,45.6066849 12.4322545,46.3681471 3.06,52.05 L3.06,52.05 Z" id="_Trazado_11" fill="#1BBC9D" opacity="0.3"></path>
                                    </g>
                                    <g id="_Grupo_6" transform="translate(27.000000, 20.000000)" fill="#FFFFFF">
                                        <g id="_Grupo_7">
                                            <path d="M13.75,2.83 C17.3,2.83 17.75,2.83 19.12,2.91 C19.963652,2.92023365 20.7992238,3.07584621 21.59,3.37 C22.7478137,3.8169992 23.6630008,4.73218629 24.11,5.89 C24.4039609,6.68082959 24.5595672,7.51636761 24.57,8.36 C24.63,9.76 24.65,10.18 24.65,13.73 C24.65,17.28 24.65,17.73 24.57,19.1 C24.5595672,19.9436324 24.4039609,20.7791704 24.11,21.57 C23.6630008,22.7278137 22.7478137,23.6430008 21.59,24.09 C20.7992238,24.3841538 19.963652,24.5397663 19.12,24.55 C17.72,24.61 17.3,24.63 13.75,24.63 C10.2,24.63 9.75,24.63 8.38,24.55 C7.53634799,24.5397663 6.7007762,24.3841538 5.91,24.09 C4.75218629,23.6430008 3.8369992,22.7278137 3.39,21.57 C3.09623145,20.7791172 2.94063145,19.9436128 2.93,19.1 C2.87,17.7 2.85,17.28 2.85,13.73 C2.85,10.18 2.85,9.73 2.93,8.36 C2.94063145,7.5163872 3.09623145,6.68088282 3.39,5.89 C3.8369992,4.73218629 4.75218629,3.8169992 5.91,3.37 C6.7007762,3.07584621 7.53634799,2.92023365 8.38,2.91 C9.78,2.85 10.2,2.83 13.75,2.83 M13.75,0.44 C10.14,0.44 9.69,0.44 8.27,0.52 C7.1693817,0.543589066 6.08068592,0.75321372 5.05,1.14 C3.26840447,1.82988019 1.85988019,3.23840447 1.17,5.02 C0.782841603,6.05058105 0.573204613,7.1393409 0.55,8.24 C0.49,9.66 0.47,10.11 0.47,13.72 C0.47,17.33 0.47,17.78 0.55,19.2 C0.573204613,20.3006591 0.782841603,21.389419 1.17,22.42 C1.85988019,24.2015955 3.26840447,25.6101198 5.05,26.3 C6.08063355,26.6869721 7.16936131,26.896603 8.27,26.92 C9.69,26.98 10.14,27 13.75,27 C17.36,27 17.81,27 19.23,26.92 C20.3306387,26.896603 21.4193665,26.6869721 22.45,26.3 C24.2315955,25.6101198 25.6401198,24.2015955 26.33,22.42 C26.7169721,21.3893665 26.926603,20.3006387 26.95,19.2 C27.01,17.78 27.03,17.33 27.03,13.72 C27.03,10.11 27.03,9.66 26.95,8.24 C26.926603,7.13936131 26.7169721,6.05063355 26.33,5.02 C25.6401198,3.23840447 24.2315955,1.82988019 22.45,1.14 C21.4193141,0.75321372 20.3306183,0.543589066 19.23,0.52 C17.81,0.46 17.36,0.44 13.75,0.44" id="_Trazado_compuesto_"></path>
                                            <path d="M13.75,6.9 C9.98341801,6.9 6.93,9.95341801 6.93,13.72 C6.93,17.486582 9.98341801,20.54 13.75,20.54 C17.516582,20.54 20.57,17.486582 20.57,13.72 C20.57,9.95341801 17.516582,6.9 13.75,6.9 M13.75,18.15 C11.3059875,18.15 9.3237115,16.1706463 9.32004504,13.7266366 C9.31638874,11.2826269 11.2927254,9.29736768 13.7367268,9.28999957 C16.1807283,9.28267236 18.1689661,11.2560124 18.18,13.7 C18.18,16.1466214 16.1966214,18.13 13.75,18.13" id="_Trazado_compuesto_2"></path>
                                            <path d="M22.44,6.63 C22.44,7.50813275 21.7281328,8.22 20.85,8.22 C19.9718672,8.22 19.26,7.50813275 19.26,6.63 C19.26,5.75186725 19.9718672,5.04 20.85,5.04 C21.7281328,5.04 22.44,5.75186725 22.44,6.63" id="_Trazado_12"></path>
                                        </g>
                                    </g>
                                </g>
                                <g id="_Grupo_8" transform="translate(174.000000, 100.000000)" fill-rule="nonzero">
                                    <g id="_Grupo_9">
                                        <circle id="_Trazado_13" fill="#27DEBF" cx="29.91" cy="29.65" r="29.02"></circle>
                                        <path d="M58.92,29.44 L58.92,29.7 C58.8916512,41.9776559 51.1348187,52.9069821 39.5544829,56.9858867 C27.9741472,61.0647913 15.0801324,57.4092469 7.36360312,47.8595445 C-0.352926183,38.3098422 -1.21955458,24.9357039 5.2,14.47 C4.78964615,16.3997631 4.5818535,18.3670903 4.58,20.34 C4.60330028,33.971897 14.4605747,45.5970138 27.9052721,47.8485182 C41.3499695,50.1000225 54.4568127,42.3205714 58.92,29.44 L58.92,29.44 Z" id="_Trazado_14" fill="#1BBC9D"></path>
                                        <path d="M0.889966225,29.7 C0.904934316,37.160811 3.80365031,44.3269815 8.98,49.7 C22.4438103,38.5783314 25.1547867,19.0019537 15.22,4.64 C6.32967856,9.85352606 0.874304911,19.3937678 0.889966225,29.7 Z" id="_Trazado_15" fill="#1BBC9D" opacity="0.3"></path>
                                    </g>
                                    <g id="_Grupo_10" transform="translate(23.000000, 20.000000)" fill="#FFFFFF">
                                        <g id="_Grupo_11">
                                            <path d="M18.09,0.07 C15.3033333,-0.0166666667 13.4166667,1.55666667 12.43,4.79 C12.8988868,4.57930344 13.4059971,4.46699041 13.92,4.46 C14.94,4.46 15.39,5.03333333 15.27,6.18 C15.0372312,7.26422145 14.5771028,8.28672887 13.92,9.18 C13.08,10.5133333 12.45,11.18 12.03,11.18 C11.49,11.18 10.9933333,10.1566667 10.54,8.11 C10.3866667,7.51 10.1166667,5.97333333 9.73,3.5 C9.37,1.21333333 8.40666667,0.143333333 6.84,0.29 C5.69726527,0.611479708 4.66141608,1.23298922 3.84,2.09 C2.88,2.96333333 1.90333333,3.83666667 0.91,4.71 L1.86,5.93 C2.33680935,5.53696989 2.86926746,5.21682102 3.44,4.98 C4.10666667,4.98 4.75333333,6.06333333 5.38,8.23 L7,14.18 C7.80666667,16.34 8.80666667,17.42 10,17.42 C11.8933333,17.42 14.2033333,15.6433333 16.93,12.09 C19.5966667,8.69 20.9633333,6.02333333 21.03,4.09 C21.13,1.47666667 20.15,0.136666667 18.09,0.07 Z" id="_Trazado_16"></path>
                                        </g>
                                    </g>
                                </g>
                                <g id="_Grupo_12" transform="translate(65.000000, 0.000000)" fill-rule="nonzero">
                                    <g id="_Grupo_13">
                                        <circle id="_Trazado_17" fill="#27DEBF" cx="41.42" cy="40.68" r="40.68"></circle>
                                        <path d="M82.09,40.38 L82.09,40.7 C82.0811618,57.9400499 71.2061387,73.3023306 54.9489024,79.0400714 C38.6916661,84.7778121 20.5831538,79.644823 9.75498446,66.2295277 C-1.07318492,52.8142324 -2.26922258,34.030322 6.77,19.35 C6.19450629,22.0556013 5.90292721,24.8138723 5.9,27.58 C5.89939903,46.709071 19.7156433,63.0405997 38.5803448,66.2098893 C57.4450462,69.379179 75.8395898,58.4590965 82.09,40.38 L82.09,40.38 Z" id="_Trazado_18" fill="#1BBC9D" opacity="0.5"></path>
                                        <path d="M75.65,62.7 C69.9036305,51.1280315 56.5483734,45.5106565 44.258298,49.4962884 C31.9682225,53.4819203 24.4514379,65.8680312 26.59,78.61 C44.644958,85.6838175 65.1827133,79.0234896 75.65,62.7 Z" id="_Trazado_19" fill="#1BBC9D" opacity="0.3"></path>
                                    </g>
                                    <g id="_Grupo_14" transform="translate(35.000000, 16.000000)" fill="#FFFFFF">
                                        <path d="M3.23,29.63 L9.13,29.63 L9.13,14.86 L13.24,14.86 L13.68,9.92 L9.13,9.92 L9.13,7.11 C9.13,5.94 9.36,5.48 10.49,5.48 L13.68,5.48 L13.68,0.35 L9.6,0.35 C5.21,0.35 3.23,2.28 3.23,5.98 L3.23,9.92 L0.16,9.92 L0.16,14.92 L3.23,14.92 L3.23,29.62 L3.23,29.63 Z" id="_Trazado_20"></path>
                                    </g>
                                </g>
                                <g id="_Grupo_15" transform="translate(6.000000, 48.000000)" fill-rule="nonzero">
                                    <g id="_Grupo_16">
                                        <circle id="_Trazado_21" fill="#27DEBF" cx="42.57" cy="42.63" r="41.96"></circle>
                                        <path d="M84.5202946,42.32 L84.5202946,42.64 C84.5865381,60.4806211 73.3748319,76.4164206 56.560458,82.3803974 C39.7460841,88.3443741 20.9987792,83.0348902 9.80878141,69.1397062 C-1.38121639,55.2445223 -2.57169028,35.7962619 6.84,20.64 C6.24872483,23.4313222 5.95044181,26.2767412 5.95,29.13 C5.97276582,48.8434854 20.2199367,65.6620711 39.6613865,68.9258197 C59.1028363,72.1895682 78.0610697,60.9453656 84.5202946,42.32 Z" id="_Trazado_22" fill="#1BBC9D" opacity="0.7"></path>
                                        <path d="M23.24,56.7799878 C16.9076656,56.7737238 10.8108231,59.180278 6.19,63.51 C14.6473219,78.2994531 31.2258497,86.4858922 48.11,84.21 C48.19,83.41 48.23,82.59 48.23,81.77 C48.2244814,67.9706906 37.0393094,56.7855186 23.24,56.7799878 Z" id="_Trazado_23" fill="#1BBC9D" opacity="0.3"></path>
                                        <path d="M84.52,43.12 C75.2620078,43.7458951 66.7712119,48.4860542 61.3800284,56.0383587 C55.9888449,63.5906633 54.2642541,73.1608519 56.68,82.12 C73.1928983,76.2082341 84.2935348,60.6577735 84.52,43.12 L84.52,43.12 Z" id="_Trazado_24" fill="#1BBC9D" opacity="0.3"></path>
                                    </g>
                                    <g id="_Grupo_17" transform="translate(29.000000, 28.000000)" fill="#FFFFFF">
                                        <path d="M0.67,19.4 C5.40944599,22.4372931 11.4471304,22.5778556 16.3227867,19.7644104 C21.1984429,16.9509653 24.0980264,11.6532481 23.84,6.03 C24.8760606,5.28106826 25.7700875,4.35317663 26.48,3.29 C25.5263407,3.71292276 24.5154233,3.99260992 23.48,4.12 C24.5872134,3.4592671 25.4155924,2.41757159 25.81,1.19 C24.7716374,1.80821163 23.6352916,2.24448725 22.45,2.48 C20.8039019,0.759120965 18.2121374,0.347434836 16.1138139,1.47353513 C14.0154903,2.59963543 12.9258793,4.98699311 13.45,7.31 C9.19281541,7.10045906 5.22580253,5.08968168 2.54,1.78 C1.13424521,4.20003127 1.85240028,7.29598025 4.18,8.85 C3.33883449,8.82440616 2.51597116,8.59811874 1.78,8.19 C1.74877824,10.7367563 3.53349633,12.9456074 6.03,13.45 C5.2505968,13.6617092 4.43311792,13.6924929 3.64,13.54 C4.33278479,15.6993391 6.32262563,17.1786551 8.59,17.22 C6.34825763,18.9775549 3.49538,19.7628167 0.67,19.4 Z" id="_Trazado_25"></path>
                                    </g>
                                </g>
                                <g id="_Grupo_18" transform="translate(28.000000, 132.000000)" fill-rule="nonzero">
                                    <g id="_Grupo_19">
                                        <circle id="_Trazado_26" fill="#27DEBF" cx="33.37" cy="33.86" r="32.93"></circle>
                                        <path d="M37.98,1.27 C36.4963001,12.2757243 40.9005545,23.2521894 49.58,30.18 C45.9464153,34.6090666 44.2211502,40.3001958 44.783763,46.0013392 C45.3463758,51.7024825 48.1507776,56.9466051 52.58,60.58 C63.4849466,52.7300642 68.52475,39.0405847 65.3130445,25.9935812 C62.101339,12.9465777 51.2827818,3.16085922 37.98,1.27 L37.98,1.27 Z" id="_Trazado_27" fill="#1BBC9D" opacity="0.3"></path>
                                        <path d="M66.29,33.62 L66.29,33.87 C66.2486629,47.8002274 57.4438517,60.1964677 44.3044175,64.8233685 C31.1649832,69.4502693 16.5356541,65.3060921 7.77503419,54.4753727 C-0.985585699,43.6446533 -1.98079503,28.472276 5.29,16.59 C4.82568108,18.779614 4.59107777,21.0116969 4.59,23.25 C4.55646189,38.7605974 15.7480044,52.0191296 31.0441008,54.5899646 C46.3401971,57.1607996 61.2511549,48.2893489 66.29,33.62 L66.29,33.62 Z" id="_Trazado_28" fill="#1BBC9D"></path>
                                    </g>
                                    <g id="_Grupo_20" transform="translate(18.000000, 24.000000)" fill="#FFFFFF">
                                        <g id="_Grupo_21">
                                            <g id="_Grupo_22">
                                                <path d="M9.31,15.49 C9.91873091,15.3548395 10.4894007,15.0848819 10.98,14.7 C11.4130694,14.3763588 11.7797484,13.9723329 12.06,13.51 C12.5145265,12.7854467 12.7506137,11.9452539 12.74,11.09 C12.7665844,10.3048572 12.5613836,9.52926785 12.15,8.86 C11.7296661,8.22910661 11.1099936,7.75731048 10.39,7.52 C10.8312413,7.31096389 11.2257778,7.01506153 11.55,6.65 C12.0425855,6.01048969 12.2908028,5.21619416 12.25,4.41 C12.2710485,3.58167028 12.0256816,2.76845428 11.55,2.09 C10.5748013,0.946163506 9.10774315,0.34295687 7.61,0.47 L0.27,0.47 L0.27,15.7 L7.12,15.7 C7.85533644,15.7068082 8.58935693,15.6364226 9.31,15.49 L9.31,15.49 Z M3.31,3.14 L6.62,3.14 C7.22897008,3.12329664 7.83668041,3.20432469 8.42,3.38 C8.97224872,3.61467258 9.30544112,4.18353766 9.24,4.78 C9.29389305,5.30365826 9.05571826,5.8145816 8.62,6.11 C8.1285868,6.38256367 7.57142554,6.51406757 7.01,6.49 L3.32,6.49 L3.32,3.14 L3.31,3.14 Z M3.31,13.06 L3.31,9.01 L7.05,9.01 C7.56905419,8.99271552 8.0862014,9.08117491 8.57,9.27 C9.220515,9.54018676 9.62387882,10.1976698 9.57,10.9 C9.65502966,11.6779453 9.25939684,12.4296476 8.57,12.8 C8.08282922,13.0023636 7.55695645,13.0945621 7.03,13.07 L3.34,13.07 L3.31,13.06 Z" id="_Trazado_compuesto_3"></path>
                                                <g id="_Grupo_23" transform="translate(13.000000, 1.000000)">
                                                    <path d="M2.35,13.7 C3.47684303,14.620962 4.89499736,15.1102253 6.35,15.08 C7.93133784,15.1740732 9.47535556,14.575447 10.58,13.44 C11.1462529,12.9058083 11.5279771,12.2053971 11.67,11.44 L8.67,11.44 C8.52367492,11.7343151 8.3196254,11.9961787 8.07,12.21 C7.60555262,12.5712004 7.0278149,12.7555093 6.44,12.73 C5.87109229,12.7465041 5.30922712,12.6008353 4.82,12.31 C4.03975863,11.78029 3.59244095,10.8818638 3.64,9.94 L11.82,9.94 C11.844378,9.19519917 11.8109444,8.44962942 11.72,7.71 C11.6008381,6.87815456 11.292988,6.0845853 10.82,5.39 C10.3446012,4.66321895 9.67154703,4.08730662 8.88,3.73 C8.04763447,3.36782294 7.14765596,3.18714544 6.24,3.2 C4.74877287,3.14721746 3.30174907,3.71155674 2.24,4.76 C1.13846117,5.98210456 0.579231488,7.59845875 0.69,9.24 C0.656666667,11.2866667 1.21,12.7733333 2.35,13.7 Z M4.45,6.23 C4.91892499,5.78254674 5.55304098,5.55064147 6.2,5.59 C6.83404037,5.56927996 7.45348959,5.78288315 7.94,6.19 C8.43426796,6.65043368 8.71650332,7.29450924 8.72,7.97 L3.66,7.97 C3.73083552,7.32053845 4.00767273,6.71079575 4.45,6.23 Z" id="_Trazado_compuesto_4"></path>
                                                    <rect id="_Trazado_29" x="2.71" y="0.37" width="6.6" height="1.53"></rect>
                                                </g>
                                            </g>
                                        </g>
                                    </g>
                                </g>
                                <g id="_Grupo_24" transform="translate(118.000000, 82.000000)" fill-rule="nonzero">
                                    <g id="_Grupo_25">
                                        <circle id="_Trazado_30" fill="#27DEBF" cx="34.4" cy="34.5" r="33.64"></circle>
                                        <path d="M68.03,34.26 L68.03,34.51 C68.017402,48.7638842 59.022944,61.4625156 45.5808871,66.2042957 C32.1388302,70.9460758 17.1675466,66.7015283 8.21431807,55.6104025 C-0.738910473,44.5192767 -1.73027036,28.9895401 5.74,16.85 C5.26354997,19.0887402 5.02224076,21.3711231 5.02,23.66 C5.0007433,39.4897952 16.426142,53.0144765 32.0365988,55.6405809 C47.6470556,58.2666854 62.8687703,49.2247751 68.03,34.26 Z" id="_Trazado_31" fill="#1BBC9D" opacity="0.85"></path>
                                        <path d="M5.49,17.31 C-3.1512659,31.8308729 0.324143616,50.5090591 13.61,60.95 C18.4387975,54.1239561 20.3003028,45.6345723 18.7707765,37.4143101 C17.2412502,29.194048 12.45084,21.9423717 5.49,17.31 Z" id="_Trazado_32" fill="#1BBC9D" opacity="0.3"></path>
                                    </g>
                                    <g id="_Grupo_26" transform="translate(27.000000, 16.000000)" fill="#FFFFFF">
                                        <g id="_Grupo_27">
                                            <path d="M3.53,17.6 C3.69200972,17.6861746 3.88559911,17.6890817 4.05012336,17.6078107 C4.21464762,17.5265397 4.32998339,17.371031 4.36,17.19 C4.44,16.9 4.62,16.19 4.7,15.86 C4.83067972,15.5339019 4.73332419,15.1607057 4.46,14.94 C3.70886148,14.0317525 3.32057291,12.8775736 3.37,11.7 C3.34639222,9.5546619 4.20412447,7.49361268 5.74278147,5.99843125 C7.28143847,4.50324981 9.3662193,3.70492821 11.51,3.79 C15.95,3.79 18.38,6.5 18.38,10.12 C18.38,14.88 16.27,18.9 13.14,18.9 C12.3299365,18.9402368 11.5487262,18.594225 11.0341654,17.9672888 C10.5196045,17.3403526 10.3325722,16.5066664 10.53,15.72 C11.03,13.63 11.99,11.37 11.99,9.86 C12.0682301,9.22519236 11.8675958,8.5876262 11.4399314,8.11201732 C11.012267,7.63640844 10.3995221,7.36940953 9.76,7.38 C7.99,7.38 6.57,9.21 6.57,11.66 C6.56018487,12.5576834 6.74082399,13.4472458 7.1,14.27 L4.97,23.27 C4.61229887,25.3480527 4.61229887,27.4719473 4.97,29.55 C4.98425064,29.6360106 5.04794736,29.7054915 5.13239855,29.7271457 C5.21684974,29.7487998 5.30612064,29.7185414 5.36,29.65 C6.67121405,28.0376937 7.68686372,26.2061387 8.36,24.24 C8.56,23.51 9.52,19.7 9.52,19.7 C10.4204702,21.0174535 11.9245367,21.7920477 13.52,21.76 C18.83,21.76 22.44,16.92 22.44,10.44 C22.44,5.54 18.29,0.97 11.98,0.97 C4.13,0.97 0.17,6.6 0.17,11.29 C0.15,14.13 1.23,16.7 3.53,17.6 Z" id="_Trazado_33"></path>
                                        </g>
                                    </g>
                                </g>
                                <g id="_Grupo_28" transform="translate(137.000000, 141.000000)" fill-rule="nonzero">
                                    <g id="_Grupo_29">
                                        <circle id="_Trazado_34" fill="#27DEBF" cx="29.85" cy="29.47" r="29.02"></circle>
                                        <path d="M58.86,29.26 L58.86,29.48 C58.8135401,41.7476438 51.0529281,52.6589217 39.4797746,56.7282411 C27.9066211,60.7975606 15.0249277,57.1444715 7.31090405,47.6055469 C-0.403119634,38.0666223 -1.28044462,24.7057323 5.12,14.24 C4.70971816,16.1697746 4.50192631,18.1370942 4.5,20.11 C4.49978389,33.7562034 14.353753,45.4076205 27.8106547,47.6727171 C41.2675564,49.9378137 54.3928544,42.1543195 58.86,29.26 L58.86,29.26 Z" id="_Trazado_35" fill="#1BBC9D"></path>
                                        <path d="M0.819810108,29.48 C0.79886833,35.3096438 2.54188269,41.0093008 5.82,45.83 C14.2749027,43.3738764 20.7141585,36.4974534 22.6104247,27.8996574 C24.5066909,19.3018614 21.5573544,10.35476 14.92,4.57 C6.16415425,9.81374929 0.809272909,19.2740397 0.819810108,29.48 L0.819810108,29.48 Z" id="_Trazado_36" fill="#1BBC9D" opacity="0.3"></path>
                                    </g>
                                    <g id="_Grupo_30" transform="translate(27.000000, 16.000000)" fill="#FFFFFF">
                                        <g id="_Grupo_31">
                                            <g id="_Grupo_32">
                                                <g id="_Grupo_33">
                                                    <rect id="_Trazado_37" x="0.84" y="7.13" width="3.91" height="12.64"></rect>
                                                    <ellipse id="_Trazado_38" cx="2.77" cy="3.14" rx="2.31" ry="2.33"></ellipse>
                                                </g>
                                                <path d="M10.98,13.14 C10.98,11.36 11.8,10.31 13.36,10.31 C14.92,10.31 15.49,11.31 15.49,13.14 L15.49,19.77 L19.38,19.77 L19.38,11.77 C19.38,8.39 17.46,6.77 14.78,6.77 C13.2310743,6.74916084 11.7847879,7.54253055 10.97,8.86 L10.97,7.16 L7.22,7.16 L7.22,19.8 L10.98,19.8 L10.98,13.17 L10.98,13.14 Z" id="_Trazado_39"></path>
                                            </g>
                                        </g>
                                    </g>
                                </g>
                                <g id="_Grupo_34" transform="translate(111.000000, 137.000000)" fill-rule="nonzero">
                                    <g id="_Grupo_35">
                                        <circle id="_Trazado_40" fill="#27DEBF" cx="22.7" cy="23.54" r="22.58"></circle>
                                        <path d="M45.28,23.38 L45.28,23.55 C45.2735735,33.1182855 39.2371803,41.643682 30.2142534,44.827849 C21.1913265,48.0120159 11.1411227,45.1635368 5.13076111,37.7185597 C-0.879600497,30.2735827 -1.54501771,19.8487255 3.47,11.7 C3.15141917,13.2024815 2.99054743,14.7341145 2.99,16.27 C2.98218346,26.8917497 10.6508017,35.9640463 21.1255464,37.7251112 C31.6002912,39.4861761 41.8140051,33.420344 45.28,23.38 Z" id="_Trazado_41" fill="#1BBC9D"></path>
                                    </g>
                                    <g id="_Grupo_36" transform="translate(11.000000, 12.000000)" fill="#FFFFFF">
                                        <g id="_Grupo_37">
                                            <g id="_Grupo_38">
                                                <polygon id="_Trazado_42" points="0.85 3.94 6.28 7.4 11.71 3.94 6.28 0.48"></polygon>
                                                <polygon id="_Trazado_43" points="11.69 3.94 17.12 7.4 22.55 3.94 17.12 0.48"></polygon>
                                                <polygon id="_Trazado_44" points="0.85 10.8 6.28 14.26 11.71 10.8 6.28 7.34"></polygon>
                                                <polygon id="_Trazado_45" points="17.12 7.34 11.69 10.8 17.12 14.26 22.55 10.8"></polygon>
                                                <polygon id="_Trazado_46" points="6.31 15.4 11.74 18.86 17.17 15.4 11.74 11.94"></polygon>
                                            </g>
                                        </g>
                                    </g>
                                </g>
                                <g id="_Grupo_39" transform="translate(68.000000, 96.000000)" fill-rule="nonzero">
                                    <g id="_Grupo_40">
                                        <circle id="_Trazado_47" fill="#27DEBF" cx="31.16" cy="31" r="30.96"></circle>
                                        <path d="M62.1202671,30.78 L62.1202671,31.01 C62.1744546,44.1831113 53.8976276,55.9519639 41.4820786,60.3551411 C29.0665295,64.7583182 15.2241347,60.8340524 6.96664685,50.5701486 C-1.29084103,40.3062449 -2.15977356,25.9446046 4.8,14.76 C4.36297349,16.818048 4.14177701,18.9160631 4.14,21.02 C4.13573335,35.5773194 14.6462331,48.0086611 29.001585,50.4251536 C43.356937,52.8416461 57.3580995,44.5364483 62.1202671,30.78 Z" id="_Trazado_48" fill="#1BBC9D" opacity="0.7"></path>
                                    </g>
                                    <g id="_Grupo_41" transform="translate(17.000000, 15.000000)" fill="#FFFFFF">
                                        <g id="_Grupo_42">
                                            <path d="M14.86,0.199943103 C9.12920236,0.183811242 3.95368889,3.62350151 1.74938112,8.91342882 C-0.454926648,14.2033561 0.74664956,20.3003737 4.79321587,24.3584034 C8.83978218,28.4164331 14.9333763,29.635252 20.2295181,27.4459174 C25.5256599,25.2565829 28.98,20.0908205 28.98,14.36 C28.98,6.55524232 22.6647265,0.222047338 14.86,0.199943103 L14.86,0.199943103 Z M21.37,20.7 C21.254171,20.9031713 21.0588847,21.0488562 20.8311329,21.1019982 C20.6033812,21.1551403 20.3637855,21.110928 20.17,20.98 C16.84,18.93 12.66,18.5 7.71,19.63 C7.39395556,19.7427714 7.04128507,19.6659896 6.80072767,19.4320375 C6.56017027,19.1980853 6.47360169,18.8476887 6.57753232,18.5286277 C6.68146295,18.2095667 6.95780076,17.9773829 7.29,17.93 C12.67,16.73 17.34,17.22 21.03,19.49 C21.2438377,19.5972253 21.4025947,19.7895932 21.467306,20.0198892 C21.5320173,20.2501852 21.4966919,20.4970888 21.37,20.7 L21.37,20.7 Z M23.07,16.81 C22.9211205,17.0566031 22.6790988,17.2327612 22.3986722,17.2986332 C22.1182457,17.3645052 21.8231045,17.3145263 21.58,17.16 C17.2916623,14.7500678 12.2152938,14.1628087 7.49,15.53 C6.94878695,15.6370736 6.41388065,15.319021 6.24946769,14.7923857 C6.08505473,14.2657504 6.34399882,13.6998616 6.85,13.48 C12.2009417,11.950422 17.9423204,12.6388108 22.78,15.39 C23.2397438,15.6919607 23.3693122,16.3085275 23.07,16.77 L23.07,16.81 Z M23.21,12.81 C18.68,10.12 11.1,9.81 6.78,11.18 C6.09516691,11.4009139 5.3609139,11.0248331 5.14,10.34 C4.9190861,9.65516691 5.29516691,8.9209139 5.98,8.7 C10.98,7.21 19.29,7.5 24.53,10.61 C25.1661501,10.9877154 25.387497,11.8022718 25.03,12.45 C24.5845066,12.9775174 23.8334438,13.1269 23.22,12.81 L23.21,12.81 Z" id="_Trazado_compuesto_5"></path>
                                        </g>
                                    </g>
                                </g>
                                <g id="_Grupo_43" transform="translate(77.000000, 157.000000)" fill-rule="nonzero">
                                    <g id="_Grupo_44">
                                        <circle id="_Trazado_49" fill="#27DEBF" cx="21.29" cy="21.29" r="21.11"></circle>
                                        <path d="M42.4,21.13 L42.4,21.29 C42.3839572,30.2257802 36.7409041,38.1825039 28.3131311,41.1525321 C19.8853581,44.1225603 10.5005957,41.4617833 4.88575669,34.5103799 C-0.729082302,27.5589765 -1.35630814,17.8244972 3.32,10.21 C3.02188855,11.613807 2.87107193,13.0448891 2.87,14.48 C2.88628772,24.393798 10.0508761,32.8502352 19.827315,34.4948929 C29.6037539,36.1395506 39.1408768,30.4927865 42.4,21.13 L42.4,21.13 Z" id="_Trazado_50" fill="#1BBC9D"></path>
                                    </g>
                                    <g id="_Grupo_45" transform="translate(12.000000, 9.000000)" fill="#FFFFFF">
                                        <g id="_Grupo_46">
                                            <path d="M0.79,10.7 C0.787377579,13.5249121 2.04603245,16.2035013 4.22236239,18.0045352 C6.39869234,19.8055692 9.26543731,20.5409775 12.04,20.01 C14.2301721,21.3417469 17.0484427,20.9938465 18.8490077,19.1694645 C20.6495727,17.3450826 20.9604108,14.5224838 19.6,12.35 C19.697555,11.8053637 19.7477427,11.2532997 19.75,10.7 C19.7503127,7.88091835 18.4959609,5.20793849 16.3274335,3.40663052 C14.1589061,1.60532256 11.3011895,0.8625736 8.53,1.38 C6.34858655,0.0879319808 3.56796612,0.444773908 1.78349375,2.24579105 C-0.000978616109,4.0468082 -0.332144269,6.83060335 0.98,9 C0.865620471,9.55979167 0.802028871,10.1287691 0.79,10.7 Z M10.37,3.97 C13.43,4.15 15.22,5.49 15.37,6.75 C15.4242887,7.14239803 15.2952784,7.5379823 15.0200899,7.82292925 C14.7449014,8.10787621 14.3540509,8.25058748 13.96,8.21 C12.58,8.21 12.44,6.37 10.06,6.37 C8.99,6.37 8.06,6.82 8.06,7.78 C8.06,9.78 15.69,8.63 15.69,13.09 C15.69,15.66 13.63,17.34 10.56,17.34 C7.86,17.34 5.15,16.12 5.16,14.01 C5.13716351,13.3693267 5.63002477,12.8276233 6.27,12.79 C7.86,12.79 7.85,15.15 10.38,15.15 C12.16,15.15 12.76,14.15 12.76,13.51 C12.76,11.07 5.09,12.57 5.09,7.98 C5.13,5.47 7.17,3.76 10.37,3.95 L10.37,3.97 Z" id="_Trazado_compuesto_6"></path>
                                        </g>
                                    </g>
                                </g>
                                <g id="_Grupo_47" transform="translate(0.000000, 107.000000)">
                                    <g id="_Grupo_48" fill-rule="nonzero">
                                        <circle id="_Trazado_51" fill="#27DEBF" cx="25.18" cy="25.84" r="24.99"></circle>
                                        <path d="M50.16,25.7 L50.16,25.89 C50.137604,36.4842046 43.4400792,45.9139635 33.4444346,49.4246275 C23.44879,52.9352914 12.3256999,49.7644776 5.6836209,41.5109657 C-0.95845812,33.2574537 -1.67711886,21.7135931 3.89,12.7 C3.53763527,14.3636123 3.36000482,16.0594804 3.36,17.76 C3.32057642,29.5254219 11.7956699,39.5936618 23.3953995,41.5616501 C34.9951292,43.5296384 46.3167148,36.8200658 50.16,25.7 Z" id="_Trazado_52" fill="#1BBC9D" opacity="0.5"></path>
                                    </g>
                                    <g id="_Grupo_49" transform="translate(15.000000, 13.000000)" fill="#FFFFFF">
                                        <g id="_Grupo_50">
                                            <path d="M19.74,14.55 L19.74,14.55 C19.5443111,14.4487865 19.3357175,14.3747694 19.12,14.33 L19.12,14.33 C18.1060813,13.9837095 17.2206355,13.3387982 16.58,12.48 C16.2153704,12.0198598 15.9220845,11.5074522 15.71,10.96 L15.71,10.96 C15.6097493,10.7549297 15.6097493,10.5150703 15.71,10.31 L15.71,10.31 C15.9393339,10.0426577 16.2416889,9.84803838 16.58,9.75 L16.58,9.75 C17.0097117,9.62647262 17.4107425,9.41916006 17.76,9.14 L17.76,9.14 C17.8321032,9.08000994 17.8901391,9.00490461 17.93,8.92 C17.9332443,8.89343201 17.9332443,8.86656799 17.93,8.84 C17.9676069,8.7400883 17.9676069,8.6299117 17.93,8.53 L17.93,8.53 C17.8337318,8.36323758 17.6913645,8.22781503 17.52,8.14 L17.52,8.14 C17.3031396,8.01828736 17.0442102,7.996406 16.81,8.08 L16.81,8.08 C16.604535,8.15486638 16.3940034,8.21501827 16.18,8.26 L16.18,8.26 C15.9469903,8.31883785 15.7030097,8.31883785 15.47,8.26 C15.47,8.26 15.47,8.17 15.47,8.1 L15.47,8.1 C15.47,7.67 15.47,7.23 15.47,6.76 L15.47,6.76 C15.515758,6.04657321 15.4990275,5.33051124 15.42,4.62 L15.42,4.62 C15.1685122,3.39809645 14.4511849,2.32210551 13.42,1.62 C12.7023611,1.10290683 11.8603922,0.78544317 10.98,0.7 L10.98,0.7 C10.68,0.7 10.39,0.7 10.1,0.7 C8.89291981,0.678232002 7.71221004,1.05423184 6.74,1.77 C6.02314025,2.3310157 5.45912615,3.06354622 5.1,3.9 L5.1,3.9 C4.82337983,4.73704206 4.73460836,5.62475676 4.84,6.5 L4.84,6.5 C4.87966993,7.06930978 4.87966993,7.64069022 4.84,8.21 L4.84,8.21 C4.56229217,8.26066783 4.27770783,8.26066783 4,8.21 L4,8.21 C3.78026547,8.16168656 3.56328596,8.10159992 3.35,8.03 L3.35,8.03 C3.12963103,7.98216492 2.8993688,8.0333343 2.72,8.17 L2.72,8.17 C2.52062715,8.27042883 2.38799147,8.46748755 2.37,8.69 L2.37,8.69 C2.39955726,8.82904413 2.47752134,8.9530779 2.59,9.04 L2.81,9.21 L2.81,9.21 C3.22688437,9.44959471 3.66974957,9.64083196 4.13,9.78 L4.13,9.78 C4.39713368,9.87463065 4.61157012,10.0781635 4.72,10.34 C4.75445073,10.6894969 4.67368019,11.0406732 4.49,11.34 L4.49,11.34 C4.02405025,12.2604357 3.3368174,13.0507535 2.49,13.64 C2.04108872,13.9442757 1.54413917,14.1707765 1.02,14.31 L1.02,14.31 C0.815306728,14.3416161 0.629830431,14.4486216 0.5,14.61 L0.5,14.67 C0.46051686,14.8131451 0.494191767,14.966553 0.59,15.08 C0.651228924,15.1508066 0.726037585,15.2086133 0.81,15.25 L0.81,15.25 C1.23910524,15.469538 1.69690601,15.6277486 2.17,15.72 L2.17,15.72 C2.45919432,15.7636819 2.74373614,15.8339805 3.02,15.93 L3.11,16.16 C3.19,16.4 3.23,16.68 3.32,16.98 C3.34743643,17.0634311 3.41513852,17.1273719 3.5,17.15 C3.60654303,17.1890008 3.72345697,17.1890008 3.83,17.15 L3.83,17.15 C4.53369947,16.9769033 5.26538263,16.9496779 5.98,17.07 L5.98,17.07 C6.69244755,17.3421806 7.36512393,17.7087892 7.98,18.16 L7.98,18.16 C8.45552553,18.4946722 9.01082529,18.6981671 9.59,18.75 L9.59,18.75 C10.046258,18.7773208 10.503742,18.7773208 10.96,18.75 L10.96,18.75 C11.3437186,18.7116143 11.7133552,18.5849795 12.04,18.38 L12.04,18.38 C12.77,17.96 13.42,17.47 14.13,17.15 L14.13,17.15 C14.4048559,17.0824349 14.6869638,17.0488506 14.97,17.05 L14.97,17.05 C15.5614603,17.0323443 16.153381,17.062442 16.74,17.14 L16.8,17.14 C16.8776288,17.1282906 16.9485402,17.0892893 17,17.03 C17.0313345,16.9928558 17.0520634,16.9479432 17.06,16.9 C17.06,16.84 17.06,16.81 17.06,16.9 L17.06,16.9 C17.1157594,16.5906719 17.2312436,16.2951683 17.4,16.03 C17.5020517,15.9496615 17.6304737,15.9104215 17.76,15.92 L17.76,15.92 C18.2400168,15.8438347 18.7097397,15.7129833 19.16,15.53 L19.16,15.53 C19.3821518,15.4598675 19.5798193,15.3280892 19.73,15.15 L19.73,15.15 C19.7929992,15.0594916 19.8158384,14.9469899 19.7931205,14.8390799 C19.7704027,14.7311699 19.7041433,14.6374258 19.61,14.58 L19.61,14.58 L19.74,14.55 Z" id="_Trazado_53"></path>
                                        </g>
                                    </g>
                                </g>
                                <g id="_Grupo_51" transform="translate(89.000000, 57.000000)">
                                    <g id="_Grupo_52" fill-rule="nonzero">
                                        <circle id="_Trazado_54" fill="#27DEBF" cx="26.19" cy="26.14" r="26.07"></circle>
                                        <path d="M52.26,25.95 L52.26,26.15 C52.2436312,37.1927574 45.2717401,47.0272819 34.8570864,50.6984872 C24.4424327,54.3696925 12.8445831,51.0810728 5.90706803,42.489586 C-1.030447,33.8980992 -1.8024619,21.8677571 3.98,12.46 C3.61065668,14.1924256 3.42297509,15.9586434 3.42,17.73 C3.41496735,29.9935193 12.2690467,40.4666658 24.362481,42.5020473 C36.4559153,44.5374287 48.2504513,37.5395406 52.26,25.95 Z" id="_Trazado_55" fill="#1BBC9D" opacity="0.5"></path>
                                    </g>
                                    <g id="_Grupo_53" transform="translate(17.000000, 14.000000)" fill="#FFFFFF">
                                        <g id="_Grupo_54">
                                            <g id="_Grupo_55">
                                                <path d="M18.56,9.06 C18.380861,4.28189456 14.4776408,0.488458308 9.69636982,0.445672886 C4.91509888,0.402887463 0.944617648,4.12586554 0.68,8.9 C0.68,9.03 0.68,9.16 0.68,9.29 C0.676939269,10.9085306 1.1198066,12.4966252 1.96,13.88 L0.35,18.64 L5.35,17.06 C8.1152467,18.5509529 11.4578171,18.4920872 14.1688512,16.9046919 C16.8798854,15.3172966 18.5669847,12.4311334 18.62,9.29 C18.56,9.21 18.56,9.13 18.56,9.06 Z M9.62,16.7500101 C8.1481395,16.7524214 6.70818767,16.3211315 5.48,15.51 L2.59,16.43 L3.53,13.66 C2.59874206,12.3897009 2.0977148,10.855086 2.1,9.28 C2.08764897,9.0401589 2.08764897,8.7998411 2.1,8.56 C2.48211876,4.67887165 5.76432012,1.73173376 9.66404411,1.76813118 C13.5637681,1.8045286 16.7903892,4.81241551 17.1,8.7 C17.1,8.89 17.1,9.09 17.1,9.28 C17.0835239,13.4026236 13.7426419,16.7390392 9.62,16.7500101 Z" id="_Trazado_compuesto_7"></path>
                                                <path d="M13.72,11.08 C13.5,10.97 12.42,10.44 12.22,10.37 C12.1416901,10.3152622 12.0439628,10.2959998 11.9507388,10.3169276 C11.8575149,10.3378554 11.7773986,10.3970419 11.73,10.48 C11.58,10.7 11.16,11.19 11.03,11.33 C10.9731731,11.4005712 10.8905285,11.4455411 10.8004092,11.4549285 C10.71029,11.4643159 10.6201515,11.4373443 10.55,11.38 C9.90468614,11.1257011 9.30898988,10.7601602 8.79,10.3 C8.31093557,9.86351485 7.8997347,9.35794 7.57,8.8 C7.47666196,8.6507895 7.52133896,8.45421071 7.67,8.36 C7.77,8.26 7.89,8.1 8,7.98 L8.08,7.88 C8.1318519,7.79622707 8.17860346,7.70940274 8.22,7.62 C8.28588303,7.50190026 8.28588303,7.35809974 8.22,7.24 C8.17,7.13 7.73,6.06 7.54,5.62 C7.35,5.18 7.18,5.26 7.05,5.26 L6.63,5.26 C6.40430303,5.26385808 6.19045366,5.36172135 6.04,5.53 C5.53815223,6.00092957 5.25851468,6.66189105 5.27,7.35 C5.27303441,7.60050604 5.31003849,7.84944259 5.38,8.09 C5.55081396,8.63461476 5.81471877,9.14550741 6.16,9.6 C7.07231533,11.0266867 8.36863663,12.1670335 9.9,12.89 C12.13,13.76 12.13,13.47 12.53,13.43 C13.1430269,13.3221368 13.6811941,12.9585103 14.01,12.43 C14.1477271,12.1158615 14.1928307,11.768911 14.14,11.43 C14.0298852,11.2815369 13.8858861,11.1615376 13.72,11.08 Z" id="_Trazado_56"></path>
                                            </g>
                                        </g>
                                    </g>
                                </g>
                            </g>
                            <g id="_Grupo_56" transform="translate(234.000000, 192.000000)" fill-rule="nonzero">
                                <g id="_Grupo_57" transform="translate(0.000000, 163.000000)" fill="#D9EEFF">
                                    <path d="M10.39,29.42 C24.22,36.01 46.65,36.01 60.48,29.42 C74.31,22.83 74.31,12.14 60.48,5.55 C46.65,-1.04 24.22,-1.04 10.39,5.55 C-3.44,12.14 -3.44,22.83 10.39,29.42 Z" id="_Trazado_57"></path>
                                </g>
                                <g id="_Grupo_58" transform="translate(6.000000, 0.000000)">
                                    <g id="_Grupo_59" transform="translate(36.000000, 33.000000)">
                                        <path d="M10.86,32.8 C11.32,33.95 14.19,40.02 18.01,37.12 C22.62,33.63 28.41,17.8 28.41,17.8 L24.16,15.8 L15.98,29.07 L10.85,32.8" id="_Trazado_58" fill="#F28F8F"></path>
                                        <path d="M11.13,7.28 C13.13,14.12 17.27,29.36 17.27,29.36 C17.27,29.36 15.57,38.65 12.58,35.46 C11.58,34.37 11.04,33.37 9.99,30.78 C9.04,28.44 6.23,18.9 6.23,18.9 C6.23,18.9 6.84,5.19 4.7,3.37 C3.54778289,2.34629656 2.21508691,1.54600076 0.77,1.01 C4.18,1.28 9.26,1.01 11.13,7.28 Z" id="_Trazado_59" fill="#F28F8F"></path>
                                        <path d="M0.73,0.98 C2.4521079,0.879187679 4.18009655,0.976491895 5.88,1.27 C7.88,1.74 10.04,3.61 11.02,6.92 C12,10.23 16.17,25.29 16.17,25.29 C16.17,25.29 14.48,28.29 8.05,28.35 L0.73,0.98 Z" id="_Trazado_60" fill="#FFC000"></path>
                                        <path d="M20.72,8.26 C21.85,6.16 22.13,6.06 22.8,5.6 C23.47,5.14 27.6,4.52 29.31,4.38 C31.31,4.21 32.04,4.58 31.48,6.31 C29.9364105,10.6719745 28.0505406,14.9051506 25.84,18.97 C25.31,19.68 25.2,20.34 22.93,20.56 C20.66,20.78 18.16,20.88 17.38,20.93 C16.6,20.98 15.52,21.17 16.22,18.87 C17.1114017,16.2727111 18.1429145,13.7256424 19.31,11.24 C20.18,9.36 20.72,8.26 20.72,8.26 Z" id="_Trazado_61" fill="#002176"></path>
                                        <path d="M28.41,17.8 C29.25,14.08 31.73,10.65 30.33,9.39 L29.58,11.03 C29.58,11.03 24.95,12.14 22.72,11.97 C20.49,11.8 18.66,11.27 18.05,11.7 C16.75,12.61 16.38,16.51 20.05,17.92 C23.25,19.13 28.41,17.8 28.41,17.8 Z" id="_Trazado_62" fill="#F28F8F"></path>
                                    </g>
                                    <g id="_Grupo_60" transform="translate(17.000000, 0.000000)" fill="#002176">
                                        <path d="M17.36,29.2300152 L13.46,29.2300152 C6.16431845,29.2300152 0.25,23.3156815 0.25,16.02 L0.25,16.02 C0.25,7.64184035 7.04184035,0.85 15.42,0.85 L15.42,0.85 C23.7981597,0.85 30.59,7.64184035 30.59,16.02 L30.59,16.02 C30.59,19.5269778 29.1954951,22.8900275 26.7138122,25.3679588 C24.2321293,27.84589 20.8669738,29.2353096 17.36,29.2300152 Z" id="_Rectángulo_"></path>
                                    </g>
                                    <path d="M9.98,37.34 L9.98,37.34 C15.1052025,37.34 19.26,33.1852025 19.26,28.06 L19.26,10.47 L19.26,10.47 C14.1542604,10.47 10.0075094,14.5943345 9.98,19.7 L9.98,37.29 L9.98,37.34 Z" id="_Rectángulo_2" fill="#002176"></path>
                                    <g id="_Grupo_61" transform="translate(25.000000, 166.000000)" fill="#002176">
                                        <path d="M9.74,2.27 C9.69560525,3.00793201 9.88074697,3.74151243 10.27,4.37 C11.2543464,6.0049646 12.4145797,7.52735161 13.73,8.91 C15.58,10.91 18.35,13.25 20.34,14.99 C21.44,15.99 21.49,17.41 19.91,17.92 C16.9650532,18.6402767 13.8561574,18.2073925 11.22,16.71 C9.22,15.65 6.44,10.71 4.8,10.01 C2.91,9.16 1.85,8.73 1.22,7.86 C0.223082961,6.84076115 0.0652785868,5.26687015 0.84,4.07 C1.73,2.42 3.06,-0.14 3.61,0.15 L3.44,0.68 C3.87,2.03 7.55,3.6 9.44,3.23 L9.74,2.27 Z" id="_Trazado_63"></path>
                                    </g>
                                    <path d="M36.4,161.76 C35.6755432,163.892954 35.1204879,166.079739 34.74,168.3 C34.6874357,169.032373 34.8733716,169.762084 35.27,170.38 C36.2600162,172.016808 37.4233872,173.542266 38.74,174.93 C39.64,175.93 40.74,176.93 41.9,177.93 C41.9962011,178.072369 42.0515392,178.238384 42.06,178.41 C42.06,179.41 39.55,179.72 38.06,179.29 C36.2132577,178.635572 34.6206985,177.414027 33.51,175.8 C32.66,174.67 30.75,172.49 29.51,170.87 C29.0969364,170.366373 28.7445173,169.815928 28.46,169.23 C28.1297423,168.493539 28.0764771,167.662601 28.31,166.89 L28.39,166.65 C29.0413017,164.626291 29.4442555,162.530931 29.59,160.41" id="_Trazado_64" fill="#FFA8A7"></path>
                                    <path d="M18.98,170.52 C19.2937801,172.420572 19.4509749,174.3437 19.45,176.27 L19.45,180.53 L25.76,180.53 L25.76,173.27 C25.7896795,173.276202 25.8203205,173.276202 25.85,173.27 C25.85,173.27 25.96,171.84 26.13,169.61" id="_Trazado_65" fill="#FFA8A7"></path>
                                    <g id="_Grupo_62" transform="translate(13.000000, 77.000000)" fill="#2460DA">
                                        <path d="M23.4,84.76 C26.88,73.48 34.65,53.3 35.71,49.76 C36.84,45.98 35.23,12.96 34.3,2.38 L1.67,0.65 C-0.83,11.37 1.6,25.82 2.46,34.84 C3.29,43.62 4.33,53.89 4.33,53.89 C4.33,53.89 1.76,62.84 2.44,69.97 C2.88,74.46 4.98,87.7 5.98,93.52 C8.39942299,94.1843675 10.9856847,93.8226526 13.13,92.52 C13.53,87.43 14.3,78.16 15.01,72.1 C16.1,63 16.46,56.35 17.39,51.04 C18.56,44.41 18.97,18.42 18.97,18.42 L22.76,47.9 C21.260849,50.6633907 20.121591,53.6073139 19.37,56.66 C18.29,60.85 17.12,76.58 16.66,83.39 C18.3,84.59 20.58,85.01 23.4,84.76 Z" id="_Trazado_66"></path>
                                    </g>
                                    <path d="M31.98,95.46 C31.98,95.46 37.98,93.35 41.41,90.21 C39.7029851,92.8812739 37.276628,95.0164682 34.41,96.37 L34.41,113.63 L31.98,95.46" id="_Trazado_67" fill="#2343BA"></path>
                                    <g id="_Grupo_63" transform="translate(14.000000, 33.000000)" fill="#FFDB4C">
                                        <path d="M13.17,1.29 C13.17,1.29 4.24,2.29 3.17,2.8 C8.61,8.8 5.26,17.85 5.26,17.85 L7.98,31.85 C4.41,36.42 1.35,40.01 0.49,45.46 C4.32,52.2 25.69,53.35 33.57,48.32 C32.88,38.91 30.03,32.19 30.57,29.32 C34.32,17.76 34.57,15.68 33.89,13.1 C32.02,5.84 24.62,0.94 22.79,0.94 L13.17,1.29 Z" id="_Trazado_68"></path>
                                    </g>
                                    <path d="M1.07,65.79 C0.45,64.17 3.07,59.57 4.94,56.49 L12.59,60.26 L9.98,65.04 C11.4937471,69.5047309 13.3388803,73.8501534 15.5,78.04 C15.8715619,78.6863317 16.4704681,79.1711606 17.18,79.4 C18.7458706,80.0347906 20.2111822,80.8937663 21.53,81.95 C22.74,82.74 23.63,82.8 23.53,83.15 C23.3179424,83.9841758 22.497092,84.5124891 21.65,84.36 C20.7445002,84.2258329 19.8582385,83.9841252 19.01,83.64 C19.9319756,84.996186 21.0665268,86.1948934 22.37,87.19 C25.37,89.48 25.86,91.19 21.2,92.33 C18.28,93.04 15.53,91.79 11.81,85.86 C10.74,84.15 9.33,81.65 8.21,79.35 C5.6,73.98 2.52,69.54 1.07,65.79 Z" id="_Trazado_69" fill="#FFA8A7"></path>
                                    <path d="M17.17,35.8 C14.49,36.1 12.63,38.8 10.17,43.45 C8.06,47.45 2.98,58.06 2.98,58.06 C5.17341567,60.9112564 8.41199737,62.7716416 11.98,63.23 L19.27,50.85 C19.27,50.85 23.23,40.99 17.17,35.8 Z" id="_Trazado_70" fill="#FFDB4C"></path>
                                    <g id="_Grupo_64" transform="translate(18.000000, 176.000000)" fill="#002176">
                                        <path d="M7.75,1.41 L7.75,0.51 C8.52888763,3.49557465 10.0850376,6.22142498 12.26,8.41 C14.26,10.23 16.97,12.32 17.66,14.35 C18.35,16.38 14.45,17.29 11.88,17.03 C9.38055018,16.7226357 7.07779812,15.5179552 5.4,13.64 C3.76,11.76 3.79,10.48 3.03,9.44 C2.27,8.4 0.5,7.25 0.09,6.05 C-0.0351304782,4.93361835 0.0877959119,3.80337849 0.45,2.74 C0.74,1.62 1.06,0.4 1.45,0.5 C1.45,0.64 1.45,1.19 1.45,1.19 C2.34976683,1.89792918 3.46522943,2.27563329 4.61,2.26 C5.51,2.3 7.75,2.12 7.75,1.41 Z" id="_Trazado_71"></path>
                                    </g>
                                    <g id="_Grupo_65" transform="translate(19.000000, 176.000000)" fill="#FFA8A7">
                                        <path d="M0.43,1.2 C1.32976683,1.90792918 2.44522943,2.28563329 3.59,2.27 C4.51,2.27 6.75,2.12 6.75,1.42 L6.75,0.52 C7.52888763,3.50557465 9.08503763,6.23142498 11.26,8.42 C11.74,8.85 12.26,9.31 12.78,9.77 C13.84,10.95 13.54,11.98 11.05,12.19 C8.56,12.4 6.37,10.9 4.48,8.58 C2.87871976,6.26648959 1.52147228,3.79328307 0.43,1.2 L0.43,1.2 Z" id="_Trazado_72"></path>
                                    </g>
                                    <g id="_Grupo_66" transform="translate(21.000000, 6.000000)" fill="#FFA8A7">
                                        <path d="M21.59,0.99 C23.19,1.94 25.17,5.99 24.98,14.41 C24.81,21.57 22.49,23.34 21.33,23.85 C20.17,24.36 17.92,24.05 15.73,23.69 L15.73,27.99 C15.73,27.99 18.73,31.5 18.56,33.47 C18.39,35.44 14.2,35.91 11.38,33.98 C9.3374148,32.3949134 7.57905023,30.4742383 6.18,28.3 L6.18,18.42 C6.18,18.42 4.89,19.67 2.71,17.76 C0.91,16.19 0.3,13.53 1.71,12.11 C2.44943668,11.4210298 3.47529936,11.1300958 4.46633925,11.3283038 C5.45737914,11.5265117 6.29243159,12.1896288 6.71,13.11 C6.71,13.11 7.92,9.74 12.96,8.11 C17.53,6.6 19.98,4.89 21.59,0.99 Z" id="_Trazado_73"></path>
                                    </g>
                                    <g id="_Grupo_67" transform="translate(36.000000, 17.000000)" fill="#002176">
                                        <ellipse id="_Trazado_74" transform="translate(1.107156, 1.620415) rotate(-2.720000) translate(-1.107156, -1.620415) " cx="1.10715644" cy="1.62041544" rx="1" ry="1"></ellipse>
                                    </g>
                                    <g id="_Grupo_68" transform="translate(38.000000, 24.000000)" fill="#F28F8F">
                                        <path d="M0.23,0.7 L2.32,1.37 C2.24347465,1.65262434 2.05547561,1.89206514 1.79907776,2.03346101 C1.54267992,2.17485688 1.23985964,2.20608851 0.96,2.12 C0.374189354,1.92023424 0.0515605356,1.2926549 0.23,0.7 L0.23,0.7 Z" id="_Trazado_75"></path>
                                    </g>
                                    <g id="_Grupo_69" transform="translate(43.000000, 14.000000)" fill="#002176">
                                        <path d="M2.37,1.85 L0.55,0.59 C0.703506324,0.341966134 0.952439589,0.168151355 1.23817359,0.109490731 C1.5239076,0.0508301079 1.82118714,0.112508483 2.06,0.28 C2.56557067,0.63686586 2.70198851,1.32775621 2.37,1.85 L2.37,1.85 Z" id="_Trazado_76"></path>
                                    </g>
                                    <g id="_Grupo_70" transform="translate(35.000000, 14.000000)" fill="#002176">
                                        <path d="M0.37,2.51 L2.19,1.25 C2.03649368,1.00196613 1.78756041,0.828151355 1.50182641,0.769490731 C1.2160924,0.710830108 0.91881286,0.772508483 0.68,0.94 C0.174429329,1.29686586 0.0380114884,1.98775621 0.37,2.51 Z" id="_Trazado_77"></path>
                                    </g>
                                    <g id="_Grupo_71" transform="translate(43.000000, 16.000000)" fill="#002176">
                                        <ellipse id="_Trazado_78" transform="translate(1.068469, 1.970860) rotate(-2.720000) translate(-1.068469, -1.970860) " cx="1.06846927" cy="1.97086007" rx="1" ry="1"></ellipse>
                                    </g>
                                    <g id="_Grupo_72" transform="translate(40.000000, 17.000000)" fill="#F28F8F">
                                        <polygon id="_Trazado_79" points="0.7 0.44 0.84 5.86 3.7 4.98"></polygon>
                                    </g>
                                    <g id="_Grupo_73" transform="translate(28.000000, 26.000000)" fill="#F28F8F">
                                        <path d="M8.73,3.7 C6.43,3.4 1.73,2.04 0.95,0.17 C1.24566212,1.11779649 1.82508195,1.95202143 2.61,2.56 C4.02,3.77 8.73,5.14 8.73,5.14 L8.73,3.7 L8.73,3.7 Z" id="_Trazado_80"></path>
                                    </g>
                                    <g id="_Grupo_74" transform="translate(20.000000, 56.000000)" fill="#FFC000">
                                        <polygon id="_Trazado_81" points="0.41 0.79 6.73 11.91 1.98 8.87"></polygon>
                                    </g>
                                </g>
                            </g>
                            <g id="_Grupo_75" transform="translate(11.000000, 189.000000)" fill-rule="nonzero">
                                <path d="M24.74,75.04 C24.21,76.38 20.88,83.41 16.45,80.04 C11.11,75.99 4.39,57.64 4.39,57.64 L9.32,55.36 L18.79,70.7 L24.74,75.03" id="_Trazado_82" fill="#F28F8F"></path>
                                <path d="M24.42,45.45 C22.06,53.38 17.3,71.05 17.3,71.05 C17.3,71.05 19.3,81.83 22.74,78.12 C23.92,76.86 24.52,75.7 25.74,72.69 C26.84,69.98 30.1,58.92 30.1,58.92 C30.1,58.92 29.4,43.02 31.88,40.92 C33.2174483,39.7349523 34.7637803,38.8091877 36.44,38.19 C32.48,38.49 26.59,38.18 24.42,45.45 Z" id="_Trazado_83" fill="#F28F8F"></path>
                                <path d="M13.31,46.59 C12,44.15 11.67,44.04 10.9,43.51 C10.13,42.98 5.34,42.26 3.36,42.09 C1.03,41.89 0.2,42.32 0.85,44.33 C2.24,48.63 6.45,57.75 7.39,59.01 C8.01,59.84 8.14,60.6 10.76,60.86 C13.21,61.1 16.29,61.23 17.19,61.29 C18.09,61.35 19.35,61.57 18.54,58.91 C17.5075683,55.8974373 16.3124793,52.9430971 14.96,50.06 C13.98,47.86 13.31,46.59 13.31,46.59 Z" id="_Trazado_84" fill="#002176"></path>
                                <path d="M4.39,57.65 C3.39,53.34 0.55,49.36 2.16,47.9 L3.03,49.81 C3.03,49.81 8.39,51.1 11.03,50.9 C13.67,50.7 15.74,50.09 16.45,50.59 C17.95,51.65 18.39,56.17 14.08,57.8 C10.38,59.19 4.39,57.65 4.39,57.65 Z" id="_Trazado_85" fill="#F28F8F"></path>
                                <path d="M36.81,36.77 C32.06,36.77 26.81,38.55 25.03,42.27 C23.25,45.99 19.16,62.21 19.16,62.21 C21.9419822,64.7763896 25.6807648,66.0444509 29.45,65.7 L36.81,36.77 Z" id="_Trazado_86" fill="#FFC000"></path>
                                <path d="M14.04,196.57 C27.6,203.03 49.58,203.03 63.14,196.57 C76.7,190.11 76.7,179.63 63.14,173.17 C49.58,166.71 27.6,166.71 14.04,173.17 C0.48,179.63 0.48,190.11 14.04,196.57 Z" id="_Trazado_87" fill="#D9EEFF"></path>
                                <g id="_Grupo_76" transform="translate(12.000000, 0.000000)">
                                    <g id="_Grupo_77">
                                        <g id="_Grupo_78">
                                            <rect id="_Rectángulo_3" fill="#FFA8A7" x="38.84" y="173.86" width="6.57" height="9.56"></rect>
                                            <rect id="_Rectángulo_4" fill="#FFA8A7" transform="translate(19.189025, 166.911192) rotate(-1.970000) translate(-19.189025, -166.911192) " x="15.9040247" y="162.131192" width="6.57" height="9.56"></rect>
                                            <path d="M44.98,80.5 C44.98,86.77 45.79,127.34 45.79,127.34 C45.94,129.14 47.63,132.47 47.27,139.4 C46.77,148.81 45.96,174.97 45.96,174.97 C45.96,174.97 42.88,178.02 38.53,174.97 C38.53,174.97 32.58,139.43 31.41,130.1 C30.41,121.96 28.64,99.84 28.64,99.84 L22.55,125.84 C22.55,125.84 23.62,131.96 23.86,136.28 C24.1,140.6 22.75,165.55 22.75,165.55 C20.5844534,166.905703 17.8616223,167.008523 15.6,165.82 C15.6,165.82 10.32,129.36 9.6,125.46 C8.88,121.56 14.22,80.46 14.22,80.46 L44.98,80.46 L44.98,80.5 Z" id="_Trazado_88" fill="#2460DA"></path>
                                            <path d="M35.09,37.07 L35.18,37.07 C40.9695746,38.5402761 45.0121422,43.7667385 44.9801903,49.74 L44.9801903,80.5 C40.37,85.5 24.32,87.84 14.26,80.5 L14.26,48.5 C14.26,43.38 17.1,37.24 24.95,36.78 L35.09,37.07 Z" id="_Trazado_89" fill="#FFDB4C"></path>
                                            <g id="_Grupo_79" transform="translate(11.000000, 0.000000)">
                                                <g id="_Grupo_80">
                                                    <path d="M26.3,10.89 C27.3690364,10.7594007 28.4386734,11.128241 29.2,11.89 C30.44,13.16 30.2,15.52 29.2,20.89 L25.36,21.33 L26.3,10.89 Z" id="_Trazado_90" fill="#002176"></path>
                                                    <path d="M3.89,9.32 C3.06481646,9.32344263 2.24779297,9.15663366 1.49,8.83 C0.31,8.15 -1.42108547e-14,9.49 0.65,10.66 C1.51198888,12.3691587 3.20198783,13.5059293 5.11,13.66 C5.11,13.49 6.21,10.66 6.21,10.66 L3.89,9.32 Z" id="_Trazado_91" fill="#002176"></path>
                                                    <path d="M24.5,21.39 C25.07,21.73 25.88,20.63 26.59,19.9 C27.153022,19.2574825 28.0071027,18.9499802 28.8504786,19.0861397 C29.6938546,19.2222992 30.4077759,19.7829488 30.74,20.57 C31.91,23.03 29.74,26.28 27.92,26.85 C24.8,27.85 24.34,25.85 24.34,25.85 L24.1,37.09 C22.7046223,40.1563048 19.8591106,42.3139319 16.53,42.83 C11,43.58 12.14,39.02 13.96,36.83 L13.96,33.41 C12.571902,33.633377 11.163839,33.7071327 9.76,33.63 C7.47,33.28 6.03,31.47 5.33,28.99 C4.21,24.99 3.79,21.79 4.74,13.99 C5.74,5.4 15.74,5.31 21.17,8.71 C26.6,12.11 24.5,21.39 24.5,21.39 Z" id="_Trazado_92" fill="#FFA8A7"></path>
                                                    <path d="M24.5,22.35 C24.79,22.35 25.88,20.54 26.59,19.9 C27.59,19 26.3,10.9 26.3,10.9 C26.3,10.9 27.3,7.82 25.35,5.78 C23.4,3.74 19.64,4.08 16.88,3.98 C13.4944894,3.99348255 10.1421527,3.31280503 7.03,1.98 C3.12,0.28 2.82,0.08 2.34,1.8 C1.86,3.52 1.67,7.46 4.01,10.09 L5.95,10.8 C5.95,10.8 6.95,11.73 10.65,12.18 C14.0218419,12.4336532 17.4100555,12.3700405 20.77,11.99 C21.83,11.85 22.05,12.87 22.63,15.67 C23.12,18.16 23.53,22.33 24.5,22.35 Z" id="_Trazado_93" fill="#002176"></path>
                                                    <path d="M26.3,11.52 L29.75,9.67 C29.5269794,9.20129647 29.1219133,8.84423981 28.6289279,8.68180019 C28.1359425,8.51936057 27.5979627,8.56568176 27.14,8.81 C26.1834184,9.34584073 25.8141817,10.5370685 26.3,11.52 L26.3,11.52 Z" id="_Trazado_94" fill="#002176"></path>
                                                    <path d="M13.98,33.35 C13.98,33.35 19.1,32.35 20.89,31.35 C21.9412405,30.8006646 22.8021363,29.9467397 23.36,28.9 C23.0919045,29.9474868 22.6157898,30.9303236 21.96,31.79 C20.65,33.46 13.96,34.69 13.96,34.69 L13.96,33.33 L13.98,33.35 Z" id="_Trazado_95" fill="#F28F8F"></path>
                                                </g>
                                                <g id="_Grupo_81" transform="translate(5.000000, 15.000000)">
                                                    <ellipse id="_Trazado_96" fill="#002176" transform="translate(11.209142, 5.089078) rotate(-0.160000) translate(-11.209142, -5.089078) " cx="11.2091417" cy="5.08907786" rx="1.03" ry="1.07"></ellipse>
                                                    <path d="M11.28,1.23 L13.47,2.44 C13.7971085,1.82216619 13.581446,1.05634435 12.98,0.7 C12.6865156,0.53359153 12.3372232,0.496145722 12.015134,0.596561776 C11.6930447,0.69697783 11.4269179,0.92628964 11.28,1.23 L11.28,1.23 Z" id="_Trazado_97" fill="#002176"></path>
                                                    <path d="M9.42,12.19 L7.08,13.07 C7.18222367,13.3879952 7.40937933,13.6507416 7.70926067,13.7978532 C8.00914202,13.9449648 8.35595755,13.9637892 8.67,13.85 C9.32674886,13.5894608 9.65856223,12.8550472 9.42,12.19 L9.42,12.19 Z" id="_Trazado_98" fill="#F28F8F"></path>
                                                    <path d="M1.05,2.09 L3.05,0.55 C2.86126568,0.275317548 2.56759323,0.0906417998 2.23826126,0.0395385619 C1.90892928,-0.0115646759 1.57310109,0.0754299386 1.31,0.28 C0.756551357,0.718628582 0.642396821,1.51331978 1.05,2.09 L1.05,2.09 Z" id="_Trazado_99" fill="#002176"></path>
                                                    <ellipse id="_Trazado_100" fill="#002176" transform="translate(2.678365, 4.812871) rotate(-0.160000) translate(-2.678365, -4.812871) " cx="2.67836506" cy="4.81287129" rx="1.03" ry="1.07"></ellipse>
                                                    <polygon id="_Trazado_101" fill="#F28F8F" points="6.89 3.84 6.55 10 3.33 8.91"></polygon>
                                                </g>
                                            </g>
                                            <path d="M38.84,180.18 L38.84,179.24 C38.21,179.51 36.75,185.08 34.15,187.46 C32.08,189.35 29.25,191.53 28.53,193.64 C27.81,195.75 32.47,197.04 34.4,196.7 C36.65,196.3 40.55,194.7 41.52,193.25 C42.49,191.8 42.96,189.62 43.75,188.54 C44.54,187.46 46.38,186.26 46.81,185.02 C46.9393127,183.856049 46.809546,182.677903 46.43,181.57 C46.13,180.41 45.8,179.13 45.43,179.24 C45.43,179.38 45.43,179.96 45.43,179.96 C44.4955849,180.693855 43.3380371,181.085586 42.15,181.07 C41.16,181.11 38.83,180.92 38.84,180.18 Z" id="_Trazado_102" fill="#002176"></path>
                                            <path d="M15.98,169.78 C15.64,169.78 15.36,170.27 14.61,171.09 C13.4869537,172.224958 12.1823667,173.164531 10.75,173.87 C8.29,175.1 3.51,176.99 1.35,177.97 C-6.99440506e-15,178.58 0.06,180.21 1.46,181.14 C2.86,182.07 6.23,182.74 10.28,181.83 C12.49,181.34 15.36,179.3 17.18,179.41 C19,179.52 22.4,179.49 23.74,178.57 C25.08,177.65 24.55,175.67 24.17,173.97 C23.76,172.12 23.17,169.28 22.55,169.41 L22.55,169.99 C21.76,171.19 17.74,171.67 16.01,170.79 L15.98,169.78 Z" id="_Trazado_103" fill="#002176"></path>
                                        </g>
                                    </g>
                                </g>
                                <path d="M69.05,75.91 C69.46,73.91 65.05,54.35 63.31,48.16 L55.65,57.16 L60.37,76.49 C59.4887498,81.9121394 58.2018021,87.2604934 56.52,92.49 C56.2154416,93.2987328 55.6248008,93.9676514 54.86,94.37 C52.86,95.46 51.94,96.67 50.36,98.11 C49.12,99.24 48.12,99.48 48.25,99.87 C48.6603148,100.773857 49.6972478,101.209544 50.63,100.87 C51.6390248,100.545961 52.605841,100.102837 53.51,99.55 C52.709674,101.277497 51.6358767,102.864556 50.33,104.25 C47.33,107.43 47.1,109.49 52.64,109.92 C56.11,110.19 59.03,108.23 62.16,100.75 C63.06,98.59 64.16,95.46 65.05,92.63 C67.05,85.84 68.11,80.47 69.05,75.91 Z" id="_Trazado_104" fill="#FFA8A7"></path>
                                <path d="M49.17,37.77 C53.07,39.06 60.81,39.72 63.3,48.16 C65.79,56.6 67.05,62.08 67.05,62.08 C65.58,64.08 59.72,66.31 56.97,65.48 L49.17,37.77 Z" id="_Trazado_105" fill="#FFDB4C"></path>
                                <polygon id="_Trazado_106" fill="#FFC000" points="56.98 65.47 54.31 55.98 56.98 69.33"></polygon>
                                <path d="M40.64,99.84 C37.2470555,98.7821567 34.1271921,96.993526 31.5,94.6 C31.5,94.6 33.26,97.9 38.5,100.98 L36.5,117.77 L40.64,99.84 Z" id="_Trazado_107" fill="#2343BA"></path>
                            </g>
                            <g id="_Grupo_82" transform="translate(293.000000, 171.000000)" fill-rule="nonzero">
                                <g id="_Grupo_83" fill="#2460DA">
                                    <path d="M18.53,8.4 C18.53,15.15 14.43,22.99 9.37,25.91 C4.31,28.83 0.21,25.73 0.21,18.98 C0.21,12.23 4.31,4.39 9.37,1.47 C14.43,-1.45 18.53,1.65 18.53,8.4 Z" id="_Trazado_108"></path>
                                </g>
                                <polygon id="_Trazado_109" fill="#2460DA" points="8.23 29.19 3.43 26.41 15.44 0.99 20.27 3.82"></polygon>
                                <polygon id="_Trazado_110" fill="#2460DA" points="14 33.69 9.17 30.92 9.12 28.32 14 28.32"></polygon>
                                <g id="_Grupo_84" transform="translate(12.000000, 24.000000)" fill="#4C9FFF">
                                    <path d="M0.11,5.59 L1.9,9.59 C1.94556686,9.71063032 2.06105035,9.79045549 2.19,9.79045549 C2.31894965,9.79045549 2.43443314,9.71063032 2.48,9.59 L4.37,3.17 L4.37,0.7 L0.1,3.16 L0.1,5.62 L0.11,5.59 Z" id="_Trazado_111"></path>
                                </g>
                                <g id="_Grupo_85" transform="translate(7.000000, 21.000000)" fill="#2460DA">
                                    <path d="M0.24,5.77 L2.03,9.77 C2.07556686,9.89063032 2.19105035,9.97045549 2.32,9.97045549 C2.44894965,9.97045549 2.56443314,9.89063032 2.61,9.77 L4.5,3.35 L4.5,0.89 L0.23,3.35 L0.23,5.81 L0.24,5.77 Z" id="_Trazado_112"></path>
                                </g>
                                <g id="_Grupo_86" transform="translate(5.000000, 3.000000)">
                                    <path d="M18.41,8.21 C18.41,14.96 14.31,22.8 9.25,25.72 C4.19,28.64 0.09,25.54 0.09,18.79 C0.09,12.04 4.19,4.2 9.25,1.28 C14.31,-1.64 18.41,1.46 18.41,8.21 Z" id="_Trazado_113" fill="#4C9FFF"></path>
                                    <g id="_Grupo_87" transform="translate(3.000000, 5.000000)" fill="#FFFFFF">
                                        <path d="M10.46,5.57 C10.8931241,5.18488003 11.1496905,4.63922486 11.17,4.06 C11.17,3.43 10.78,3.14 10.31,3.41 L7.76,4.88 C7.85031492,4.72734824 7.91770179,4.56225041 7.96,4.39 L8.11,3.8 C8.36025409,2.83715436 8.4780061,1.84467312 8.46,0.85 C8.46,0.37 8.15,0.16 7.78,0.37 C7.44101158,0.605615456 7.20770424,0.964549824 7.13,1.37 L6.86,2.77 C6.83379351,2.89738823 6.79354779,3.02147922 6.74,3.14 L5.04,7.03 C4.52023518,7.71628361 4.13975586,8.49762507 3.92,9.33 L3.92,13.92 C3.95757313,14.0716527 4.06258596,14.1977161 4.20495296,14.2620737 C4.34731996,14.3264314 4.51133178,14.3219819 4.65,14.25 L7.82,12.5 L7.82,12.5 L9.95,11.31 C10.4053712,10.9943151 10.6866341,10.4836008 10.71,9.93 C10.71,9.51 10.52,9.28 10.23,9.31 C10.6129545,8.97140759 10.8406078,8.49080615 10.86,7.98 C10.8875681,7.74779218 10.7882829,7.5186724 10.6,7.38 C10.8832303,7.03881329 11.0450432,6.61317499 11.06,6.17 C11.07,5.7 10.81,5.48 10.46,5.57 Z" id="_Trazado_114"></path>
                                        <path d="M0.77,17.17 L2.77,15.95 C2.94862565,15.7958743 3.04175125,15.5649228 3.02,15.33 L3.02,9.61 C3.04945088,9.514302 3.01360681,9.4105461 2.93136532,9.35343394 C2.84912382,9.29632179 2.73938306,9.29897712 2.66,9.36 L0.74,10.58 C0.602224448,10.7551616 0.557530336,10.9860812 0.62,11.2 L0.62,16.92 C0.66,17.16 0.59,17.27 0.77,17.17 Z" id="_Trazado_115"></path>
                                    </g>
                                </g>
                            </g>
                            <g id="_Grupo_88" transform="translate(0.000000, 171.000000)" fill-rule="nonzero">
                                <g id="_Grupo_89" transform="translate(5.000000, 0.000000)" fill="#FFC000">
                                    <path d="M0.17,8.4 C0.17,15.15 4.27,22.99 9.33,25.91 C14.39,28.83 18.49,25.73 18.49,18.98 C18.49,12.23 14.39,4.39 9.33,1.47 C4.27,-1.45 0.17,1.65 0.17,8.4 Z" id="_Trazado_116"></path>
                                </g>
                                <polygon id="_Trazado_117" fill="#FFC000" points="15.47 29.19 20.28 26.41 8.27 0.99 3.43 3.82"></polygon>
                                <polygon id="_Trazado_118" fill="#FFC000" points="9.71 33.69 14.53 30.92 14.58 28.32 9.71 28.32"></polygon>
                                <g id="_Grupo_90" transform="translate(7.000000, 24.000000)" fill="#FFDB4C">
                                    <path d="M4.59,5.59 L2.8,9.59 C2.75443314,9.71063032 2.63894965,9.79045549 2.51,9.79045549 C2.38105035,9.79045549 2.26556686,9.71063032 2.22,9.59 L0.33,3.17 L0.33,0.7 L4.6,3.16 L4.6,5.62 L4.59,5.59 Z" id="_Trazado_119"></path>
                                </g>
                                <g id="_Grupo_91" transform="translate(12.000000, 21.000000)" fill="#FFC000">
                                    <path d="M4.46,5.77 L2.67,9.77 C2.62443314,9.89063032 2.50894965,9.97045549 2.38,9.97045549 C2.25105035,9.97045549 2.13556686,9.89063032 2.09,9.77 L0.2,3.35 L0.2,0.89 L4.47,3.35 L4.47,5.81 L4.46,5.77 Z" id="_Trazado_120"></path>
                                </g>
                                <g id="_Grupo_92" transform="translate(0.000000, 3.000000)">
                                    <path d="M0.27,8.2 C0.27,14.96 4.38,22.82 9.45,25.75 C14.52,28.68 18.63,25.57 18.63,18.81 C18.63,12.05 14.52,4.19 9.45,1.26 C4.38,-1.67 0.27,1.44 0.27,8.2 Z" id="_Trazado_121" fill="#FFDB4C"></path>
                                    <g id="_Grupo_93" transform="translate(3.000000, 9.000000)">
                                        <path d="M12.73,8.01 C12.8113765,9.58200658 12.3448513,11.1335562 11.41,12.4 C10.26,13.78 8.47,14.12 6.47,12.95 C4.19764739,11.4201502 2.45179711,9.22736219 1.47,6.67 C0.64542957,4.80252293 0.196887424,2.79087936 0.15,0.75 L12.73,8.01 Z" id="_Trazado_122" fill="#002176"></path>
                                        <path d="M11.41,12.41 C10.26,13.79 8.47,14.13 6.47,12.96 C4.19764739,11.4301502 2.45179711,9.23736219 1.47,6.68 C2.75,5.76 4.47,5.74 6.47,6.85 C8.59014656,8.22135887 10.29768,10.1431981 11.41,12.41 L11.41,12.41 Z" id="_Trazado_123" fill="#F28F8F"></path>
                                    </g>
                                    <g id="_Grupo_94" transform="translate(3.000000, 3.000000)" fill="#002176">
                                        <g id="_Grupo_95" transform="translate(8.000000, 6.000000)">
                                            <path d="M4.28,5.13 C4.14529676,5.12757304 4.01657349,5.07393835 3.92,4.98 L0.65,1.89 C0.500271853,1.74608632 0.448392602,1.52798434 0.517286354,1.33206773 C0.586180106,1.13615112 0.763150945,0.998523899 0.97,0.98 L3.49,0.75 C3.78138502,0.726639627 4.03845491,0.93938712 4.07,1.23 C4.08390522,1.37069674 4.04101932,1.51111741 3.9508786,1.62003746 C3.86073787,1.7289575 3.73081492,1.79734752 3.59,1.81 L2.24,1.93 L4.65,4.21 C4.81227733,4.35923184 4.86522684,4.59333613 4.78296564,4.79787749 C4.70070444,5.00241885 4.50041371,5.13467651 4.28,5.13 L4.28,5.13 Z" id="_Trazado_124"></path>
                                        </g>
                                        <g id="_Grupo_96">
                                            <path d="M3.98,5.15 L3.91,5.15 L0.64,4.47 C0.417431132,4.48005134 0.212337936,4.34983513 0.126753388,4.14413337 C0.0411688395,3.9384316 0.0933672003,3.70116633 0.257380013,3.55037598 C0.421392825,3.39958564 0.662199595,3.36746742 0.86,3.47 L2.68,3.85 L1.09,1.85 C0.907746065,1.62080183 0.945801873,1.28725399 1.17500003,1.10500004 C1.40419819,0.922746081 1.73774602,0.96080186 1.92,1.19 L4.44,4.32 C4.55402336,4.48564235 4.56448171,4.70154732 4.4670019,4.87743479 C4.3695221,5.05332226 4.18089711,5.15889189 3.98,5.15 L3.98,5.15 Z" id="_Trazado_125"></path>
                                        </g>
                                    </g>
                                </g>
                            </g>
                        </g>
                        <g id="_Grupo_97" transform="translate(0.000000, 59.000000)" fill="#D9EEFF" fill-rule="nonzero">
                            <path d="M342.73,14.45 L346.56,15.92 L346.56,7.47 C346.56,0.77 351.9,-0.83 357.7,2.47 L357.7,2.47 C363.5,5.82 368.2,13.96 368.2,20.66 L368.2,21.89 C369.852355,21.3786351 371.648063,21.6551814 373.07,22.64 L373.07,22.64 C377.533563,25.5477972 380.342041,30.4106243 380.63,35.73 L380.63,36.29 L385.98,39.38 C388.927237,41.2903334 390.785054,44.4932102 390.98,48 C390.98,51.17 388.75,52.46 385.98,50.87 L342.73,25.87 C339.782763,23.9596666 337.924946,20.7567898 337.73,17.25 C337.75,14.15 339.98,12.87 342.73,14.45 Z" id="_Trazado_126"></path>
                            <path d="M52.92,14.2 L44.07,19.31 C44.1147525,18.9215771 44.1381211,18.530988 44.14,18.14 L44.14,15.58 C44.14,11.02 40.94,9.17 36.99,11.45 C35.2912472,12.4938564 33.8380922,13.8924328 32.73,15.55 C32.08,9.81 27.58,7.68 22.12,10.83 C16.21,14.24 11.42,22.54 11.42,29.37 L11.42,33.21 C11.3830594,34.7398272 11.6942265,36.2580489 12.33,37.65 L4.98,41.89 C2.62573519,43.4094991 1.13927851,45.9624885 0.98,48.76 C0.98,51.29 2.76,52.32 4.98,51.05 L52.98,23.36 C55.3342648,21.8405009 56.8207215,19.2875115 56.98,16.49 C56.89,13.97 55.11,12.94 52.92,14.2 Z" id="_Trazado_127"></path>
                        </g>
                    </g>
                </g>
            </g>
        </g>
    </g>
</svg>